{
.appVersion = "3151";
.formatVersion = 3;
DisplayStrings = (
"/Placeholder a/Placeholder b/Placeholder c/Placeholder d/Placeholder e/Placeholder f/Placeholder g/Placeholder h/Placeholder i/Placeholder k/Placeholder l/Placeholder m/Placeholder n/Placeholder o/Placeholder p/Placeholder q/Placeholder r/Placeholder s/Placeholder t/Placeholder u/Placeholder v/Placeholder w/Placeholder x/Placeholder y/Placeholder z/Placeholder 
-",
"/Placeholder 0/Placeholder 1/Placeholder 2/Placeholder 3/Placeholder 4/Placeholder 5/Placeholder 6/Placeholder 7/Placeholder 8/Placeholder 9/Placeholder 
-
+−×÷=≠><≥≤±≈~¬^∞∫∏∑√∂%‰◊
฿№¢¤$€₽₹₪£¥

",
"/Placeholder A/Placeholder B/Placeholder C/Placeholder D/Placeholder E/Placeholder F/Placeholder G/Placeholder H/Placeholder I/Placeholder J/Placeholder K/Placeholder L/Placeholder M/Placeholder N/Placeholder O/Placeholder P/Placeholder Q/Placeholder R/Placeholder S/Placeholder T/Placeholder U/Placeholder V/Placeholder W/Placeholder X/Placeholder Y/Placeholder Z/Placeholder ß/Placeholder ẞ/Placeholder/Placeholder 
-
",
"satis/f_y ing
/f_y",
"comancheros smugs telesales jacobitic unsuitability statesperson outpoured monotremata fructivorous flannel udaller hithers sunderings nummulary mossies higher crudely thumbikins arolla astrometry industrialise striatum rencountering interstices redistributing gilts sent scrimshoner baobab turfiest permease peeves pyramidion accountableness chapelmasters actualization equivalent impones tableting grecizes escaladed separative holography niding pilgrims corposants semicomatose estrangements tumbler headlocks",
".·•‚„“*”‘’\"''",
"HHHHHCHHHHH
OOOOOaOOOOO
a",
"+−×÷÷=≠><≥≤±≈~¬^∞",

glyphs = (
{
glyphname = A;
kernLeft = A;
kernRight = A;
lastChange = "2023-06-29 13:41:42 +0000";
layers = (
{
anchors = (
{
name = bottom;
pos = (356,0);
},
{
name = ogonek;
pos = (641,17);
},
{
name = top;
pos = (356,700);
}
);
hints = (
{
name = _corner.leftSerif.Upper;
origin = (0,5);
scale = (-1.2,-1);
type = Corner;
},
{
name = _corner.rightSerif.Upper;
options = 1;
origin = (0,6);
scale = (-1,-1);
type = Corner;
},
{
name = _corner.leftSerif.Upper;
options = 1;
origin = (0,0);
scale = (1.4,-1);
type = Corner;
},
{
name = _corner.rightSerif.Upper;
origin = (0,9);
scale = (1,-1);
type = Corner;
}
);
layerId = m01;
shapes = (
{
closed = 1;
nodes = (
(120,0,l),
(208,232,l),
(192,218,l),
(462,218,l),
(445,229,l),
(525,0,l),
(633,0,l),
(390,700,l),
(345,700,l),
(80,0,l)
);
},
{
closed = 1;
nodes = (
(340,580,l),
(323,580,l),
(438,248,l),
(448,263,l),
(203,263,l),
(214,248,l)
);
}
);
width = 712;
},
{
anchors = (
{
name = bottom;
pos = (316,0);
},
{
name = ogonek;
pos = (605,16);
},
{
name = top;
pos = (439,700);
}
);
hints = (
{
name = _corner.leftSerif.Upper;
origin = (0,5);
scale = (-1.2,-1);
type = Corner;
},
{
name = _corner.rightSerif.Upper;
options = 1;
origin = (0,6);
scale = (-1,-1);
type = Corner;
},
{
name = _corner.leftSerif.Upper;
options = 1;
origin = (0,0);
scale = (1.4,-1);
type = Corner;
},
{
name = _corner.rightSerif.Upper;
origin = (0,9);
scale = (1,-1);
type = Corner;
}
);
layerId = m002;
shapes = (
{
closed = 1;
nodes = (
(80,0,l),
(209,232,l),
(191,218,l),
(461,218,l),
(446,229,l),
(485,0,l),
(593,0,l),
(474,700,l),
(429,700,l),
(40,0,l)
);
},
{
closed = 1;
nodes = (
(403,580,l),
(386,580,l),
(442,248,l),
(455,263,l),
(210,263,l),
(218,248,l)
);
}
);
width = 719;
}
);
unicode = 65;
},
{
glyphname = AE;
kernLeft = A;
kernRight = E;
lastChange = "2023-06-24 15:27:18 +0000";
layers = (
{
anchors = (
{
name = bottom;
pos = (437,0);
},
{
name = top;
pos = (437,700);
}
);
hints = (
{
name = _corner.leftSerif.Upper;
options = 1;
origin = (0,0);
scale = (1.4,-1);
type = Corner;
},
{
name = _corner.rightSerif.Upper;
origin = (0,3);
scale = (1,-1);
type = Corner;
},
{
name = _corner.rightSerif;
options = 1;
origin = (0,2);
type = Corner;
},
{
name = _corner.FSerif;
origin = (2,0);
type = Corner;
},
{
name = _corner.FSerif;
options = 1;
origin = (3,1);
scale = (1,-1);
type = Corner;
},
{
name = _corner.rightSerif.Upper;
origin = (5,1);
scale = (1.2,1);
type = Corner;
},
{
name = _corner.leftSerif.Upper;
origin = (5,0);
scale = (1.2,1);
type = Corner;
},
{
name = _corner.leftSerif.Upper;
origin = (4,3);
type = Corner;
}
);
layerId = m01;
shapes = (
{
closed = 1;
nodes = (
(120,0,l),
(459,700,l),
(419,700,l),
(80,0,l)
);
},
{
closed = 1;
nodes = (
(454,218,l),
(454,263,l),
(225,263,l),
(214,218,l)
);
},
{
closed = 1;
nodes = (
(827,655,l),
(822,700,l),
(461,700,l),
(461,655,l)
);
},
{
closed = 1;
nodes = (
(840,0,l),
(845,45,l),
(481,45,l),
(481,0,l)
);
},
{
closed = 1;
nodes = (
(541,0,l),
(541,700,l),
(436,700,l),
(436,0,l)
);
},
{
closed = 1;
nodes = (
(730,330,l),
(730,375,l),
(501,375,l),
(501,330,l)
);
}
);
width = 874;
},
{
anchors = (
{
name = bottom;
pos = (396,0);
},
{
name = top;
pos = (519,700);
}
);
hints = (
{
name = _corner.leftSerif.Upper;
options = 1;
origin = (0,0);
scale = (1.4,-1);
type = Corner;
},
{
name = _corner.rightSerif.Upper;
origin = (0,3);
scale = (1,-1);
type = Corner;
},
{
name = _corner.rightSerif;
options = 1;
origin = (0,2);
type = Corner;
},
{
name = _corner.FSerif;
origin = (2,0);
type = Corner;
},
{
name = _corner.FSerif;
options = 1;
origin = (3,1);
scale = (1,-1);
type = Corner;
},
{
name = _corner.rightSerif.Upper;
origin = (5,1);
scale = (1.2,1);
type = Corner;
},
{
name = _corner.leftSerif.Upper;
origin = (5,0);
scale = (1.2,1);
type = Corner;
},
{
name = _corner.leftSerif.Upper;
origin = (4,3);
type = Corner;
}
);
layerId = m002;
shapes = (
{
closed = 1;
nodes = (
(80,0,l),
(543,700,l),
(503,700,l),
(40,0,l)
);
},
{
closed = 1;
nodes = (
(453,218,l),
(461,263,l),
(232,263,l),
(213,218,l)
);
},
{
closed = 1;
nodes = (
(903,655,l),
(906,700,l),
(545,700,l),
(537,655,l)
);
},
{
closed = 1;
nodes = (
(800,0,l),
(813,45,l),
(449,45,l),
(441,0,l)
);
},
{
closed = 1;
nodes = (
(501,0,l),
(625,700,l),
(520,700,l),
(396,0,l)
);
},
{
closed = 1;
nodes = (
(748,330,l),
(756,375,l),
(527,375,l),
(519,330,l)
);
}
);
width = 879;
}
);
metricLeft = A;
metricRight = E;
unicode = 198;
},
{
glyphname = B;
kernLeft = H;
kernRight = B;
lastChange = "2023-06-24 15:27:18 +0000";
layers = (
{
anchors = (
{
name = bottom;
pos = (302,0);
},
{
name = center;
pos = (302,350);
},
{
name = top;
pos = (302,700);
}
);
hints = (
{
name = _corner.rightSerif.Upper;
origin = (1,2);
type = Corner;
},
{
name = _corner.leftSerif.Upper;
origin = (1,3);
type = Corner;
}
);
layerId = m01;
shapes = (
{
closed = 1;
nodes = (
(292,0,ls),
(517,0,o),
(592,78,o),
(592,218,cs),
(592,313,o),
(533,398,o),
(426,405,c),
(426,408,l),
(516,422,o),
(556,477,o),
(556,550,cs),
(556,654,o),
(488,700,o),
(342,700,cs),
(151,700,l),
(151,659,l),
(302,659,ls),
(407,659,o),
(446,628,o),
(446,548,cs),
(446,465,o),
(405,427,o),
(280,427,cs),
(165,427,l),
(165,387,l),
(321,387,ls),
(423,387,o),
(482,319,o),
(482,218,cs),
(482,92,o),
(435,40,o),
(282,40,cs),
(139,40,l),
(139,0,l)
);
},
{
closed = 1;
nodes = (
(199,0,l),
(199,700,l),
(94,700,l),
(94,0,l)
);
}
);
width = 604;
},
{
anchors = (
{
name = bottom;
pos = (260,0);
},
{
name = center;
pos = (322,350);
},
{
name = top;
pos = (383,700);
}
);
hints = (
{
name = _corner.rightSerif.Upper;
options = 1;
origin = (1,2);
type = Corner;
},
{
name = _corner.leftSerif.Upper;
origin = (1,3);
type = Corner;
}
);
layerId = m002;
shapes = (
{
closed = 1;
nodes = (
(252,0,ls),
(477,0,o),
(566,78,o),
(591,218,cs),
(607,313,o),
(563,398,o),
(458,405,c),
(458,408,l),
(551,422,o),
(600,477,o),
(613,550,cs),
(632,654,o),
(572,700,o),
(426,700,cs),
(235,700,l),
(227,659,l),
(378,659,ls),
(483,659,o),
(517,628,o),
(503,548,cs),
(488,465,o),
(441,427,o),
(316,427,cs),
(201,427,l),
(194,387,l),
(350,387,ls),
(452,387,o),
(499,319,o),
(481,218,cs),
(459,92,o),
(402,40,o),
(249,40,cs),
(106,40,l),
(99,0,l)
);
},
{
closed = 1;
nodes = (
(159,0,l),
(283,700,l),
(178,700,l),
(54,0,l)
);
}
);
width = 607;
}
);
metricLeft = H;
unicode = 66;
},
{
glyphname = C;
kernLeft = O;
kernRight = C;
lastChange = "2023-06-24 15:27:18 +0000";
layers = (
{
anchors = (
{
name = bottom;
pos = (271,0);
},
{
name = top;
pos = (271,700);
}
);
background = {
shapes = (
{
pos = (-15,0);
ref = E;
}
);
};
layerId = m01;
shapes = (
{
closed = 1;
nodes = (
(419,-16,o),
(493,41,o),
(528,155,c),
(518,163,l),
(482,94,o),
(433,63,o),
(361,63,cs),
(216,63,o),
(125,182,o),
(125,365,cs),
(125,543,o),
(222,676,o),
(339,676,cs),
(398,676,o),
(461,604,o),
(488,512,c),
(509,512,l),
(491,690,l),
(451,707,o),
(397,716,o),
(343,716,cs),
(147,716,o),
(15,572,o),
(15,339,cs),
(15,126,o),
(133,-16,o),
(309,-16,cs)
);
}
);
width = 541;
},
{
anchors = (
{
name = bottom;
pos = (223,0);
},
{
name = top;
pos = (346,700);
}
);
background = {
shapes = (
{
closed = 1;
nodes = (
(369,-16,o),
(454,41,o),
(509,155,c),
(500,163,l),
(452,94,o),
(397,63,o),
(325,63,cs),
(180,63,o),
(110,182,o),
(143,365,cs),
(174,543,o),
(294,676,o),
(411,676,cs),
(470,676,o),
(521,604,o),
(532,512,c),
(553,512,l),
(566,690,l),
(529,707,o),
(477,716,o),
(423,716,cs),
(227,716,o),
(69,572,o),
(28,339,cs),
(-9,126,o),
(83,-16,o),
(259,-16,cs)
);
}
);
};
layerId = m002;
shapes = (
{
closed = 1;
nodes = (
(369,-16,o),
(454,41,o),
(509,155,c),
(500,163,l),
(452,94,o),
(397,63,o),
(325,63,cs),
(180,63,o),
(116,202,o),
(150,395,cs),
(180,563,o),
(284,676,o),
(411,676,cs),
(480,676,o),
(519,624,o),
(532,512,c),
(553,512,l),
(566,690,l),
(529,707,o),
(477,716,o),
(423,716,cs),
(227,716,o),
(75,592,o),
(36,369,cs),
(-3,146,o),
(83,-16,o),
(259,-16,cs)
);
}
);
width = 534;
}
);
metricLeft = O;
unicode = 67;
},
{
glyphname = D;
kernLeft = H;
kernRight = O;
lastChange = "2023-06-24 16:04:28 +0000";
layers = (
{
anchors = (
{
name = bottom;
pos = (319,0);
},
{
name = center;
pos = (234,350);
},
{
name = top;
pos = (319,700);
}
);
hints = (
{
name = _corner.rightSerif.Upper;
origin = (1,2);
type = Corner;
},
{
name = _corner.leftSerif.Upper;
origin = (1,3);
type = Corner;
}
);
layerId = m01;
shapes = (
{
closed = 1;
nodes = (
(302,0,ls),
(480,0,o),
(623,107,o),
(623,350,cs),
(623,593,o),
(480,700,o),
(302,700,cs),
(151,700,l),
(151,659,l),
(302,659,ls),
(449,659,o),
(513,537,o),
(513,350,cs),
(513,163,o),
(449,40,o),
(302,40,cs),
(139,40,l),
(139,0,l)
);
},
{
closed = 1;
nodes = (
(199,0,l),
(199,700,l),
(94,700,l),
(94,0,l)
);
}
);
width = 638;
},
{
anchors = (
{
name = bottom;
pos = (277,0);
},
{
name = center;
pos = (269,350);
},
{
name = top;
pos = (400,700);
}
);
hints = (
{
name = _corner.rightSerif.Upper;
options = 1;
origin = (1,2);
type = Corner;
},
{
name = _corner.leftSerif.Upper;
origin = (1,3);
type = Corner;
}
);
layerId = m002;
shapes = (
{
closed = 1;
nodes = (
(262,0,ls),
(440,0,o),
(602,107,o),
(645,350,cs),
(688,593,o),
(564,700,o),
(386,700,cs),
(235,700,l),
(227,659,l),
(378,659,ls),
(525,659,o),
(568,537,o),
(535,350,cs),
(502,163,o),
(416,40,o),
(269,40,cs),
(106,40,l),
(99,0,l)
);
},
{
closed = 1;
nodes = (
(159,0,l),
(283,700,l),
(178,700,l),
(54,0,l)
);
}
);
width = 642;
}
);
metricLeft = H;
metricRight = O;
unicode = 68;
},
{
glyphname = E;
kernLeft = H;
kernRight = E;
lastChange = "2023-06-24 16:04:46 +0000";
layers = (
{
anchors = (
{
name = bottom;
pos = (266,0);
},
{
name = ogonek;
pos = (479,16);
},
{
name = top;
pos = (266,700);
},
{
name = topleft;
pos = (20,700);
}
);
background = {
hints = (
{
name = _corner.leftSerif.Upper;
origin = (0,0);
type = Corner;
}
);
shapes = (
{
closed = 1;
nodes = (
(518,655,l),
(518,700,l),
(119,700,l),
(119,655,l)
);
}
);
};
hints = (
{
name = _corner.FSerif;
origin = (0,0);
type = Corner;
},
{
name = _corner.FSerif;
options = 1;
origin = (1,1);
scale = (1,-1);
type = Corner;
},
{
name = _corner.rightSerif.Upper;
origin = (3,1);
scale = (1.2,1);
type = Corner;
},
{
name = _corner.leftSerif.Upper;
origin = (3,0);
scale = (1.2,1);
type = Corner;
},
{
name = _corner.rightSerif.Upper;
origin = (2,2);
type = Corner;
},
{
name = _corner.leftSerif.Upper;
origin = (2,3);
type = Corner;
}
);
layerId = m01;
shapes = (
{
closed = 1;
nodes = (
(485,655,l),
(480,700,l),
(119,700,l),
(119,655,l)
);
},
{
closed = 1;
nodes = (
(498,0,l),
(503,45,l),
(139,45,l),
(139,0,l)
);
},
{
closed = 1;
nodes = (
(199,0,l),
(199,700,l),
(94,700,l),
(94,0,l)
);
},
{
closed = 1;
nodes = (
(388,330,l),
(388,375,l),
(159,375,l),
(159,330,l)
);
}
);
width = 532;
},
{
anchors = (
{
name = bottom;
pos = (225,0);
},
{
name = ogonek;
pos = (441,15);
},
{
name = top;
pos = (348,700);
},
{
name = topleft;
pos = (99,700);
}
);
background = {
hints = (
{
name = _corner.leftSerif.Upper;
origin = (0,0);
type = Corner;
}
);
shapes = (
{
closed = 1;
nodes = (
(540,655,l),
(540,700,l),
(141,700,l),
(141,655,l)
);
}
);
};
hints = (
{
name = _corner.FSerif;
origin = (0,0);
type = Corner;
},
{
name = _corner.FSerif;
options = 1;
origin = (1,1);
scale = (1,-1);
type = Corner;
},
{
name = _corner.rightSerif.Upper;
options = 1;
origin = (3,1);
scale = (1.2,1);
type = Corner;
},
{
name = _corner.leftSerif.Upper;
origin = (3,0);
scale = (1.2,1);
type = Corner;
},
{
name = _corner.rightSerif.Upper;
options = 1;
origin = (2,2);
type = Corner;
},
{
name = _corner.leftSerif.Upper;
origin = (2,3);
type = Corner;
}
);
layerId = m002;
shapes = (
{
closed = 1;
nodes = (
(561,655,l),
(564,700,l),
(203,700,l),
(195,655,l)
);
},
{
closed = 1;
nodes = (
(458,0,l),
(471,45,l),
(107,45,l),
(99,0,l)
);
},
{
closed = 1;
nodes = (
(159,0,l),
(283,700,l),
(178,700,l),
(54,0,l)
);
},
{
closed = 1;
nodes = (
(406,330,l),
(414,375,l),
(185,375,l),
(177,330,l)
);
}
);
width = 537;
}
);
metricLeft = H;
unicode = 69;
},
{
glyphname = Schwa;
kernLeft = O;
kernRight = O;
lastChange = "2023-06-24 15:27:18 +0000";
layers = (
{
anchors = (
{
name = bottom;
pos = (307,0);
},
{
name = top;
pos = (307,700);
}
);
layerId = m01;
shapes = (
{
closed = 1;
nodes = (
(455,-16,o),
(598,107,o),
(598,350,cs),
(598,593,o),
(455,716,o),
(307,716,cs),
(192,716,o),
(81,643,o),
(36,499,c),
(141,499,l),
(167,606,o),
(223,676,o),
(307,676,cs),
(424,676,o),
(488,537,o),
(488,350,cs),
(488,163,o),
(424,24,o),
(307,24,cs),
(189,24,o),
(125,163,o),
(125,350,c),
(15,350,l),
(15,107,o),
(158,-16,o),
(307,-16,cs)
);
},
{
closed = 1;
nodes = (
(508,305,l),
(508,350,l),
(109,350,l),
(109,305,l)
);
}
);
width = 613;
},
{
anchors = (
{
name = bottom;
pos = (263,0);
},
{
name = top;
pos = (386,700);
}
);
layerId = m002;
shapes = (
{
closed = 1;
nodes = (
(390,-16,o),
(555,107,o),
(598,350,cs),
(641,593,o),
(520,716,o),
(372,716,cs),
(257,716,o),
(133,643,o),
(62,499,c),
(167,499,l),
(212,606,o),
(280,676,o),
(364,676,cs),
(481,676,o),
(521,537,o),
(488,350,cs),
(455,163,o),
(367,24,o),
(250,24,cs),
(132,24,o),
(92,163,o),
(125,350,c),
(15,350,l),
(-28,107,o),
(93,-16,o),
(242,-16,cs)
);
},
{
closed = 1;
nodes = (
(500,305,l),
(508,350,l),
(109,350,l),
(101,305,l)
);
}
);
width = 613;
}
);
unicode = 399;
},
{
glyphname = F;
kernLeft = H;
kernRight = F;
lastChange = "2023-06-24 15:27:18 +0000";
layers = (
{
anchors = (
{
name = bottom;
pos = (256,0);
},
{
name = top;
pos = (256,700);
}
);
hints = (
{
name = _corner.FSerif;
origin = (2,0);
type = Corner;
},
{
name = _corner.rightSerif.Upper;
origin = (1,1);
scale = (1.2,1);
type = Corner;
},
{
name = _corner.leftSerif.Upper;
origin = (1,0);
scale = (1.2,1);
type = Corner;
},
{
name = _corner.rightSerif.Upper;
origin = (0,2);
type = Corner;
},
{
name = _corner.leftSerif.Upper;
origin = (0,3);
type = Corner;
},
{
name = _corner.rightSerif.Upper;
origin = (0,0);
scale = (1.3,1);
type = Corner;
}
);
layerId = m01;
shapes = (
{
closed = 1;
nodes = (
(199,0,l),
(199,700,l),
(94,700,l),
(94,0,l)
);
},
{
closed = 1;
nodes = (
(388,316,l),
(388,361,l),
(159,361,l),
(159,316,l)
);
},
{
closed = 1;
nodes = (
(485,655,l),
(480,700,l),
(119,700,l),
(119,655,l)
);
}
);
width = 511;
},
{
anchors = (
{
name = bottom;
pos = (216,0);
},
{
name = top;
pos = (339,700);
}
);
hints = (
{
name = _corner.FSerif;
origin = (2,0);
type = Corner;
},
{
name = _corner.rightSerif.Upper;
options = 1;
origin = (1,1);
scale = (1.2,1);
type = Corner;
},
{
name = _corner.leftSerif.Upper;
origin = (1,0);
scale = (1.2,1);
type = Corner;
},
{
name = _corner.rightSerif.Upper;
options = 1;
origin = (0,2);
type = Corner;
},
{
name = _corner.leftSerif.Upper;
origin = (0,3);
type = Corner;
},
{
name = _corner.rightSerif.Upper;
options = 1;
origin = (0,0);
scale = (1.3,1);
type = Corner;
}
);
layerId = m002;
shapes = (
{
closed = 1;
nodes = (
(159,0,l),
(283,700,l),
(178,700,l),
(54,0,l)
);
},
{
closed = 1;
nodes = (
(404,316,l),
(412,361,l),
(183,361,l),
(175,316,l)
);
},
{
closed = 1;
nodes = (
(561,655,l),
(564,700,l),
(203,700,l),
(195,655,l)
);
}
);
width = 519;
}
);
metricLeft = H;
unicode = 70;
},
{
glyphname = G;
kernLeft = O;
kernRight = G;
lastChange = "2023-06-24 15:27:18 +0000";
layers = (
{
anchors = (
{
name = bottom;
pos = (292,0);
},
{
name = top;
pos = (292,700);
}
);
hints = (
{
name = _corner.rightSerif.Upper;
origin = (0,4);
type = Corner;
},
{
name = _corner.leftSerif.Upper;
origin = (0,3);
scale = (0.6,1);
type = Corner;
}
);
layerId = m01;
shapes = (
{
closed = 1;
nodes = (
(439,-16,o),
(510,40,o),
(528,86,c),
(528,348,l),
(428,348,l),
(428,67,l),
(428,48,o),
(400,37,o),
(361,37,cs),
(216,37,o),
(125,182,o),
(125,365,cs),
(125,543,o),
(216,676,o),
(333,676,cs),
(405,676,o),
(450,626,o),
(482,510,c),
(503,512,l),
(485,690,l),
(445,707,o),
(391,716,o),
(337,716,cs),
(141,716,o),
(15,572,o),
(15,339,cs),
(15,126,o),
(133,-16,o),
(317,-16,cs)
);
}
);
width = 584;
},
{
anchors = (
{
name = bottom;
pos = (251,0);
},
{
name = top;
pos = (374,700);
}
);
hints = (
{
name = _corner.rightSerif.Upper;
options = 1;
origin = (0,4);
type = Corner;
},
{
name = _corner.leftSerif.Upper;
origin = (0,3);
scale = (0.6,1);
type = Corner;
}
);
layerId = m002;
shapes = (
{
closed = 1;
nodes = (
(392,-16,o),
(473,40,o),
(499,86,c),
(546,348,l),
(446,348,l),
(396,67,l),
(393,48,o),
(363,37,o),
(324,37,cs),
(179,37,o),
(113,182,o),
(146,365,cs),
(177,543,o),
(291,676,o),
(408,676,cs),
(480,676,o),
(517,626,o),
(528,510,c),
(550,512,l),
(563,690,l),
(526,707,o),
(474,716,o),
(420,716,cs),
(224,716,o),
(72,572,o),
(31,339,cs),
(-6,126,o),
(86,-16,o),
(270,-16,cs)
);
}
);
width = 589;
}
);
metricLeft = O;
unicode = 71;
},
{
glyphname = H;
kernLeft = H;
kernRight = H;
lastChange = "2023-06-24 15:47:40 +0000";
layers = (
{
anchors = (
{
name = bottom;
pos = (314,0);
},
{
name = center;
pos = (314,569);
},
{
name = top;
pos = (314,700);
},
{
name = topleft;
pos = (20,700);
}
);
hints = (
{
name = _corner.rightSerif.Upper;
origin = (1,0);
type = Corner;
},
{
name = _corner.leftSerif.Upper;
origin = (1,1);
type = Corner;
},
{
name = _corner.rightSerif.Upper;
origin = (1,2);
type = Corner;
},
{
name = _corner.leftSerif.Upper;
origin = (1,3);
type = Corner;
},
{
name = _corner.rightSerif.Upper;
origin = (0,0);
type = Corner;
},
{
name = _corner.leftSerif.Upper;
origin = (0,1);
type = Corner;
},
{
name = _corner.rightSerif.Upper;
origin = (0,2);
type = Corner;
},
{
name = _corner.leftSerif.Upper;
origin = (0,3);
type = Corner;
}
);
layerId = m01;
shapes = (
{
closed = 1;
nodes = (
(534,0,l),
(534,700,l),
(429,700,l),
(429,0,l)
);
},
{
closed = 1;
nodes = (
(199,0,l),
(199,700,l),
(94,700,l),
(94,0,l)
);
},
{
closed = 1;
nodes = (
(468,318,l),
(468,363,l),
(169,363,l),
(169,318,l)
);
}
);
width = 628;
},
{
anchors = (
{
name = bottom;
pos = (274,0);
},
{
name = center;
pos = (377,580);
},
{
name = top;
pos = (397,700);
},
{
name = topleft;
pos = (99,700);
}
);
hints = (
{
name = _corner.rightSerif.Upper;
options = 1;
origin = (1,0);
type = Corner;
},
{
name = _corner.leftSerif.Upper;
origin = (1,1);
type = Corner;
},
{
name = _corner.rightSerif.Upper;
options = 1;
origin = (1,2);
type = Corner;
},
{
name = _corner.leftSerif.Upper;
origin = (1,3);
type = Corner;
},
{
name = _corner.rightSerif.Upper;
options = 1;
origin = (0,0);
type = Corner;
},
{
name = _corner.leftSerif.Upper;
origin = (0,1);
type = Corner;
},
{
name = _corner.rightSerif.Upper;
options = 1;
origin = (0,2);
type = Corner;
},
{
name = _corner.leftSerif.Upper;
origin = (0,3);
type = Corner;
}
);
layerId = m002;
shapes = (
{
closed = 1;
nodes = (
(494,0,l),
(618,700,l),
(513,700,l),
(389,0,l)
);
},
{
closed = 1;
nodes = (
(159,0,l),
(283,700,l),
(178,700,l),
(54,0,l)
);
},
{
closed = 1;
nodes = (
(484,318,l),
(492,363,l),
(193,363,l),
(185,318,l)
);
}
);
width = 636;
}
);
unicode = 72;
},
{
glyphname = I;
kernLeft = H;
kernRight = H;
lastChange = "2023-06-24 16:05:40 +0000";
layers = (
{
anchors = (
{
name = bottom;
pos = (147,0);
},
{
name = ogonek;
pos = (264,16);
},
{
name = top;
pos = (147,700);
},
{
name = topleft;
pos = (20,700);
}
);
hints = (
{
name = _corner.rightSerif.Upper;
origin = (0,0);
type = Corner;
},
{
name = _corner.leftSerif.Upper;
origin = (0,1);
type = Corner;
},
{
name = _corner.rightSerif.Upper;
origin = (0,2);
type = Corner;
},
{
name = _corner.leftSerif.Upper;
origin = (0,3);
type = Corner;
}
);
layerId = m01;
shapes = (
{
closed = 1;
nodes = (
(199,0,l),
(199,700,l),
(94,700,l),
(94,0,l)
);
}
);
width = 293;
},
{
anchors = (
{
name = bottom;
pos = (107,0);
},
{
name = ogonek;
pos = (219,15);
},
{
name = top;
pos = (230,700);
},
{
name = topleft;
pos = (99,700);
}
);
hints = (
{
name = _corner.rightSerif.Upper;
options = 1;
origin = (0,0);
type = Corner;
},
{
name = _corner.leftSerif.Upper;
origin = (0,1);
type = Corner;
},
{
name = _corner.rightSerif.Upper;
options = 1;
origin = (0,2);
type = Corner;
},
{
name = _corner.leftSerif.Upper;
origin = (0,3);
type = Corner;
}
);
layerId = m002;
shapes = (
{
closed = 1;
nodes = (
(159,0,l),
(283,700,l),
(178,700,l),
(54,0,l)
);
}
);
width = 301;
}
);
metricLeft = H;
metricRight = H;
unicode = 73;
},
{
glyphname = IJ;
kernLeft = H;
kernRight = J;
lastChange = "2023-06-24 15:27:18 +0000";
layers = (
{
hints = (
{
name = _corner.rightSerif.Upper;
origin = (0,0);
type = Corner;
},
{
name = _corner.leftSerif.Upper;
origin = (0,1);
type = Corner;
},
{
name = _corner.rightSerif.Upper;
origin = (0,2);
type = Corner;
},
{
name = _corner.leftSerif.Upper;
origin = (0,3);
type = Corner;
},
{
name = _corner.leftSerif.Upper;
origin = (1,3);
type = Corner;
},
{
name = _corner.rightSerif.Upper;
origin = (1,4);
type = Corner;
}
);
layerId = m01;
shapes = (
{
closed = 1;
nodes = (
(199,0,l),
(199,700,l),
(94,700,l),
(94,0,l)
);
},
{
closed = 1;
nodes = (
(476,-201,o),
(519,-108,o),
(519,49,cs),
(519,700,l),
(414,700,l),
(414,41,ls),
(414,-101,o),
(386,-164,o),
(268,-179,c),
(268,-201,l)
);
}
);
width = 615;
},
{
hints = (
{
name = _corner.rightSerif.Upper;
options = 1;
origin = (0,0);
type = Corner;
},
{
name = _corner.leftSerif.Upper;
origin = (0,1);
type = Corner;
},
{
name = _corner.rightSerif.Upper;
options = 1;
origin = (0,2);
type = Corner;
},
{
name = _corner.leftSerif.Upper;
origin = (0,3);
type = Corner;
},
{
name = _corner.leftSerif.Upper;
origin = (1,3);
type = Corner;
},
{
name = _corner.rightSerif.Upper;
options = 1;
origin = (1,4);
type = Corner;
}
);
layerId = m002;
shapes = (
{
closed = 1;
nodes = (
(155,0,l),
(278,700,l),
(173,700,l),
(50,0,l)
);
},
{
closed = 1;
nodes = (
(397,-201,o),
(456,-108,o),
(484,49,cs),
(598,700,l),
(493,700,l),
(377,41,ls),
(352,-101,o),
(313,-164,o),
(192,-179,c),
(189,-201,l)
);
}
);
width = 615;
}
);
unicode = 306;
},
{
glyphname = J;
kernLeft = J;
kernRight = J;
lastChange = "2023-06-24 15:27:18 +0000";
layers = (
{
anchors = (
{
name = bottom;
pos = (161,0);
},
{
name = top;
pos = (161,700);
}
);
hints = (
{
name = _corner.leftSerif.Upper;
origin = (0,3);
type = Corner;
},
{
name = _corner.rightSerif.Upper;
origin = (0,4);
type = Corner;
}
);
layerId = m01;
shapes = (
{
closed = 1;
nodes = (
(183,-201,o),
(226,-108,o),
(226,49,cs),
(226,700,l),
(121,700,l),
(121,41,ls),
(121,-101,o),
(93,-164,o),
(-25,-179,c),
(-25,-201,l)
);
}
);
width = 322;
},
{
anchors = (
{
name = bottom;
pos = (110,0);
},
{
name = top;
pos = (233,700);
}
);
hints = (
{
name = _corner.leftSerif.Upper;
origin = (0,3);
type = Corner;
},
{
name = _corner.rightSerif.Upper;
options = 1;
origin = (0,4);
type = Corner;
}
);
layerId = m002;
shapes = (
{
closed = 1;
nodes = (
(99,-201,o),
(158,-108,o),
(186,49,cs),
(300,700,l),
(195,700,l),
(79,41,ls),
(54,-101,o),
(15,-164,o),
(-106,-179,c),
(-109,-201,l)
);
}
);
width = 308;
}
);
unicode = 74;
},
{
glyphname = K;
kernLeft = H;
kernRight = K;
lastChange = "2023-06-24 15:27:18 +0000";
layers = (
{
anchors = (
{
name = bottom;
pos = (333,0);
},
{
name = top;
pos = (333,700);
}
);
background = {
hints = (
{
name = _corner.rightSerif.Upper;
options = 1;
origin = (0,0);
type = Corner;
},
{
name = _corner.leftSerif.Upper;
origin = (0,1);
scale = (1.1,1);
type = Corner;
},
{
name = _corner.rightSerif.Upper;
options = 1;
origin = (0,2);
type = Corner;
},
{
name = _corner.leftSerif.Upper;
origin = (0,3);
scale = (1.1,1);
type = Corner;
},
{
name = _corner.rightSerif.Upper;
origin = (1,2);
scale = (-1.25,1);
type = Corner;
},
{
name = _corner.leftSerif.Upper;
options = 1;
origin = (1,1);
scale = (-1.1,1);
type = Corner;
},
{
name = _corner.rightSerif.Upper;
origin = (1,0);
scale = (-1.25,1);
type = Corner;
},
{
name = _corner.leftSerif.Upper;
options = 1;
origin = (1,3);
scale = (-1.1,1);
type = Corner;
}
);
shapes = (
{
closed = 1;
nodes = (
(588,0,l),
(208,700,l),
(91,700,l),
(471,0,l)
);
},
{
closed = 1;
nodes = (
(551,700,l),
(508,700,l),
(128,0,l),
(171,0,l)
);
}
);
};
hints = (
{
name = _corner.rightSerif.Upper;
origin = (0,0);
type = Corner;
},
{
name = _corner.leftSerif.Upper;
origin = (0,1);
type = Corner;
},
{
name = _corner.rightSerif.Upper;
origin = (0,2);
type = Corner;
},
{
name = _corner.leftSerif.Upper;
origin = (0,3);
type = Corner;
},
{
name = _corner.rightSerif.Upper;
options = 1;
origin = (1,0);
scale = (1.05,1);
type = Corner;
},
{
name = _corner.rightSerif.Upper;
origin = (2,0);
scale = (-1.25,1);
type = Corner;
},
{
name = _corner.leftSerif.Upper;
options = 1;
origin = (2,1);
scale = (-1.1,1);
type = Corner;
}
);
layerId = m01;
shapes = (
{
closed = 1;
nodes = (
(199,0,l),
(199,700,l),
(94,700,l),
(94,0,l)
);
},
{
closed = 1;
nodes = (
(575,0,l),
(320,477,l),
(252,398,l),
(411,90,ls),
(448,19,o),
(480,0,o),
(550,0,cs)
);
},
{
closed = 1;
nodes = (
(514,700,l),
(468,700,l),
(180,342,l),
(180,281,l)
);
}
);
width = 665;
},
{
anchors = (
{
name = bottom;
pos = (290,0);
},
{
name = top;
pos = (413,700);
}
);
background = {
hints = (
{
name = _corner.rightSerif.Upper;
options = 1;
origin = (0,0);
type = Corner;
},
{
name = _corner.leftSerif.Upper;
origin = (0,1);
scale = (1.1,1);
type = Corner;
},
{
name = _corner.rightSerif.Upper;
options = 1;
origin = (0,2);
type = Corner;
},
{
name = _corner.leftSerif.Upper;
origin = (0,3);
scale = (1.1,1);
type = Corner;
},
{
name = _corner.rightSerif.Upper;
origin = (1,2);
scale = (-1.25,1);
type = Corner;
},
{
name = _corner.leftSerif.Upper;
options = 1;
origin = (1,1);
scale = (-1.1,1);
type = Corner;
},
{
name = _corner.rightSerif.Upper;
origin = (1,0);
scale = (-1.25,1);
type = Corner;
},
{
name = _corner.leftSerif.Upper;
options = 1;
origin = (1,3);
scale = (-1.1,1);
type = Corner;
}
);
shapes = (
{
closed = 1;
nodes = (
(610,0,l),
(230,700,l),
(113,700,l),
(493,0,l)
);
},
{
closed = 1;
nodes = (
(573,700,l),
(530,700,l),
(150,0,l),
(193,0,l)
);
}
);
};
hints = (
{
name = _corner.rightSerif.Upper;
options = 1;
origin = (0,0);
type = Corner;
},
{
name = _corner.leftSerif.Upper;
origin = (0,1);
type = Corner;
},
{
name = _corner.rightSerif.Upper;
options = 1;
origin = (0,2);
type = Corner;
},
{
name = _corner.leftSerif.Upper;
origin = (0,3);
type = Corner;
},
{
name = _corner.rightSerif.Upper;
options = 1;
origin = (1,0);
scale = (1.05,1);
type = Corner;
},
{
name = _corner.rightSerif.Upper;
origin = (2,0);
scale = (-1.25,1);
type = Corner;
},
{
name = _corner.leftSerif.Upper;
options = 1;
origin = (2,1);
scale = (-1.1,1);
type = Corner;
}
);
layerId = m002;
shapes = (
{
closed = 1;
nodes = (
(159,0,l),
(283,700,l),
(178,700,l),
(54,0,l)
);
},
{
closed = 1;
nodes = (
(535,0,l),
(364,477,l),
(282,398,l),
(387,90,ls),
(412,19,o),
(440,0,o),
(510,0,cs)
);
},
{
closed = 1;
nodes = (
(598,700,l),
(552,700,l),
(201,342,l),
(190,281,l)
);
}
);
width = 667;
}
);
metricLeft = H;
unicode = 75;
},
{
glyphname = L;
kernLeft = H;
kernRight = L;
lastChange = "2023-06-24 16:06:51 +0000";
layers = (
{
anchors = (
{
name = bottom;
pos = (275,0);
},
{
name = center;
pos = (150,350);
},
{
name = top;
pos = (275,700);
},
{
name = topright;
pos = (326,700);
}
);
hints = (
{
name = _corner.rightSerif.Upper;
origin = (0,2);
type = Corner;
},
{
name = _corner.leftSerif.Upper;
origin = (0,3);
type = Corner;
},
{
name = _corner.FSerif;
options = 1;
origin = (1,1);
scale = (1,-1);
type = Corner;
},
{
name = _corner.leftSerif.Upper;
origin = (0,1);
type = Corner;
}
);
layerId = m01;
shapes = (
{
closed = 1;
nodes = (
(199,0,l),
(199,700,l),
(94,700,l),
(94,0,l)
);
},
{
closed = 1;
nodes = (
(518,0,l),
(523,45,l),
(139,45,l),
(139,0,l)
);
}
);
width = 550;
},
{
anchors = (
{
name = bottom;
pos = (233,0);
},
{
name = center;
pos = (173,350);
},
{
name = top;
pos = (356,700);
},
{
name = topright;
pos = (420,700);
}
);
hints = (
{
name = _corner.rightSerif.Upper;
options = 1;
origin = (0,2);
type = Corner;
},
{
name = _corner.leftSerif.Upper;
origin = (0,3);
type = Corner;
},
{
name = _corner.FSerif;
options = 1;
origin = (1,1);
scale = (1,-1);
type = Corner;
},
{
name = _corner.leftSerif.Upper;
origin = (0,1);
type = Corner;
}
);
layerId = m002;
shapes = (
{
closed = 1;
nodes = (
(159,0,l),
(283,700,l),
(178,700,l),
(54,0,l)
);
},
{
closed = 1;
nodes = (
(478,0,l),
(491,45,l),
(107,45,l),
(99,0,l)
);
}
);
width = 553;
}
);
metricLeft = H;
unicode = 76;
},
{
glyphname = M;
kernLeft = H;
kernRight = H;
lastChange = "2023-06-24 15:27:18 +0000";
layers = (
{
anchors = (
{
name = bottom;
pos = (399,0);
},
{
name = top;
pos = (399,700);
}
);
background = {
shapes = (
{
pos = (10,0);
ref = H;
}
);
};
hints = (
{
name = _corner.rightSerif.Upper;
origin = (0,0);
type = Corner;
},
{
name = _corner.rightSerif.Upper;
origin = (0,14);
type = Corner;
},
{
name = _corner.leftSerif.Upper;
origin = (0,15);
type = Corner;
},
{
name = _corner.rightSerif.Upper;
options = 1;
origin = (0,7);
scale = (-1,1);
type = Corner;
},
{
name = _corner.rightSerif.Upper;
options = 1;
origin = (0,9);
scale = (-1,1);
type = Corner;
},
{
name = _corner.leftSerif.Upper;
options = 1;
origin = (0,8);
scale = (-1,1);
type = Corner;
}
);
layerId = m01;
shapes = (
{
closed = 1;
nodes = (
(144,0,l),
(144,647,l),
(126,643,l),
(370,86,l),
(413,86,l),
(632,667,l),
(599,670,l),
(599,0,l),
(704,0,l),
(704,700,l),
(598,700,l),
(403,184,l),
(433,185,l),
(208,700,l),
(94,700,l),
(94,0,l)
);
}
);
width = 798;
},
{
anchors = (
{
name = bottom;
pos = (359,0);
},
{
name = top;
pos = (482,700);
}
);
background = {
shapes = (
{
pos = (32,0);
ref = H;
}
);
};
hints = (
{
name = _corner.rightSerif.Upper;
options = 1;
origin = (0,0);
type = Corner;
},
{
name = _corner.rightSerif.Upper;
options = 1;
origin = (0,14);
type = Corner;
},
{
name = _corner.leftSerif.Upper;
origin = (0,15);
type = Corner;
},
{
name = _corner.rightSerif.Upper;
origin = (0,7);
scale = (-1,1);
type = Corner;
},
{
name = _corner.rightSerif.Upper;
origin = (0,9);
scale = (-1,1);
type = Corner;
},
{
name = _corner.leftSerif.Upper;
options = 1;
origin = (0,8);
scale = (-1,1);
type = Corner;
}
);
layerId = m002;
shapes = (
{
closed = 1;
nodes = (
(104,0,l),
(218,647,l),
(200,643,l),
(345,86,l),
(388,86,l),
(710,667,l),
(677,670,l),
(559,0,l),
(664,0,l),
(788,700,l),
(682,700,l),
(396,184,l),
(426,185,l),
(292,700,l),
(178,700,l),
(54,0,l)
);
}
);
width = 806;
}
);
metricLeft = H;
metricRight = H;
unicode = 77;
},
{
glyphname = N;
kernLeft = H;
kernRight = N;
lastChange = "2023-06-24 15:27:18 +0000";
layers = (
{
anchors = (
{
name = bottom;
pos = (309,0);
},
{
name = top;
pos = (309,700);
}
);
background = {
shapes = (
{
pos = (10,0);
ref = H;
}
);
};
hints = (
{
name = _corner.rightSerif.Upper;
origin = (0,0);
type = Corner;
},
{
name = _corner.rightSerif.Upper;
options = 1;
origin = (0,10);
type = Corner;
},
{
name = _corner.leftSerif.Upper;
origin = (0,11);
type = Corner;
},
{
name = _corner.rightSerif.Upper;
origin = (0,6);
scale = (-1,-1);
type = Corner;
},
{
name = _corner.leftSerif.Upper;
origin = (0,5);
scale = (-1,-1);
type = Corner;
}
);
layerId = m01;
shapes = (
{
closed = 1;
nodes = (
(144,0,l),
(144,569,l),
(120,562,l),
(469,0,l),
(524,0,l),
(524,700,l),
(474,700,l),
(474,143,l),
(498,150,l),
(156,700,l),
(94,700,l),
(94,0,l)
);
}
);
width = 618;
},
{
anchors = (
{
name = bottom;
pos = (269,0);
},
{
name = top;
pos = (392,700);
}
);
background = {
shapes = (
{
pos = (32,0);
ref = H;
}
);
};
hints = (
{
name = _corner.rightSerif.Upper;
options = 1;
origin = (0,0);
type = Corner;
},
{
name = _corner.rightSerif.Upper;
options = 1;
origin = (0,10);
type = Corner;
},
{
name = _corner.leftSerif.Upper;
origin = (0,11);
type = Corner;
},
{
name = _corner.rightSerif.Upper;
options = 1;
origin = (0,6);
scale = (-1,-1);
type = Corner;
},
{
name = _corner.leftSerif.Upper;
origin = (0,5);
scale = (-1,-1);
type = Corner;
}
);
layerId = m002;
shapes = (
{
closed = 1;
nodes = (
(104,0,l),
(205,569,l),
(179,562,l),
(429,0,l),
(484,0,l),
(608,700,l),
(558,700,l),
(460,143,l),
(485,150,l),
(240,700,l),
(178,700,l),
(54,0,l)
);
}
);
width = 626;
}
);
metricLeft = H;
metricRight = H;
unicode = 78;
},
{
glyphname = O;
kernLeft = O;
kernRight = O;
lastChange = "2023-06-24 15:27:18 +0000";
layers = (
{
anchors = (
{
name = bottom;
pos = (307,0);
},
{
name = center;
pos = (307,350);
},
{
name = ogonek;
pos = (552,10);
},
{
name = top;
pos = (307,700);
},
{
name = topleft;
pos = (20,700);
},
{
name = topright;
pos = (593,700);
}
);
background = {
shapes = (
{
pos = (9,0);
ref = H;
}
);
};
layerId = m01;
shapes = (
{
closed = 1;
nodes = (
(455,-16,o),
(598,107,o),
(598,350,cs),
(598,593,o),
(455,716,o),
(307,716,cs),
(158,716,o),
(15,593,o),
(15,350,cs),
(15,107,o),
(158,-16,o),
(307,-16,cs)
);
},
{
closed = 1;
nodes = (
(189,24,o),
(125,163,o),
(125,350,cs),
(125,537,o),
(189,676,o),
(307,676,cs),
(424,676,o),
(488,537,o),
(488,350,cs),
(488,163,o),
(424,24,o),
(307,24,cs)
);
}
);
width = 613;
},
{
anchors = (
{
name = bottom;
pos = (263,0);
},
{
name = center;
pos = (325,350);
},
{
name = ogonek;
pos = (510,10);
},
{
name = top;
pos = (386,700);
},
{
name = topleft;
pos = (99,700);
},
{
name = topright;
pos = (672,700);
}
);
background = {
shapes = (
{
pos = (27,0);
ref = H;
}
);
};
layerId = m002;
shapes = (
{
closed = 1;
nodes = (
(408,-16,o),
(573,107,o),
(616,350,cs),
(659,593,o),
(538,716,o),
(390,716,cs),
(241,716,o),
(76,593,o),
(33,350,cs),
(-10,107,o),
(111,-16,o),
(260,-16,cs)
);
},
{
closed = 1;
nodes = (
(150,24,o),
(110,163,o),
(143,350,cs),
(176,537,o),
(264,676,o),
(382,676,cs),
(499,676,o),
(539,537,o),
(506,350,cs),
(473,163,o),
(385,24,o),
(268,24,cs)
);
}
);
width = 613;
}
);
unicode = 79;
},
{
glyphname = Oslash;
kernLeft = O;
kernRight = O;
lastChange = "2023-06-24 15:27:18 +0000";
layers = (
{
anchors = (
{
name = bottom;
pos = (307,0);
},
{
name = top;
pos = (307,700);
}
);
layerId = m01;
shapes = (
{
closed = 1;
nodes = (
(455,-16,o),
(598,107,o),
(598,350,cs),
(598,593,o),
(455,716,o),
(307,716,cs),
(158,716,o),
(15,593,o),
(15,350,cs),
(15,107,o),
(158,-16,o),
(307,-16,cs)
);
},
{
closed = 1;
nodes = (
(189,24,o),
(125,163,o),
(125,350,cs),
(125,537,o),
(189,676,o),
(307,676,cs),
(424,676,o),
(488,537,o),
(488,350,cs),
(488,163,o),
(424,24,o),
(307,24,cs)
);
},
{
closed = 1;
nodes = (
(106,-79,l),
(558,779,l),
(508,779,l),
(56,-79,l)
);
}
);
width = 613;
},
{
anchors = (
{
name = bottom;
pos = (263,0);
},
{
name = top;
pos = (386,700);
}
);
layerId = m002;
shapes = (
{
closed = 1;
nodes = (
(390,-16,o),
(555,107,o),
(598,350,cs),
(641,593,o),
(520,716,o),
(372,716,cs),
(223,716,o),
(58,593,o),
(15,350,cs),
(-28,107,o),
(93,-16,o),
(242,-16,cs)
);
},
{
closed = 1;
nodes = (
(132,24,o),
(92,163,o),
(125,350,cs),
(158,537,o),
(246,676,o),
(364,676,cs),
(481,676,o),
(521,537,o),
(488,350,cs),
(455,163,o),
(367,24,o),
(250,24,cs)
);
},
{
closed = 1;
nodes = (
(30,-79,l),
(634,779,l),
(584,779,l),
(-20,-79,l)
);
}
);
width = 613;
}
);
unicode = 216;
},
{
glyphname = OE;
kernLeft = O;
kernRight = E;
lastChange = "2023-06-24 15:27:18 +0000";
layers = (
{
anchors = (
{
name = bottom;
pos = (492,0);
},
{
name = top;
pos = (492,700);
}
);
hints = (
{
name = _corner.FSerif;
origin = (0,13);
type = Corner;
},
{
name = _corner.FSerif;
options = 1;
origin = (0,6);
scale = (1,-1);
type = Corner;
},
{
name = _corner.rightSerif.Upper;
origin = (0,10);
scale = (1.2,1);
type = Corner;
},
{
name = _corner.leftSerif.Upper;
origin = (0,9);
scale = (1.2,1);
type = Corner;
},
{
name = _corner.rightSerif.Upper;
origin = (0,15);
type = Corner;
},
{
name = _corner.leftSerif.Upper;
origin = (0,4);
type = Corner;
}
);
layerId = m01;
shapes = (
{
closed = 1;
nodes = (
(410,-16,o),
(510,44,o),
(562,160,c),
(546,174,l),
(546,0,l),
(950,0,l),
(955,45,l),
(651,45,l),
(651,330,l),
(840,330,l),
(840,375,l),
(651,375,l),
(651,655,l),
(937,655,l),
(932,700,l),
(546,700,l),
(546,526,l),
(562,540,l),
(510,656,o),
(410,716,o),
(307,716,cs),
(158,716,o),
(15,593,o),
(15,350,cs),
(15,107,o),
(158,-16,o),
(307,-16,cs)
);
},
{
closed = 1;
nodes = (
(125,537,o),
(189,676,o),
(307,676,cs),
(424,676,o),
(488,537,o),
(488,350,cs),
(488,163,o),
(424,24,o),
(307,24,cs),
(189,24,o),
(125,163,o),
(125,350,cs)
);
}
);
width = 984;
},
{
anchors = (
{
name = bottom;
pos = (449,0);
},
{
name = top;
pos = (572,700);
}
);
hints = (
{
name = _corner.FSerif;
origin = (0,13);
type = Corner;
},
{
name = _corner.FSerif;
options = 1;
origin = (0,6);
scale = (1,-1);
type = Corner;
},
{
name = _corner.rightSerif.Upper;
options = 1;
origin = (0,10);
scale = (1.2,1);
type = Corner;
},
{
name = _corner.leftSerif.Upper;
origin = (0,9);
scale = (1.2,1);
type = Corner;
},
{
name = _corner.rightSerif.Upper;
options = 1;
origin = (0,15);
type = Corner;
},
{
name = _corner.leftSerif.Upper;
origin = (0,4);
type = Corner;
}
);
layerId = m002;
shapes = (
{
closed = 1;
nodes = (
(363,-16,o),
(474,44,o),
(546,160,c),
(533,174,l),
(502,0,l),
(906,0,l),
(919,45,l),
(615,45,l),
(665,330,l),
(854,330,l),
(862,375,l),
(673,375,l),
(723,655,l),
(1009,655,l),
(1012,700,l),
(626,700,l),
(595,526,l),
(614,540,l),
(582,656,o),
(493,716,o),
(390,716,cs),
(241,716,o),
(76,593,o),
(33,350,cs),
(-10,107,o),
(111,-16,o),
(260,-16,cs)
);
},
{
closed = 1;
nodes = (
(176,537,o),
(264,676,o),
(382,676,cs),
(499,676,o),
(539,537,o),
(506,350,cs),
(473,163,o),
(385,24,o),
(268,24,cs),
(150,24,o),
(110,163,o),
(143,350,cs)
);
}
);
width = 985;
}
);
metricLeft = O;
metricRight = E;
unicode = 338;
},
{
glyphname = P;
kernLeft = P;
kernRight = P;
lastChange = "2023-06-24 15:27:18 +0000";
layers = (
{
anchors = (
{
name = bottom;
pos = (282,0);
},
{
name = top;
pos = (282,700);
}
);
hints = (
{
name = _corner.rightSerif.Upper;
origin = (1,2);
type = Corner;
},
{
name = _corner.leftSerif.Upper;
origin = (1,3);
type = Corner;
},
{
name = _corner.rightSerif.Upper;
origin = (1,0);
scale = (1.3,1);
type = Corner;
}
);
layerId = m01;
shapes = (
{
closed = 1;
nodes = (
(288,278,ls),
(476,280,o),
(549,358,o),
(549,496,cs),
(549,629,o),
(481,700,o),
(315,700,cs),
(151,700,l),
(151,659,l),
(295,659,ls),
(396,659,o),
(439,596,o),
(439,494,cs),
(439,378,o),
(392,317,o),
(273,317,cs),
(165,317,l),
(165,277,l)
);
},
{
closed = 1;
nodes = (
(199,0,l),
(199,700,l),
(94,700,l),
(94,0,l)
);
}
);
width = 563;
},
{
anchors = (
{
name = bottom;
pos = (240,0);
},
{
name = top;
pos = (363,700);
}
);
hints = (
{
name = _corner.rightSerif.Upper;
options = 1;
origin = (1,2);
type = Corner;
},
{
name = _corner.leftSerif.Upper;
origin = (1,3);
type = Corner;
},
{
name = _corner.rightSerif.Upper;
options = 1;
origin = (1,0);
scale = (1.3,1);
type = Corner;
}
);
layerId = m002;
shapes = (
{
closed = 1;
nodes = (
(297,278,ls),
(486,280,o),
(572,358,o),
(597,496,cs),
(620,629,o),
(565,700,o),
(399,700,cs),
(235,700,l),
(227,659,l),
(371,659,ls),
(472,659,o),
(504,596,o),
(486,494,cs),
(466,378,o),
(408,317,o),
(289,317,cs),
(181,317,l),
(174,277,l)
);
},
{
closed = 1;
nodes = (
(159,0,l),
(283,700,l),
(178,700,l),
(54,0,l)
);
}
);
width = 568;
}
);
metricLeft = H;
unicode = 80;
},
{
glyphname = Thorn;
kernLeft = H;
kernRight = Thorn;
lastChange = "2023-06-24 15:35:10 +0000";
layers = (
{
hints = (
{
name = _corner.rightSerif.Upper;
origin = (1,0);
scale = (1.3,1);
type = Corner;
},
{
name = _corner.rightSerif.Upper;
origin = (1,2);
type = Corner;
},
{
name = _corner.leftSerif.Upper;
origin = (1,3);
type = Corner;
},
{
name = _corner.leftSerif.Upper;
origin = (1,1);
type = Corner;
}
);
layerId = m01;
shapes = (
{
closed = 1;
nodes = (
(288,145,ls),
(476,147,o),
(549,225,o),
(549,363,cs),
(549,496,o),
(481,567,o),
(315,567,cs),
(151,567,l),
(151,526,l),
(295,526,ls),
(396,526,o),
(439,463,o),
(439,361,cs),
(439,245,o),
(392,184,o),
(273,184,cs),
(165,184,l),
(165,144,l)
);
},
{
closed = 1;
nodes = (
(199,0,l),
(199,700,l),
(94,700,l),
(94,0,l)
);
}
);
width = 561;
},
{
hints = (
{
name = _corner.rightSerif.Upper;
options = 1;
origin = (1,0);
scale = (1.3,1);
type = Corner;
},
{
name = _corner.leftSerif.Upper;
origin = (1,1);
type = Corner;
},
{
name = _corner.rightSerif.Upper;
options = 1;
origin = (1,2);
type = Corner;
},
{
name = _corner.leftSerif.Upper;
origin = (1,3);
type = Corner;
}
);
layerId = m002;
shapes = (
{
closed = 1;
nodes = (
(274,145,ls),
(462,147,o),
(549,225,o),
(573,363,cs),
(597,496,o),
(541,567,o),
(375,567,cs),
(211,567,l),
(204,526,l),
(348,526,ls),
(449,526,o),
(481,463,o),
(463,361,cs),
(442,245,o),
(385,184,o),
(266,184,cs),
(158,184,l),
(151,144,l)
);
},
{
closed = 1;
nodes = (
(159,0,l),
(283,700,l),
(178,700,l),
(54,0,l)
);
}
);
width = 565;
}
);
metricLeft = H;
unicode = 222;
},
{
glyphname = Q;
kernLeft = O;
kernRight = Q;
lastChange = "2023-06-24 15:27:18 +0000";
layers = (
{
anchors = (
{
name = bottom;
pos = (318,0);
},
{
name = top;
pos = (318,700);
}
);
background = {
shapes = (
{
closed = 1;
nodes = (
(447,-101,o),
(495,-66,o),
(516,-30,c),
(516,-16,l),
(481,-35,o),
(450,-42,o),
(421,-42,cs),
(359,-42,o),
(329,25,o),
(227,25,cs),
(188,25,o),
(153,-4,o),
(131,-45,c),
(131,-59,l),
(155,-33,o),
(177,-9,o),
(218,-9,cs),
(284,-9,o),
(336,-101,o),
(402,-101,cs)
);
}
);
};
layerId = m01;
shapes = (
{
closed = 1;
nodes = (
(455,-16,o),
(598,107,o),
(598,350,cs),
(598,593,o),
(455,716,o),
(307,716,cs),
(158,716,o),
(15,593,o),
(15,350,cs),
(15,107,o),
(158,-16,o),
(307,-16,cs)
);
},
{
closed = 1;
nodes = (
(546,-216,o),
(592,-181,o),
(620,-101,c),
(616,-98,l),
(594,-122,o),
(572,-139,o),
(528,-139,cs),
(433,-139,o),
(382,-52,o),
(170,-52,cs),
(153,-52,l),
(153,-49,l),
(321,-16,l),
(325,8,l),
(129,-34,ls),
(83,-44,o),
(69,-54,o),
(69,-73,cs),
(69,-90,o),
(80,-101,o),
(98,-101,cs),
(121,-101,o),
(126,-83,o),
(163,-83,cs),
(266,-83,o),
(367,-216,o),
(484,-216,cs)
);
},
{
closed = 1;
nodes = (
(189,24,o),
(125,163,o),
(125,350,cs),
(125,537,o),
(189,676,o),
(307,676,cs),
(424,676,o),
(488,537,o),
(488,350,cs),
(488,163,o),
(424,24,o),
(307,24,cs)
);
}
);
width = 635;
},
{
anchors = (
{
name = bottom;
pos = (264,0);
},
{
name = top;
pos = (387,700);
}
);
background = {
shapes = (
{
closed = 1;
nodes = (
(453,-101,o),
(501,-66,o),
(522,-30,c),
(522,-16,l),
(487,-35,o),
(456,-42,o),
(427,-42,cs),
(365,-42,o),
(335,25,o),
(233,25,cs),
(194,25,o),
(159,-4,o),
(137,-45,c),
(137,-59,l),
(161,-33,o),
(183,-9,o),
(224,-9,cs),
(290,-9,o),
(342,-101,o),
(408,-101,cs)
);
}
);
};
layerId = m002;
shapes = (
{
closed = 1;
nodes = (
(408,-16,o),
(573,107,o),
(616,350,cs),
(658,593,o),
(537,716,o),
(389,716,cs),
(240,716,o),
(75,593,o),
(33,350,cs),
(-10,107,o),
(111,-16,o),
(260,-16,cs)
);
},
{
closed = 1;
nodes = (
(464,-216,o),
(516,-181,o),
(558,-101,c),
(555,-98,l),
(528,-122,o),
(503,-139,o),
(459,-139,cs),
(364,-139,o),
(329,-52,o),
(117,-52,cs),
(100,-52,l),
(100,-49,l),
(274,-16,l),
(282,8,l),
(79,-34,ls),
(31,-44,o),
(15,-54,o),
(12,-73,cs),
(9,-90,o),
(18,-101,o),
(36,-101,cs),
(59,-101,o),
(67,-83,o),
(104,-83,cs),
(207,-83,o),
(285,-216,o),
(402,-216,cs)
);
},
{
closed = 1;
nodes = (
(149,24,o),
(110,163,o),
(143,350,cs),
(176,537,o),
(264,676,o),
(382,676,cs),
(499,676,o),
(539,537,o),
(506,350,cs),
(473,163,o),
(384,24,o),
(267,24,cs)
);
}
);
width = 615;
}
);
metricLeft = O;
unicode = 81;
},
{
glyphname = R;
kernLeft = H;
kernRight = R;
lastChange = "2023-06-24 15:27:18 +0000";
layers = (
{
anchors = (
{
name = bottom;
pos = (331,0);
},
{
name = top;
pos = (331,700);
}
);
hints = (
{
name = _corner.rightSerif.Upper;
origin = (0,23);
type = Corner;
},
{
name = _corner.leftSerif.Upper;
origin = (0,24);
type = Corner;
},
{
name = _corner.rightSerif.Upper;
origin = (0,0);
scale = (1.3,1);
type = Corner;
},
{
name = _corner.rightSerif.Upper;
options = 1;
origin = (0,11);
scale = (1.05,1);
type = Corner;
}
);
layerId = m01;
shapes = (
{
closed = 1;
nodes = (
(199,0,l),
(199,346,l),
(187,334,l),
(256,334,ls),
(307,334,o),
(326,321,o),
(352,261,cs),
(423,99,ls),
(454,28,o),
(488,0,o),
(546,0,cs),
(579,0,l),
(458,263,ls),
(436,311,o),
(418,330,o),
(387,339,c),
(387,343,l),
(449,350,o),
(534,406,o),
(534,509,cs),
(534,646,o),
(445,700,o),
(315,700,cs),
(94,700,l),
(94,0,l)
);
},
{
closed = 1;
nodes = (
(199,659,l),
(295,659,ls),
(371,659,o),
(424,608,o),
(424,507,cs),
(424,411,o),
(373,373,o),
(302,373,cs),
(185,373,l),
(199,359,l)
);
}
);
width = 662;
},
{
anchors = (
{
name = bottom;
pos = (290,0);
},
{
name = top;
pos = (413,700);
}
);
hints = (
{
name = _corner.rightSerif.Upper;
options = 1;
origin = (0,23);
type = Corner;
},
{
name = _corner.leftSerif.Upper;
origin = (0,24);
type = Corner;
},
{
name = _corner.rightSerif.Upper;
options = 1;
origin = (0,0);
scale = (1.3,1);
type = Corner;
},
{
name = _corner.rightSerif.Upper;
options = 1;
origin = (0,11);
scale = (1.05,1);
type = Corner;
}
);
layerId = m002;
shapes = (
{
closed = 1;
nodes = (
(159,0,l),
(220,346,l),
(206,334,l),
(275,334,ls),
(326,334,o),
(343,321,o),
(358,261,cs),
(401,99,ls),
(419,28,o),
(448,0,o),
(506,0,cs),
(539,0,l),
(465,263,ls),
(451,311,o),
(436,330,o),
(407,339,c),
(408,343,l),
(471,350,o),
(566,406,o),
(584,509,cs),
(608,646,o),
(529,700,o),
(399,700,cs),
(178,700,l),
(54,0,l)
);
},
{
closed = 1;
nodes = (
(275,659,l),
(371,659,ls),
(447,659,o),
(491,608,o),
(474,507,cs),
(457,411,o),
(399,373,o),
(328,373,cs),
(211,373,l),
(223,359,l)
);
}
);
width = 668;
}
);
metricLeft = H;
unicode = 82;
},
{
glyphname = S;
kernLeft = S;
kernRight = S;
lastChange = "2023-06-24 15:27:18 +0000";
layers = (
{
anchors = (
{
name = bottom;
pos = (241,0);
},
{
name = top;
pos = (241,700);
}
);
background = {
shapes = (
{
pos = (-77,0);
ref = H;
}
);
};
layerId = m01;
shapes = (
{
closed = 1;
nodes = (
(382,-16,o),
(460,58,o),
(464,182,cs),
(473,459,o),
(122,441,o),
(124,584,cs),
(125,638,o),
(175,676,o),
(229,676,cs),
(317,676,o),
(394,573,o),
(408,510,c),
(432,512,l),
(429,690,l),
(389,707,o),
(312,716,o),
(263,716,cs),
(153,716,o),
(47,668,o),
(43,559,cs),
(33,308,o),
(399,321,o),
(391,149,cs),
(388,78,o),
(334,24,o),
(245,24,cs),
(138,24,o),
(78,139,o),
(62,220,c),
(43,219,l),
(16,40,l),
(53,23,o),
(138,-16,o),
(233,-16,cs)
);
}
);
width = 482;
},
{
anchors = (
{
name = bottom;
pos = (191,0);
},
{
name = top;
pos = (314,700);
}
);
background = {
shapes = (
{
pos = (-55,0);
ref = H;
}
);
};
layerId = m002;
shapes = (
{
closed = 1;
nodes = (
(331,-16,o),
(423,58,o),
(448,182,cs),
(506,459,o),
(152,441,o),
(179,584,cs),
(190,638,o),
(246,676,o),
(300,676,cs),
(388,676,o),
(447,573,o),
(450,510,c),
(475,512,l),
(503,690,l),
(466,707,o),
(391,716,o),
(342,716,cs),
(232,716,o),
(117,668,o),
(94,559,cs),
(40,308,o),
(408,321,o),
(370,149,cs),
(354,78,o),
(291,24,o),
(202,24,cs),
(95,24,o),
(55,139,o),
(53,220,c),
(34,219,l),
(-25,40,l),
(9,23,o),
(87,-16,o),
(182,-16,cs)
);
}
);
width = 470;
}
);
unicode = 83;
},
{
glyphname = Saltillo;
kernLeft = Saltillo;
kernRight = Saltillo;
lastChange = "2023-06-20 14:02:12 +0000";
layers = (
{
layerId = m01;
shapes = (
{
closed = 1;
nodes = (
(49,322,l),
(63,455,ls),
(83,637,o),
(86,718,o),
(45,718,cs),
(4,718,o),
(6,637,o),
(26,455,cs),
(40,322,l)
);
}
);
width = 89;
},
{
layerId = m002;
shapes = (
{
closed = 1;
nodes = (
(69,322,l),
(107,455,ls),
(159,637,o),
(176,718,o),
(135,718,cs),
(94,718,o),
(82,637,o),
(70,455,cs),
(60,322,l)
);
}
);
width = 105;
}
);
unicode = 42891;
},
{
glyphname = Germandbls;
kernLeft = Germandbls;
kernRight = Germandbls;
lastChange = "2023-06-24 15:27:18 +0000";
layers = (
{
anchors = (
{
name = bottom;
pos = (305,0);
},
{
name = top;
pos = (305,700);
}
);
hints = (
{
name = _corner.leftSerif.Upper;
origin = (0,35);
type = Corner;
}
);
layerId = m01;
shapes = (
{
closed = 1;
nodes = (
(109,0,ls),
(165,0,o),
(199,32,o),
(199,110,cs),
(199,516,ls),
(199,619,o),
(236,655,o),
(341,655,cs),
(489,655,l),
(481,691,l),
(275,414,l),
(275,391,l),
(301,391,ls),
(423,391,o),
(482,319,o),
(482,209,cs),
(482,112,o),
(435,35,o),
(322,26,cs),
(249,20,l),
(249,0,l),
(292,0,ls),
(517,0,o),
(592,108,o),
(592,211,cs),
(592,323,o),
(503,419,o),
(339,416,c),
(339,419,l),
(535,684,l),
(535,700,l),
(344,700,ls),
(188,700,o),
(94,650,o),
(94,486,cs),
(94,0,l)
);
}
);
width = 610;
},
{
anchors = (
{
name = bottom;
pos = (260,0);
},
{
name = top;
pos = (383,700);
}
);
hints = (
{
name = _corner.leftSerif.Upper;
origin = (0,35);
type = Corner;
}
);
layerId = m002;
shapes = (
{
closed = 1;
nodes = (
(69,0,ls),
(125,0,o),
(165,32,o),
(179,110,cs),
(250,516,ls),
(268,619,o),
(312,655,o),
(417,655,cs),
(565,655,l),
(563,691,l),
(308,414,l),
(304,391,l),
(330,391,ls),
(452,391,o),
(499,319,o),
(479,209,cs),
(462,112,o),
(401,35,o),
(287,26,cs),
(213,20,l),
(209,0,l),
(252,0,ls),
(477,0,o),
(571,108,o),
(589,211,cs),
(609,323,o),
(537,419,o),
(373,416,c),
(373,419,l),
(616,684,l),
(619,700,l),
(428,700,ls),
(272,700,o),
(169,650,o),
(140,486,cs),
(54,0,l)
);
}
);
width = 608;
}
);
metricLeft = H;
unicode = 7838;
},
{
glyphname = T;
kernLeft = T;
kernRight = T;
lastChange = "2023-06-29 13:41:01 +0000";
layers = (
{
anchors = (
{
name = bottom;
pos = (283,0);
},
{
name = center;
pos = (283,350);
},
{
name = top;
pos = (283,700);
}
);
hints = (
{
name = _corner.rightSerif.Upper;
origin = (0,0);
type = Corner;
},
{
name = _corner.leftSerif.Upper;
origin = (0,3);
type = Corner;
},
{
name = _corner.FSerif;
origin = (1,0);
type = Corner;
},
{
name = _corner.FSerif;
options = 1;
origin = (1,3);
scale = (-1,1);
type = Corner;
}
);
layerId = m01;
shapes = (
{
closed = 1;
nodes = (
(336,0,l),
(336,700,l),
(231,700,l),
(231,0,l)
);
},
{
closed = 1;
nodes = (
(538,655,l),
(533,700,l),
(33,700,l),
(28,655,l)
);
}
);
width = 566;
},
{
anchors = (
{
name = bottom;
pos = (237,0);
},
{
name = center;
pos = (299,350);
},
{
name = top;
pos = (360,700);
}
);
hints = (
{
name = _corner.rightSerif.Upper;
options = 1;
origin = (0,0);
type = Corner;
},
{
name = _corner.leftSerif.Upper;
origin = (0,3);
type = Corner;
},
{
name = _corner.FSerif;
origin = (1,0);
type = Corner;
},
{
name = _corner.FSerif;
options = 1;
origin = (1,3);
scale = (-1,1);
type = Corner;
}
);
layerId = m002;
shapes = (
{
closed = 1;
nodes = (
(289,0,l),
(413,700,l),
(308,700,l),
(184,0,l)
);
},
{
closed = 1;
nodes = (
(607,655,l),
(610,700,l),
(110,700,l),
(97,655,l)
);
}
);
width = 561;
}
);
unicode = 84;
},
{
glyphname = U;
kernLeft = U;
kernRight = U;
lastChange = "2023-06-24 16:07:38 +0000";
layers = (
{
anchors = (
{
name = bottom;
pos = (301,0);
},
{
name = ogonek;
pos = (403,10);
},
{
name = top;
pos = (301,700);
},
{
name = topright;
pos = (582,700);
}
);
hints = (
{
name = _corner.leftSerif.Upper;
origin = (0,12);
type = Corner;
},
{
name = _corner.rightSerif.Upper;
origin = (0,13);
type = Corner;
},
{
name = _corner.leftSerif.Upper;
origin = (0,3);
type = Corner;
},
{
name = _corner.rightSerif.Upper;
origin = (0,4);
type = Corner;
}
);
layerId = m01;
shapes = (
{
closed = 1;
nodes = (
(457,-16,o),
(521,55,o),
(521,180,cs),
(521,700,l),
(466,700,l),
(466,160,ls),
(466,62,o),
(418,24,o),
(332,24,cs),
(233,24,o),
(189,73,o),
(189,160,cs),
(189,700,l),
(84,700,l),
(84,180,ls),
(84,47,o),
(170,-16,o),
(325,-16,cs)
);
}
);
width = 602;
},
{
anchors = (
{
name = bottom;
pos = (265,0);
},
{
name = ogonek;
pos = (374,10);
},
{
name = top;
pos = (388,700);
},
{
name = topright;
pos = (677,700);
}
);
hints = (
{
name = _corner.leftSerif.Upper;
origin = (0,12);
type = Corner;
},
{
name = _corner.rightSerif.Upper;
options = 1;
origin = (0,13);
type = Corner;
},
{
name = _corner.leftSerif.Upper;
origin = (0,3);
type = Corner;
},
{
name = _corner.rightSerif.Upper;
options = 1;
origin = (0,4);
type = Corner;
}
);
layerId = m002;
shapes = (
{
closed = 1;
nodes = (
(424,-16,o),
(491,55,o),
(513,180,cs),
(605,700,l),
(550,700,l),
(455,160,ls),
(438,62,o),
(383,24,o),
(297,24,cs),
(198,24,o),
(163,73,o),
(178,160,cs),
(273,700,l),
(168,700,l),
(76,180,ls),
(52,47,o),
(128,-16,o),
(283,-16,cs)
);
}
);
width = 618;
}
);
unicode = 85;
},
{
glyphname = V;
kernLeft = V;
kernRight = V;
lastChange = "2023-06-29 13:43:40 +0000";
layers = (
{
anchors = (
{
name = bottom;
pos = (343,0);
},
{
name = top;
pos = (343,700);
}
);
hints = (
{
name = _corner.leftSerif.Upper;
origin = (0,2);
scale = (1.2,1);
type = Corner;
},
{
name = _corner.rightSerif.Upper;
options = 1;
origin = (0,3);
type = Corner;
},
{
name = _corner.leftSerif.Upper;
options = 1;
origin = (1,2);
scale = (-1.4,1);
type = Corner;
},
{
name = _corner.rightSerif.Upper;
origin = (1,1);
scale = (-1,1);
type = Corner;
}
);
layerId = m01;
shapes = (
{
closed = 1;
nodes = (
(357,0,l),
(394,112,l),
(189,700,l),
(81,700,l),
(324,0,l)
);
},
{
closed = 1;
nodes = (
(369,0,l),
(604,700,l),
(564,700,l),
(329,0,l)
);
}
);
width = 685;
},
{
anchors = (
{
name = bottom;
pos = (301,0);
},
{
name = top;
pos = (424,700);
}
);
hints = (
{
name = _corner.leftSerif.Upper;
origin = (0,2);
scale = (1.2,1);
type = Corner;
},
{
name = _corner.rightSerif.Upper;
options = 1;
origin = (0,3);
type = Corner;
},
{
name = _corner.leftSerif.Upper;
options = 1;
origin = (1,2);
scale = (-1.4,1);
type = Corner;
},
{
name = _corner.rightSerif.Upper;
origin = (1,1);
scale = (-1,1);
type = Corner;
}
);
layerId = m002;
shapes = (
{
closed = 1;
nodes = (
(313,0,l),
(370,112,l),
(269,700,l),
(161,700,l),
(280,0,l)
);
},
{
closed = 1;
nodes = (
(325,0,l),
(684,700,l),
(644,700,l),
(285,0,l)
);
}
);
width = 690;
}
);
unicode = 86;
},
{
glyphname = W;
kernLeft = V;
kernRight = V;
lastChange = "2023-06-29 13:39:59 +0000";
layers = (
{
anchors = (
{
name = bottom;
pos = (518,0);
},
{
name = top;
pos = (518,700);
}
);
hints = (
{
name = _corner.leftSerif.Upper;
origin = (1,2);
scale = (1.2,1);
type = Corner;
},
{
name = _corner.rightSerif.Upper;
options = 1;
origin = (1,3);
type = Corner;
},
{
name = _corner.leftSerif.Upper;
origin = (0,2);
scale = (1.4,1);
type = Corner;
},
{
name = _corner.rightSerif.Upper;
options = 1;
origin = (0,3);
type = Corner;
},
{
name = _corner.rightSerif.Upper;
origin = (3,1);
scale = (-1,1);
type = Corner;
},
{
name = _corner.leftSerif.Upper;
options = 1;
origin = (3,2);
scale = (-1.4,1);
type = Corner;
}
);
layerId = m01;
shapes = (
{
closed = 1;
nodes = (
(707,0,l),
(744,112,l),
(539,700,l),
(431,700,l),
(674,0,l)
);
},
{
closed = 1;
nodes = (
(357,0,l),
(394,112,l),
(189,700,l),
(81,700,l),
(324,0,l)
);
},
{
closed = 1;
nodes = (
(369,0,l),
(546,528,l),
(525,585,l),
(329,0,l)
);
},
{
closed = 1;
nodes = (
(719,0,l),
(954,700,l),
(914,700,l),
(679,0,l)
);
}
);
width = 1035;
},
{
anchors = (
{
name = bottom;
pos = (476,0);
},
{
name = top;
pos = (599,700);
}
);
hints = (
{
name = _corner.leftSerif.Upper;
origin = (1,2);
scale = (1.2,1);
type = Corner;
},
{
name = _corner.rightSerif.Upper;
options = 1;
origin = (1,3);
type = Corner;
},
{
name = _corner.leftSerif.Upper;
origin = (0,2);
scale = (1.4,1);
type = Corner;
},
{
name = _corner.rightSerif.Upper;
options = 1;
origin = (0,3);
type = Corner;
},
{
name = _corner.rightSerif.Upper;
origin = (3,1);
scale = (-1,1);
type = Corner;
},
{
name = _corner.leftSerif.Upper;
options = 1;
origin = (3,2);
scale = (-1.4,1);
type = Corner;
}
);
layerId = m002;
shapes = (
{
closed = 1;
nodes = (
(663,0,l),
(720,112,l),
(619,700,l),
(511,700,l),
(630,0,l)
);
},
{
closed = 1;
nodes = (
(313,0,l),
(370,112,l),
(269,700,l),
(161,700,l),
(280,0,l)
);
},
{
closed = 1;
nodes = (
(325,0,l),
(595,528,l),
(584,585,l),
(285,0,l)
);
},
{
closed = 1;
nodes = (
(675,0,l),
(1034,700,l),
(994,700,l),
(635,0,l)
);
}
);
width = 1040;
}
);
metricLeft = V;
metricRight = V;
unicode = 87;
},
{
glyphname = X;
kernLeft = X;
kernRight = X;
lastChange = "2023-06-29 13:42:17 +0000";
layers = (
{
anchors = (
{
name = bottom;
pos = (365,0);
},
{
name = top;
pos = (365,700);
}
);
background = {
shapes = (
{
pos = (62,0);
ref = H;
}
);
};
hints = (
{
name = _corner.rightSerif.Upper;
options = 1;
origin = (0,0);
type = Corner;
},
{
name = _corner.leftSerif.Upper;
origin = (0,1);
scale = (1.1,1);
type = Corner;
},
{
name = _corner.rightSerif.Upper;
options = 1;
origin = (0,2);
type = Corner;
},
{
name = _corner.leftSerif.Upper;
origin = (0,3);
scale = (1.1,1);
type = Corner;
},
{
name = _corner.rightSerif.Upper;
origin = (1,3);
scale = (-1.25,1);
type = Corner;
},
{
name = _corner.leftSerif.Upper;
options = 1;
origin = (2,1);
scale = (-1.1,1);
type = Corner;
},
{
name = _corner.rightSerif.Upper;
origin = (2,0);
scale = (-1.25,1);
type = Corner;
},
{
name = _corner.leftSerif.Upper;
options = 1;
origin = (1,0);
scale = (-1.1,1);
type = Corner;
}
);
layerId = m01;
shapes = (
{
closed = 1;
nodes = (
(646,0,l),
(206,700,l),
(84,700,l),
(524,0,l)
);
},
{
closed = 1;
nodes = (
(147,0,l),
(359,337,l),
(335,371,l),
(102,0,l)
);
},
{
closed = 1;
nodes = (
(617,700,l),
(572,700,l),
(365,371,l),
(389,337,l)
);
}
);
width = 730;
},
{
anchors = (
{
name = bottom;
pos = (322,0);
},
{
name = top;
pos = (445,700);
}
);
background = {
shapes = (
{
pos = (82,0);
ref = H;
}
);
};
hints = (
{
name = _corner.rightSerif.Upper;
options = 1;
origin = (0,0);
type = Corner;
},
{
name = _corner.leftSerif.Upper;
origin = (0,1);
scale = (1.1,1);
type = Corner;
},
{
name = _corner.rightSerif.Upper;
options = 1;
origin = (0,2);
type = Corner;
},
{
name = _corner.leftSerif.Upper;
origin = (0,3);
scale = (1.1,1);
type = Corner;
},
{
name = _corner.rightSerif.Upper;
origin = (1,3);
scale = (-1.25,1);
type = Corner;
},
{
name = _corner.leftSerif.Upper;
options = 1;
origin = (2,1);
scale = (-1.1,1);
type = Corner;
},
{
name = _corner.rightSerif.Upper;
origin = (2,0);
scale = (-1.25,1);
type = Corner;
},
{
name = _corner.leftSerif.Upper;
options = 1;
origin = (1,0);
scale = (-1.1,1);
type = Corner;
}
);
layerId = m002;
shapes = (
{
closed = 1;
nodes = (
(604,0,l),
(288,700,l),
(166,700,l),
(482,0,l)
);
},
{
closed = 1;
nodes = (
(105,0,l),
(377,337,l),
(359,371,l),
(60,0,l)
);
},
{
closed = 1;
nodes = (
(699,700,l),
(654,700,l),
(389,371,l),
(407,337,l)
);
}
);
width = 732;
}
);
unicode = 88;
},
{
glyphname = Y;
kernLeft = Y;
kernRight = Y;
lastChange = "2023-06-29 13:43:59 +0000";
layers = (
{
anchors = (
{
name = bottom;
pos = (344,0);
},
{
name = top;
pos = (344,700);
},
{
name = topleft;
pos = (20,700);
}
);
background = {
shapes = (
{
pos = (-32,0);
ref = V;
}
);
};
hints = (
{
name = _corner.leftSerif.Upper;
origin = (0,6);
scale = (1.2,1);
type = Corner;
},
{
name = _corner.rightSerif.Upper;
options = 1;
origin = (0,7);
type = Corner;
},
{
name = _corner.leftSerif.Upper;
options = 1;
origin = (0,3);
scale = (-1.4,1);
type = Corner;
},
{
name = _corner.rightSerif.Upper;
origin = (0,2);
scale = (-1,1);
type = Corner;
},
{
name = _corner.rightSerif.Upper;
origin = (0,0);
type = Corner;
},
{
name = _corner.leftSerif.Upper;
origin = (0,9);
type = Corner;
}
);
layerId = m01;
shapes = (
{
closed = 1;
nodes = (
(401,0,l),
(401,272,l),
(605,700,l),
(563,700,l),
(379,313,l),
(392,313,l),
(195,700,l),
(82,700,l),
(296,278,l),
(296,0,l)
);
}
);
width = 687;
},
{
anchors = (
{
name = bottom;
pos = (301,0);
},
{
name = top;
pos = (424,700);
},
{
name = topleft;
pos = (99,700);
}
);
background = {
shapes = (
{
pos = (-13,0);
ref = V;
}
);
};
hints = (
{
name = _corner.leftSerif.Upper;
origin = (0,6);
scale = (1.2,1);
type = Corner;
},
{
name = _corner.rightSerif.Upper;
options = 1;
origin = (0,7);
type = Corner;
},
{
name = _corner.leftSerif.Upper;
options = 1;
origin = (0,3);
scale = (-1.4,1);
type = Corner;
},
{
name = _corner.rightSerif.Upper;
origin = (0,2);
scale = (-1,1);
type = Corner;
},
{
name = _corner.rightSerif.Upper;
options = 1;
origin = (0,0);
type = Corner;
},
{
name = _corner.leftSerif.Upper;
origin = (0,9);
type = Corner;
}
);
layerId = m002;
shapes = (
{
closed = 1;
nodes = (
(358,0,l),
(406,272,l),
(686,700,l),
(644,700,l),
(391,313,l),
(404,313,l),
(276,700,l),
(163,700,l),
(302,278,l),
(253,0,l)
);
}
);
width = 690;
}
);
unicode = 89;
},
{
glyphname = Z;
kernLeft = Z;
kernRight = Z;
lastChange = "2023-06-24 15:27:18 +0000";
layers = (
{
anchors = (
{
name = bottom;
pos = (265,0);
},
{
name = center;
pos = (265,350);
},
{
name = top;
pos = (265,700);
}
);
hints = (
{
name = _corner.FSerif;
options = 1;
origin = (1,3);
scale = (-1,1);
type = Corner;
},
{
name = _corner.FSerif;
options = 1;
origin = (2,1);
scale = (1,-1);
type = Corner;
}
);
layerId = m01;
shapes = (
{
closed = 1;
nodes = (
(127,0,l),
(517,700,l),
(401,700,l),
(11,0,l)
);
},
{
closed = 1;
nodes = (
(438,655,l),
(438,700,l),
(77,700,l),
(72,655,l)
);
},
{
closed = 1;
nodes = (
(478,0,l),
(483,45,l),
(89,45,l),
(89,0,l)
);
}
);
width = 530;
},
{
anchors = (
{
name = bottom;
pos = (214,0);
},
{
name = center;
pos = (276,350);
},
{
name = top;
pos = (337,700);
}
);
hints = (
{
name = _corner.FSerif;
options = 1;
origin = (1,3);
scale = (-1,1);
type = Corner;
},
{
name = _corner.FSerif;
options = 1;
origin = (2,1);
scale = (1,-1);
type = Corner;
}
);
layerId = m002;
shapes = (
{
closed = 1;
nodes = (
(75,0,l),
(589,700,l),
(473,700,l),
(-41,0,l)
);
},
{
closed = 1;
nodes = (
(502,655,l),
(510,700,l),
(149,700,l),
(136,655,l)
);
},
{
closed = 1;
nodes = (
(426,0,l),
(439,45,l),
(45,45,l),
(37,0,l)
);
}
);
width = 516;
}
);
unicode = 90;
},
{
glyphname = E_Y;
kernLeft = H;
kernRight = Y;
lastChange = "2023-05-27 05:55:07 +0000";
layers = (
{
anchors = (
{
name = center;
pos = (875,166);
}
);
background = {
shapes = (
{
pos = (10,0);
ref = F_Y;
}
);
};
hints = (
{
name = _corner.FSerif;
options = 1;
origin = (0,1);
scale = (1,-1);
type = Corner;
},
{
name = _corner.rightSerif.Upper;
origin = (0,5);
scale = (1.2,1);
type = Corner;
},
{
name = _corner.leftSerif.Upper;
origin = (0,4);
scale = (1.2,1);
type = Corner;
},
{
name = _corner.rightSerif.Upper;
origin = (0,17);
type = Corner;
},
{
name = _corner.leftSerif.Upper;
origin = (0,18);
type = Corner;
},
{
name = _corner.leftSerif.Upper;
origin = (0,16);
scale = (1.2,1);
type = Corner;
},
{
name = _corner.leftSerif.Upper;
options = 1;
origin = (0,14);
scale = (-1.4,1);
type = Corner;
},
{
name = _corner.rightSerif.Upper;
origin = (0,13);
scale = (-1,1);
type = Corner;
},
{
name = _corner.rightSerif.Upper;
origin = (0,11);
type = Corner;
},
{
name = _corner.leftSerif.Upper;
origin = (0,10);
type = Corner;
}
);
layerId = m01;
shapes = (
{
closed = 1;
nodes = (
(498,0,l),
(503,45,l),
(199,45,l),
(199,330,l),
(388,330,l),
(388,375,l),
(199,375,l),
(199,655,l),
(483,655,l),
(674,278,l),
(674,0,l),
(779,0,l),
(779,272,l),
(983,700,l),
(941,700,l),
(763,327,l),
(573,700,l),
(94,700,l),
(94,0,l)
);
}
);
width = 1065;
},
{
anchors = (
{
name = center;
pos = (865,166);
}
);
background = {
shapes = (
{
pos = (32,0);
ref = F_Y;
}
);
};
hints = (
{
name = _corner.FSerif;
options = 1;
origin = (0,1);
scale = (1,-1);
type = Corner;
},
{
name = _corner.rightSerif.Upper;
options = 1;
origin = (0,5);
scale = (1.2,1);
type = Corner;
},
{
name = _corner.leftSerif.Upper;
origin = (0,4);
scale = (1.2,1);
type = Corner;
},
{
name = _corner.rightSerif.Upper;
options = 1;
origin = (0,17);
type = Corner;
},
{
name = _corner.leftSerif.Upper;
origin = (0,18);
type = Corner;
},
{
name = _corner.leftSerif.Upper;
origin = (0,16);
scale = (1.2,1);
type = Corner;
},
{
name = _corner.leftSerif.Upper;
options = 1;
origin = (0,14);
scale = (-1.4,1);
type = Corner;
},
{
name = _corner.rightSerif.Upper;
origin = (0,13);
scale = (-1,1);
type = Corner;
},
{
name = _corner.rightSerif.Upper;
options = 1;
origin = (0,11);
type = Corner;
},
{
name = _corner.leftSerif.Upper;
origin = (0,10);
type = Corner;
}
);
layerId = m002;
shapes = (
{
closed = 1;
nodes = (
(458,0,l),
(471,45,l),
(167,45,l),
(217,330,l),
(406,330,l),
(414,375,l),
(225,375,l),
(275,655,l),
(559,655,l),
(683,278,l),
(634,0,l),
(739,0,l),
(787,272,l),
(1067,700,l),
(1025,700,l),
(781,327,l),
(657,700,l),
(178,700,l),
(54,0,l)
);
}
);
width = 1071;
}
);
metricLeft = E;
metricRight = Y;
},
{
glyphname = F_E;
kernLeft = H;
kernRight = E;
lastChange = "2023-06-12 06:41:22 +0000";
layers = (
{
anchors = (
{
name = bottom;
pos = (263,0);
},
{
name = ogonek;
pos = (1028,10);
},
{
name = top;
pos = (263,700);
},
{
name = topleft;
pos = (536,700);
}
);
hints = (
{
name = _corner.rightSerif.Upper;
origin = (0,3);
scale = (1.2,1);
type = Corner;
},
{
name = _corner.leftSerif.Upper;
origin = (0,2);
scale = (1.2,1);
type = Corner;
},
{
name = _corner.rightSerif.Upper;
origin = (0,20);
type = Corner;
},
{
name = _corner.leftSerif.Upper;
origin = (0,21);
type = Corner;
},
{
name = _corner.rightSerif.Upper;
origin = (0,0);
scale = (1.3,1);
type = Corner;
},
{
name = _corner.FSerif;
origin = (0,18);
type = Corner;
},
{
name = _corner.FSerif;
options = 1;
origin = (0,10);
scale = (1,-1);
type = Corner;
},
{
name = _corner.rightSerif.Upper;
origin = (0,14);
scale = (1.2,1);
type = Corner;
},
{
name = _corner.leftSerif.Upper;
origin = (0,13);
scale = (1.2,1);
type = Corner;
},
{
name = _corner.leftSerif.Upper;
origin = (0,8);
type = Corner;
}
);
layerId = m01;
shapes = (
{
closed = 1;
nodes = (
(199,0,l),
(199,316,l),
(388,316,l),
(388,361,l),
(199,361,l),
(199,655,l),
(497,655,l),
(482,670,l),
(482,0,l),
(886,0,l),
(891,45,l),
(587,45,l),
(587,330,l),
(776,330,l),
(776,375,l),
(587,375,l),
(587,670,l),
(572,655,l),
(873,655,l),
(868,700,l),
(94,700,l),
(94,0,l)
);
}
);
width = 920;
},
{
anchors = (
{
name = bottom;
pos = (223,0);
},
{
name = ogonek;
pos = (990,10);
},
{
name = top;
pos = (347,700);
},
{
name = topleft;
pos = (620,700);
}
);
hints = (
{
name = _corner.rightSerif.Upper;
options = 1;
origin = (0,3);
scale = (1.2,1);
type = Corner;
},
{
name = _corner.leftSerif.Upper;
origin = (0,2);
scale = (1.2,1);
type = Corner;
},
{
name = _corner.rightSerif.Upper;
options = 1;
origin = (0,20);
type = Corner;
},
{
name = _corner.leftSerif.Upper;
origin = (0,21);
type = Corner;
},
{
name = _corner.rightSerif.Upper;
options = 1;
origin = (0,0);
scale = (1.3,1);
type = Corner;
},
{
name = _corner.FSerif;
origin = (0,18);
type = Corner;
},
{
name = _corner.FSerif;
options = 1;
origin = (0,10);
scale = (1,-1);
type = Corner;
},
{
name = _corner.rightSerif.Upper;
options = 1;
origin = (0,14);
scale = (1.2,1);
type = Corner;
},
{
name = _corner.leftSerif.Upper;
origin = (0,13);
scale = (1.2,1);
type = Corner;
},
{
name = _corner.leftSerif.Upper;
origin = (0,8);
type = Corner;
}
);
layerId = m002;
shapes = (
{
closed = 1;
nodes = (
(159,0,l),
(215,316,l),
(404,316,l),
(412,361,l),
(223,361,l),
(275,655,l),
(573,655,l),
(560,670,l),
(442,0,l),
(846,0,l),
(859,45,l),
(555,45,l),
(605,330,l),
(794,330,l),
(802,375,l),
(613,375,l),
(665,670,l),
(648,655,l),
(949,655,l),
(952,700,l),
(178,700,l),
(54,0,l)
);
}
);
width = 925;
}
);
metricLeft = F;
metricRight = E;
},
{
glyphname = F_Y;
kernLeft = H;
kernRight = Y;
lastChange = "2023-06-20 14:04:47 +0000";
layers = (
{
anchors = (
{
name = center;
pos = (865,166);
}
);
hints = (
{
name = _corner.rightSerif.Upper;
origin = (0,3);
scale = (1.2,1);
type = Corner;
},
{
name = _corner.leftSerif.Upper;
origin = (0,2);
scale = (1.2,1);
type = Corner;
},
{
name = _corner.rightSerif.Upper;
origin = (0,15);
type = Corner;
},
{
name = _corner.leftSerif.Upper;
origin = (0,16);
type = Corner;
},
{
name = _corner.rightSerif.Upper;
origin = (0,0);
scale = (1.3,1);
type = Corner;
},
{
name = _corner.leftSerif.Upper;
origin = (0,14);
scale = (1.2,1);
type = Corner;
},
{
name = _corner.leftSerif.Upper;
options = 1;
origin = (0,12);
scale = (-1.4,1);
type = Corner;
},
{
name = _corner.rightSerif.Upper;
origin = (0,11);
scale = (-1,1);
type = Corner;
},
{
name = _corner.rightSerif.Upper;
origin = (0,9);
type = Corner;
},
{
name = _corner.leftSerif.Upper;
origin = (0,8);
type = Corner;
}
);
layerId = m01;
shapes = (
{
closed = 1;
nodes = (
(199,0,l),
(199,316,l),
(388,316,l),
(388,361,l),
(199,361,l),
(199,655,l),
(413,655,l),
(604,278,l),
(604,0,l),
(709,0,l),
(709,272,l),
(913,700,l),
(871,700,l),
(693,327,l),
(503,700,l),
(94,700,l),
(94,0,l)
);
}
);
width = 995;
},
{
anchors = (
{
name = center;
pos = (877,166);
}
);
hints = (
{
name = _corner.rightSerif.Upper;
options = 1;
origin = (0,0);
scale = (1.3,1);
type = Corner;
},
{
name = _corner.leftSerif.Upper;
origin = (0,2);
scale = (1.2,1);
type = Corner;
},
{
name = _corner.rightSerif.Upper;
options = 1;
origin = (0,3);
scale = (1.2,1);
type = Corner;
},
{
name = _corner.leftSerif.Upper;
origin = (0,8);
type = Corner;
},
{
name = _corner.rightSerif.Upper;
options = 1;
origin = (0,9);
type = Corner;
},
{
name = _corner.rightSerif.Upper;
origin = (0,11);
scale = (-1,1);
type = Corner;
},
{
name = _corner.leftSerif.Upper;
options = 1;
origin = (0,12);
scale = (-1.4,1);
type = Corner;
},
{
name = _corner.leftSerif.Upper;
origin = (0,14);
scale = (1.2,1);
type = Corner;
},
{
name = _corner.rightSerif.Upper;
options = 1;
origin = (0,15);
type = Corner;
},
{
name = _corner.leftSerif.Upper;
origin = (0,16);
type = Corner;
}
);
layerId = m002;
shapes = (
{
closed = 1;
nodes = (
(159,0,l),
(215,316,l),
(404,316,l),
(412,361,l),
(223,361,l),
(275,655,l),
(489,655,l),
(613,278,l),
(564,0,l),
(669,0,l),
(717,272,l),
(997,700,l),
(955,700,l),
(711,327,l),
(587,700,l),
(178,700,l),
(54,0,l)
);
}
);
width = 1001;
}
);
metricLeft = F;
metricRight = Y;
},
{
glyphname = L_A;
kernLeft = H;
kernRight = A;
lastChange = "2023-06-20 14:05:13 +0000";
layers = (
{
hints = (
{
name = _corner.rightSerif.Upper;
origin = (0,2);
type = Corner;
},
{
name = _corner.leftSerif.Upper;
origin = (0,3);
type = Corner;
},
{
name = _corner.FSerif;
options = 1;
origin = (1,1);
scale = (1,-1);
type = Corner;
},
{
name = _corner.leftSerif.Upper;
origin = (0,1);
type = Corner;
},
{
name = _corner.leftSerif.Upper;
origin = (2,5);
scale = (-1.2,-1);
type = Corner;
},
{
name = _corner.rightSerif.Upper;
options = 1;
origin = (2,6);
scale = (-1,-1);
type = Corner;
},
{
name = _corner.leftSerif.Upper;
options = 1;
origin = (2,0);
scale = (1,-1);
type = Corner;
},
{
name = _corner.rightSerif.Upper;
origin = (2,9);
scale = (1,-1);
type = Corner;
}
);
layerId = m01;
shapes = (
{
closed = 1;
nodes = (
(199,0,l),
(199,700,l),
(94,700,l),
(94,0,l)
);
},
{
closed = 1;
nodes = (
(518,0,l),
(523,45,l),
(139,45,l),
(139,0,l)
);
},
{
closed = 1;
nodes = (
(347,101,l),
(397,232,l),
(381,218,l),
(651,218,l),
(634,229,l),
(714,0,l),
(822,0,l),
(579,700,l),
(534,700,l),
(307,101,l)
);
},
{
closed = 1;
nodes = (
(529,580,l),
(512,580,l),
(627,248,l),
(637,263,l),
(392,263,l),
(403,248,l)
);
}
);
width = 901;
},
{
hints = (
{
name = _corner.leftSerif.Upper;
origin = (0,1);
type = Corner;
},
{
name = _corner.rightSerif.Upper;
options = 1;
origin = (0,2);
type = Corner;
},
{
name = _corner.leftSerif.Upper;
origin = (0,3);
type = Corner;
},
{
name = _corner.FSerif;
options = 1;
origin = (1,1);
scale = (1,-1);
type = Corner;
},
{
name = _corner.leftSerif.Upper;
options = 1;
origin = (2,0);
scale = (1,-1);
type = Corner;
},
{
name = _corner.leftSerif.Upper;
origin = (2,5);
scale = (-1.2,-1);
type = Corner;
},
{
name = _corner.rightSerif.Upper;
options = 1;
origin = (2,6);
scale = (-1,-1);
type = Corner;
},
{
name = _corner.rightSerif.Upper;
origin = (2,9);
scale = (1,-1);
type = Corner;
}
);
layerId = m002;
shapes = (
{
closed = 1;
nodes = (
(159,0,l),
(283,700,l),
(178,700,l),
(54,0,l)
);
},
{
closed = 1;
nodes = (
(478,0,l),
(491,45,l),
(107,45,l),
(99,0,l)
);
},
{
closed = 1;
nodes = (
(325,101,l),
(398,232,l),
(380,218,l),
(650,218,l),
(635,229,l),
(674,0,l),
(782,0,l),
(663,700,l),
(618,700,l),
(285,101,l)
);
},
{
closed = 1;
nodes = (
(592,580,l),
(575,580,l),
(631,248,l),
(644,263,l),
(399,263,l),
(407,248,l)
);
}
);
width = 908;
}
);
metricLeft = L;
metricRight = A;
},
{
glyphname = N_N;
kernLeft = H;
kernRight = N;
lastChange = "2023-06-13 17:13:46 +0000";
layers = (
{
hints = (
{
name = _corner.rightSerif.Upper;
origin = (0,13);
type = Corner;
},
{
name = _corner.rightSerif.Upper;
options = 1;
origin = (0,11);
type = Corner;
},
{
name = _corner.leftSerif.Upper;
origin = (0,12);
type = Corner;
},
{
name = _corner.rightSerif.Upper;
origin = (0,8);
scale = (-1,-1);
type = Corner;
},
{
name = _corner.rightSerif.Upper;
origin = (0,5);
scale = (-1,-1);
type = Corner;
},
{
name = _corner.leftSerif.Upper;
origin = (0,4);
scale = (-1,-1);
type = Corner;
}
);
layerId = m01;
shapes = (
{
closed = 1;
nodes = (
(524,0,l),
(524,524,l),
(849,0,l),
(904,0,l),
(904,700,l),
(854,700,l),
(854,188,l),
(536,700,l),
(474,700,l),
(474,188,l),
(156,700,l),
(94,700,l),
(94,0,l),
(144,0,l),
(144,524,l),
(469,0,l)
);
}
);
width = 998;
},
{
hints = (
{
name = _corner.rightSerif.Upper;
options = 1;
origin = (0,13);
type = Corner;
},
{
name = _corner.rightSerif.Upper;
options = 1;
origin = (0,11);
type = Corner;
},
{
name = _corner.leftSerif.Upper;
origin = (0,12);
type = Corner;
},
{
name = _corner.rightSerif.Upper;
options = 1;
origin = (0,8);
scale = (-1,-1);
type = Corner;
},
{
name = _corner.rightSerif.Upper;
options = 1;
origin = (0,5);
scale = (-1,-1);
type = Corner;
},
{
name = _corner.leftSerif.Upper;
origin = (0,4);
scale = (-1,-1);
type = Corner;
}
);
layerId = m002;
shapes = (
{
closed = 1;
nodes = (
(484,0,l),
(577,524,l),
(809,0,l),
(864,0,l),
(988,700,l),
(938,700,l),
(847,188,l),
(620,700,l),
(558,700,l),
(467,188,l),
(240,700,l),
(178,700,l),
(54,0,l),
(104,0,l),
(197,524,l),
(429,0,l)
);
}
);
width = 1006;
}
);
metricLeft = N;
metricRight = N;
},
{
glyphname = a;
kernLeft = a;
kernRight = n;
lastChange = "2023-06-28 15:38:23 +0000";
layers = (
{
anchors = (
{
name = bottom;
pos = (236,0);
},
{
name = ogonek;
pos = (425,13);
},
{
name = top;
pos = (236,500);
}
);
layerId = m01;
shapes = (
{
closed = 1;
nodes = (
(437,-16,o),
(467,35,o),
(467,104,c),
(460,104,l),
(460,74,o),
(445,59,o),
(431,59,cs),
(417,59,o),
(410,74,o),
(410,100,cs),
(410,370,ls),
(410,468,o),
(344,516,o),
(226,516,cs),
(127,516,o),
(56,474,o),
(56,420,cs),
(56,394,o),
(72,370,o),
(101,370,cs),
(162,370,o),
(144,477,o),
(233,477,cs),
(271,477,o),
(310,458,o),
(310,370,cs),
(310,175,l),
(316,123,l),
(316,70,ls),
(316,15,o),
(336,-16,o),
(380,-16,cs)
);
},
{
closed = 1;
nodes = (
(234,-16,o),
(295,57,o),
(311,115,c),
(326,115,l),
(326,242,l),
(310,242,l),
(308,149,o),
(259,33,o),
(184,33,cs),
(145,33,o),
(117,66,o),
(117,115,cs),
(117,220,o),
(240,278,o),
(329,278,c),
(328,315,l),
(224,315,o),
(16,234,o),
(16,99,cs),
(16,29,o),
(72,-16,o),
(143,-16,cs)
);
}
);
width = 472;
},
{
anchors = (
{
name = bottom;
pos = (198,0);
},
{
name = ogonek;
pos = (393,15);
},
{
name = top;
pos = (286,500);
}
);
layerId = m002;
shapes = (
{
closed = 1;
nodes = (
(397,-16,o),
(436,35,o),
(448,104,c),
(441,104,l),
(436,74,o),
(418,59,o),
(404,59,cs),
(390,59,o),
(386,74,o),
(391,100,cs),
(438,370,ls),
(455,468,o),
(398,516,o),
(280,516,cs),
(181,516,o),
(102,474,o),
(93,420,cs),
(88,394,o),
(100,370,o),
(129,370,cs),
(190,370,o),
(191,477,o),
(280,477,cs),
(318,477,o),
(353,458,o),
(338,370,cs),
(304,175,l),
(301,123,l),
(291,70,ls),
(281,15,o),
(296,-16,o),
(340,-16,cs)
);
},
{
closed = 1;
nodes = (
(194,-16,o),
(268,57,o),
(294,115,c),
(309,115,l),
(332,242,l),
(316,242,l),
(297,149,o),
(228,33,o),
(153,33,cs),
(114,33,o),
(92,66,o),
(100,115,cs),
(119,220,o),
(252,278,o),
(341,278,c),
(346,315,l),
(242,315,o),
(20,234,o),
(-4,99,cs),
(-16,29,o),
(32,-16,o),
(103,-16,cs)
);
}
);
width = 483;
}
);
unicode = 97;
},
{
glyphname = ae;
kernLeft = a;
kernRight = e;
lastChange = "2023-06-24 15:27:31 +0000";
layers = (
{
anchors = (
{
name = bottom;
pos = (381,0);
},
{
name = top;
pos = (381,500);
}
);
layerId = m01;
shapes = (
{
closed = 1;
nodes = (
(234,-16,o),
(295,57,o),
(311,115,c),
(320,115,l),
(361,22,o),
(453,-16,o),
(530,-16,cs),
(663,-16,o),
(727,72,o),
(745,189,c),
(737,189,l),
(709,84,o),
(637,56,o),
(584,56,cs),
(473,56,o),
(417,151,o),
(416,282,c),
(406,272,l),
(734,272,l),
(734,409,o),
(656,516,o),
(527,516,cs),
(461,516,o),
(398,487,o),
(356,429,c),
(399,432,l),
(376,487,o),
(316,516,o),
(226,516,cs),
(127,516,o),
(56,474,o),
(56,420,cs),
(56,394,o),
(72,370,o),
(101,370,cs),
(162,370,o),
(144,477,o),
(233,477,cs),
(271,477,o),
(310,458,o),
(310,370,cs),
(310,305,l),
(319,315,l),
(213,311,o),
(16,231,o),
(16,99,cs),
(16,29,o),
(72,-16,o),
(143,-16,cs)
);
},
{
closed = 1;
nodes = (
(145,33,o),
(117,66,o),
(117,115,cs),
(117,217,o),
(230,274,o),
(319,277,c),
(310,286,l),
(310,242,ls),
(310,149,o),
(259,33,o),
(184,33,cs)
);
},
{
closed = 1;
nodes = (
(419,430,o),
(471,486,o),
(534,486,cs),
(599,486,o),
(634,426,o),
(638,307,c),
(404,307,l),
(416,296,l)
);
}
);
width = 761;
},
{
anchors = (
{
name = bottom;
pos = (339,0);
},
{
name = top;
pos = (427,500);
}
);
layerId = m002;
shapes = (
{
closed = 1;
nodes = (
(194,-16,o),
(268,57,o),
(294,115,c),
(303,115,l),
(328,22,o),
(413,-16,o),
(490,-16,cs),
(623,-16,o),
(703,72,o),
(741,189,c),
(733,189,l),
(687,84,o),
(610,56,o),
(557,56,cs),
(446,56,o),
(407,151,o),
(429,282,c),
(417,272,l),
(745,272,l),
(769,409,o),
(710,516,o),
(581,516,cs),
(515,516,o),
(447,487,o),
(395,429,c),
(438,432,l),
(425,487,o),
(370,516,o),
(280,516,cs),
(181,516,o),
(102,474,o),
(93,420,cs),
(88,394,o),
(100,370,o),
(129,370,cs),
(190,370,o),
(191,477,o),
(280,477,cs),
(318,477,o),
(354,458,o),
(338,370,cs),
(327,305,l),
(337,315,l),
(231,311,o),
(20,231,o),
(-4,99,cs),
(-16,29,o),
(32,-16,o),
(103,-16,cs)
);
},
{
closed = 1;
nodes = (
(114,33,o),
(92,66,o),
(100,115,cs),
(118,217,o),
(241,274,o),
(331,277,c),
(323,286,l),
(316,242,ls),
(299,149,o),
(228,33,o),
(153,33,cs)
);
},
{
closed = 1;
nodes = (
(458,430,o),
(520,486,o),
(583,486,cs),
(648,486,o),
(672,426,o),
(655,307,c),
(421,307,l),
(431,296,l)
);
}
);
width = 766;
}
);
metricLeft = a;
metricRight = e;
unicode = 230;
},
{
glyphname = b;
kernLeft = b;
kernRight = o;
lastChange = "2023-06-24 15:27:31 +0000";
layers = (
{
anchors = (
{
name = bottom;
pos = (249,0);
},
{
name = center;
pos = (249,250);
},
{
name = top;
pos = (249,500);
}
);
background = {
hints = (
{
name = _corner.rightSerif;
origin = (0,25);
type = Corner;
}
);
shapes = (
{
closed = 1;
nodes = (
(376,-16,o),
(497,60,o),
(497,252,cs),
(497,435,o),
(387,516,o),
(298,516,cs),
(237,516,o),
(193,480,o),
(171,438,c),
(144,438,l),
(144,358,l),
(166,358,l),
(173,430,o),
(225,476,o),
(274,476,cs),
(335,476,o),
(392,407,o),
(392,231,cs),
(392,88,o),
(347,22,o),
(279,22,cs),
(230,22,o),
(166,55,o),
(166,139,cs),
(166,700,l),
(66,700,l),
(66,0,l),
(70,0,l),
(87,17,o),
(108,30,o),
(138,30,cs),
(195,30,o),
(217,-16,o),
(287,-16,cs)
);
}
);
};
hints = (
{
name = _corner.rightSerif;
origin = (0,25);
type = Corner;
}
);
layerId = m01;
shapes = (
{
closed = 1;
nodes = (
(382,-16,o),
(487,70,o),
(487,262,cs),
(487,445,o),
(398,516,o),
(307,516,cs),
(242,516,o),
(194,480,o),
(171,438,c),
(144,438,l),
(144,358,l),
(166,358,l),
(173,430,o),
(222,476,o),
(276,476,cs),
(337,476,o),
(382,417,o),
(382,241,cs),
(382,98,o),
(350,22,o),
(271,22,cs),
(218,22,o),
(166,55,o),
(166,139,cs),
(166,700,l),
(66,700,l),
(66,0,l),
(87,0,l),
(100,17,o),
(114,30,o),
(142,30,cs),
(188,30,o),
(202,-16,o),
(282,-16,cs)
);
}
);
width = 497;
},
{
anchors = (
{
name = bottom;
pos = (215,0);
},
{
name = center;
pos = (259,250);
},
{
name = top;
pos = (303,500);
}
);
background = {
shapes = (
{
pos = (58,0);
ref = o;
}
);
};
hints = (
{
name = _corner.rightSerif;
options = 1;
origin = (0,25);
type = Corner;
}
);
layerId = m002;
shapes = (
{
closed = 1;
nodes = (
(339,-16,o),
(473,60,o),
(507,252,cs),
(539,435,o),
(444,516,o),
(355,516,cs),
(294,516,o),
(243,480,o),
(214,438,c),
(187,438,l),
(173,358,l),
(195,358,l),
(215,430,o),
(275,476,o),
(324,476,cs),
(385,476,o),
(429,407,o),
(398,231,cs),
(373,88,o),
(317,22,o),
(249,22,cs),
(200,22,o),
(141,55,o),
(156,139,cs),
(255,700,l),
(155,700,l),
(32,0,l),
(36,0,l),
(56,17,o),
(79,30,o),
(109,30,cs),
(166,30,o),
(180,-16,o),
(250,-16,cs)
);
}
);
width = 517;
},
{
anchors = (
{
name = bottom;
pos = (265,0);
},
{
name = center;
pos = (265,250);
},
{
name = top;
pos = (265,500);
}
);
associatedMasterId = m01;
background = {
shapes = (
{
pos = (32,0);
ref = o;
}
);
};
hints = (
{
name = _corner.rightSerif;
origin = (0,25);
type = Corner;
}
);
layerId = "C7499F53-F3BF-497B-90D9-CF557573AFDF";
name = "9 Jun 23 13.45";
shapes = (
{
closed = 1;
nodes = (
(376,-16,o),
(497,60,o),
(497,252,cs),
(497,435,o),
(387,516,o),
(298,516,cs),
(237,516,o),
(193,480,o),
(171,438,c),
(144,438,l),
(144,358,l),
(166,358,l),
(173,430,o),
(225,476,o),
(274,476,cs),
(335,476,o),
(392,407,o),
(392,231,cs),
(392,88,o),
(347,22,o),
(279,22,cs),
(230,22,o),
(166,55,o),
(166,139,cs),
(166,700,l),
(66,700,l),
(66,0,l),
(70,0,l),
(87,17,o),
(108,30,o),
(138,30,cs),
(195,30,o),
(217,-16,o),
(287,-16,cs)
);
}
);
width = 527;
}
);
metricRight = o;
unicode = 98;
},
{
glyphname = c;
kernLeft = o;
kernRight = c;
lastChange = "2023-06-24 15:27:31 +0000";
layers = (
{
anchors = (
{
name = bottom;
pos = (214,0);
},
{
name = top;
pos = (214,500);
}
);
background = {
shapes = (
{
closed = 1;
nodes = (
(323,-16,o),
(387,72,o),
(405,169,c),
(397,169,l),
(369,84,o),
(300,56,o),
(244,56,cs),
(143,56,o),
(84,166,o),
(84,285,cs),
(84,402,o),
(129,475,o),
(214,475,cs),
(316,475,o),
(293,370,o),
(353,370,cs),
(379,370,o),
(398,390,o),
(398,420,cs),
(398,475,o),
(332,516,o),
(234,516,cs),
(87,516,o),
(-20,414,o),
(-20,248,cs),
(-20,81,o),
(87,-16,o),
(202,-16,cs)
);
}
);
};
layerId = m01;
shapes = (
{
closed = 1;
nodes = (
(327,-16,o),
(386,61,o),
(405,166,c),
(383,171,l),
(358,77,o),
(305,46,o),
(250,46,cs),
(162,46,o),
(114,139,o),
(114,261,cs),
(114,407,o),
(149,485,o),
(224,485,cs),
(326,485,o),
(283,370,o),
(353,370,cs),
(379,370,o),
(398,390,o),
(398,420,cs),
(398,469,o),
(342,516,o),
(234,516,cs),
(104,516,o),
(10,414,o),
(10,228,cs),
(10,61,o),
(107,-16,o),
(212,-16,cs)
);
}
);
width = 428;
},
{
anchors = (
{
name = bottom;
pos = (168,0);
},
{
name = top;
pos = (256,500);
}
);
layerId = m002;
shapes = (
{
closed = 1;
nodes = (
(280,-16,o),
(353,61,o),
(390,166,c),
(369,171,l),
(327,77,o),
(269,46,o),
(214,46,cs),
(126,46,o),
(94,139,o),
(116,261,cs),
(142,407,o),
(190,485,o),
(265,485,cs),
(367,485,o),
(304,370,o),
(374,370,cs),
(400,370,o),
(423,390,o),
(428,420,cs),
(437,469,o),
(389,516,o),
(281,516,cs),
(151,516,o),
(39,414,o),
(6,228,cs),
(-23,61,o),
(60,-16,o),
(165,-16,cs)
);
}
);
width = 423;
},
{
anchors = (
{
name = bar;
pos = (244,285);
},
{
name = bottom;
pos = (218,0);
},
{
name = top;
pos = (218,500);
}
);
associatedMasterId = m01;
layerId = "835C1E78-3BDA-40BD-85BE-E1A2D7069A41";
name = "9 Jun 23 13.30";
shapes = (
{
closed = 1;
nodes = (
(353,-16,o),
(417,72,o),
(435,169,c),
(427,169,l),
(399,84,o),
(330,56,o),
(274,56,cs),
(173,56,o),
(114,166,o),
(114,285,cs),
(114,402,o),
(159,475,o),
(244,475,cs),
(346,475,o),
(323,370,o),
(383,370,cs),
(409,370,o),
(428,390,o),
(428,420,cs),
(428,475,o),
(362,516,o),
(264,516,cs),
(117,516,o),
(10,414,o),
(10,248,cs),
(10,81,o),
(117,-16,o),
(232,-16,cs)
);
}
);
width = 448;
}
);
metricLeft = o;
unicode = 99;
},
{
glyphname = d;
kernLeft = o;
kernRight = l;
lastChange = "2023-06-24 16:09:03 +0000";
layers = (
{
anchors = (
{
name = bottom;
pos = (249,0);
},
{
name = center;
pos = (279,593);
},
{
name = top;
pos = (249,800);
},
{
name = topright;
pos = (426,800);
}
);
background = {
hints = (
{
name = _corner.rightSerif;
options = 1;
place = (444, 0);
type = Corner;
},
{
name = _corner.rightSerif;
place = (344, 0);
type = Corner;
},
{
name = _corner.rightSerif;
options = 1;
origin = (1,0);
type = Corner;
},
{
name = _corner.rightSerif;
origin = (1,2);
type = Corner;
}
);
shapes = (
{
closed = 1;
nodes = (
(266,-16,o),
(309,27,o),
(327,82,c),
(333,82,l),
(333,168,l),
(326,168,l),
(321,79,o),
(291,34,o),
(229,34,cs),
(148,34,o),
(97,111,o),
(97,240,cs),
(97,375,o),
(156,476,o),
(233,476,cs),
(285,476,o),
(322,429,o),
(326,358,c),
(352,358,l),
(352,444,l),
(323,444,l),
(297,493,o),
(259,516,o),
(202,516,cs),
(78,516,o),
(-8,404,o),
(-8,237,cs),
(-8,84,o),
(74,-16,o),
(190,-16,cs)
);
},
{
closed = 1;
nodes = (
(426,0,l),
(426,700,l),
(326,700,l),
(326,120,l),
(330,91,l),
(330,0,l)
);
}
);
};
hints = (
{
name = _corner.rightSerif;
options = 1;
origin = (1,0);
type = Corner;
},
{
name = _corner.rightSerif;
origin = (1,2);
type = Corner;
}
);
layerId = m01;
shapes = (
{
closed = 1;
nodes = (
(265,-16,o),
(309,23,o),
(327,72,c),
(333,72,l),
(333,168,l),
(326,168,l),
(321,79,o),
(290,34,o),
(227,34,cs),
(158,34,o),
(115,100,o),
(115,249,cs),
(115,404,o),
(167,476,o),
(235,476,cs),
(286,476,o),
(322,429,o),
(326,358,c),
(352,358,l),
(352,449,l),
(323,449,l),
(297,495,o),
(260,516,o),
(204,516,cs),
(89,516,o),
(10,432,o),
(10,245,cs),
(10,72,o),
(86,-16,o),
(188,-16,cs)
);
},
{
closed = 1;
nodes = (
(426,0,l),
(426,700,l),
(326,700,l),
(326,120,l),
(330,91,l),
(330,0,l)
);
}
);
width = 498;
},
{
anchors = (
{
name = bottom;
pos = (219,0);
},
{
name = center;
pos = (346,614);
},
{
name = top;
pos = (360,800);
},
{
name = topright;
pos = (543,800);
}
);
hints = (
{
name = _corner.rightSerif;
options = 1;
origin = (1,0);
type = Corner;
},
{
name = _corner.rightSerif;
options = 1;
origin = (1,2);
type = Corner;
}
);
layerId = m002;
shapes = (
{
closed = 1;
nodes = (
(238,-16,o),
(288,27,o),
(316,82,c),
(322,82,l),
(337,168,l),
(330,168,l),
(310,79,o),
(272,34,o),
(210,34,cs),
(129,34,o),
(91,111,o),
(114,240,cs),
(138,375,o),
(215,476,o),
(292,476,cs),
(344,476,o),
(372,429,o),
(364,358,c),
(390,358,l),
(405,444,l),
(376,444,l),
(359,493,o),
(325,516,o),
(268,516,cs),
(144,516,o),
(38,404,o),
(8,237,cs),
(-18,84,o),
(46,-16,o),
(162,-16,cs)
);
},
{
closed = 1;
nodes = (
(401,2,l),
(524,700,l),
(424,700,l),
(322,120,l),
(321,91,l),
(305,0,l)
);
}
);
width = 526;
},
{
anchors = (
{
name = bottom;
pos = (257,0);
},
{
name = center;
pos = (291,584);
},
{
name = top;
pos = (257,800);
},
{
name = topright;
pos = (415,800);
}
);
associatedMasterId = m01;
hints = (
{
name = _corner.rightSerif;
options = 1;
origin = (1,0);
type = Corner;
},
{
name = _corner.rightSerif;
origin = (1,2);
type = Corner;
}
);
layerId = "B1965DD8-CD81-40D3-A92F-B0FC8B1DB4DF";
name = "9 Jun 23 13.47";
shapes = (
{
closed = 1;
nodes = (
(284,-16,o),
(327,27,o),
(345,82,c),
(351,82,l),
(351,168,l),
(344,168,l),
(339,79,o),
(309,34,o),
(247,34,cs),
(166,34,o),
(115,111,o),
(115,240,cs),
(115,375,o),
(174,476,o),
(251,476,cs),
(303,476,o),
(340,429,o),
(344,358,c),
(370,358,l),
(370,444,l),
(341,444,l),
(315,493,o),
(277,516,o),
(220,516,cs),
(96,516,o),
(10,404,o),
(10,237,cs),
(10,84,o),
(92,-16,o),
(208,-16,cs)
);
},
{
closed = 1;
nodes = (
(444,0,l),
(444,700,l),
(344,700,l),
(344,120,l),
(348,91,l),
(348,0,l)
);
}
);
width = 517;
}
);
metricLeft = o;
metricRight = l;
unicode = 100;
},
{
glyphname = eth;
kernLeft = o;
kernRight = O;
lastChange = "2023-06-24 15:27:31 +0000";
layers = (
{
anchors = (
{
name = bottom;
pos = (239,0);
},
{
name = top;
pos = (239,800);
}
);
background = {
shapes = (
{
closed = 1;
nodes = (
(350,-18,o),
(465,131,o),
(465,322,cs),
(465,418,o),
(432,511,o),
(377,584,c),
(377,570,l),
(433,591,l),
(418,633,l),
(343,605,l),
(364,600,l),
(314,659,o),
(251,703,o),
(179,720,c),
(178,709,l),
(232,689,o),
(278,646,o),
(310,581,c),
(316,595,l),
(192,550,l),
(207,508,l),
(354,562,l),
(319,562,l),
(345,501,o),
(361,420,o),
(358,329,c),
(367,333,l),
(350,411,o),
(294,459,o),
(207,459,cs),
(83,459,o),
(-20,363,o),
(-20,220,cs),
(-20,84,o),
(69,-17,o),
(191,-17,cs)
);
},
{
closed = 1;
nodes = (
(128,23,o),
(83,82,o),
(83,190,cs),
(83,337,o),
(140,418,o),
(232,418,cs),
(297,418,o),
(355,371,o),
(355,295,cs),
(355,141,o),
(278,23,o),
(193,23,cs)
);
}
);
};
layerId = m01;
shapes = (
{
closed = 1;
nodes = (
(367,-18,o),
(465,111,o),
(465,322,cs),
(465,418,o),
(432,511,o),
(377,584,c),
(377,570,l),
(433,591,l),
(418,633,l),
(343,605,l),
(369,600,l),
(318,659,o),
(253,703,o),
(179,720,c),
(171,700,l),
(229,677,o),
(276,642,o),
(310,581,c),
(316,595,l),
(192,550,l),
(207,508,l),
(354,562,l),
(319,562,l),
(345,501,o),
(361,420,o),
(358,329,c),
(367,333,l),
(352,411,o),
(303,459,o),
(217,459,cs),
(108,459,o),
(10,363,o),
(10,220,cs),
(10,84,o),
(103,-17,o),
(221,-17,cs)
);
},
{
closed = 1;
nodes = (
(163,23,o),
(113,82,o),
(113,190,cs),
(113,337,o),
(167,418,o),
(252,418,cs),
(306,418,o),
(354,360,o),
(354,265,cs),
(354,110,o),
(296,23,o),
(223,23,cs)
);
}
);
width = 478;
},
{
anchors = (
{
name = bottom;
pos = (219,0);
},
{
name = top;
pos = (360,800);
}
);
layerId = m002;
shapes = (
{
closed = 1;
nodes = (
(333,-18,o),
(474,131,o),
(508,322,cs),
(525,418,o),
(508,511,o),
(466,584,c),
(464,570,l),
(523,591,l),
(516,633,l),
(436,605,l),
(456,600,l),
(416,659,o),
(361,703,o),
(292,720,c),
(289,709,l),
(340,689,o),
(378,646,o),
(398,581,c),
(407,595,l),
(275,550,l),
(283,508,l),
(439,562,l),
(404,562,l),
(419,501,o),
(421,420,o),
(402,329,c),
(412,333,l),
(408,411,o),
(361,459,o),
(274,459,cs),
(150,459,o),
(30,363,o),
(5,220,cs),
(-19,84,o),
(52,-17,o),
(174,-17,cs)
);
},
{
closed = 1;
nodes = (
(118,23,o),
(83,82,o),
(103,190,cs),
(128,337,o),
(200,418,o),
(292,418,cs),
(357,418,o),
(406,371,o),
(393,295,cs),
(366,141,o),
(268,23,o),
(183,23,cs)
);
}
);
width = 525;
}
);
metricLeft = o;
unicode = 240;
},
{
glyphname = e;
kernLeft = o;
kernRight = e;
lastChange = "2023-06-24 16:09:20 +0000";
layers = (
{
anchors = (
{
name = bottom;
pos = (218,0);
},
{
name = ogonek;
pos = (392,10);
},
{
name = top;
pos = (218,500);
}
);
background = {
shapes = (
{
closed = 1;
nodes = (
(341,-16,o),
(405,72,o),
(423,189,c),
(415,189,l),
(387,84,o),
(315,56,o),
(262,56,cs),
(151,56,o),
(94,152,o),
(94,284,cs),
(94,426,o),
(147,486,o),
(212,486,cs),
(281,486,o),
(316,419,o),
(316,287,c),
(341,307,l),
(62,307,l),
(62,272,l),
(412,272,l),
(412,409,o),
(334,516,o),
(212,516,cs),
(97,516,o),
(-10,420,o),
(-10,248,cs),
(-10,81,o),
(97,-16,o),
(208,-16,cs)
);
}
);
};
layerId = m01;
shapes = (
{
closed = 1;
nodes = (
(327,-16,o),
(392,46,o),
(420,179,c),
(400,183,l),
(374,83,o),
(318,56,o),
(260,56,cs),
(164,56,o),
(114,132,o),
(114,284,cs),
(114,426,o),
(162,486,o),
(222,486,cs),
(294,486,o),
(326,439,o),
(316,287,c),
(341,307,l),
(82,307,l),
(82,272,l),
(412,272,l),
(422,429,o),
(348,516,o),
(222,516,cs),
(112,516,o),
(10,425,o),
(10,233,cs),
(10,76,o),
(98,-16,o),
(222,-16,cs)
);
}
);
width = 436;
},
{
anchors = (
{
name = bottom;
pos = (173,0);
},
{
name = ogonek;
pos = (244,10);
},
{
name = top;
pos = (261,500);
}
);
layerId = m002;
shapes = (
{
closed = 1;
nodes = (
(280,-16,o),
(356,46,o),
(407,179,c),
(388,183,l),
(345,83,o),
(284,56,o),
(226,56,cs),
(130,56,o),
(93,132,o),
(120,284,cs),
(145,426,o),
(204,486,o),
(264,486,cs),
(336,486,o),
(359,439,o),
(323,287,c),
(351,307,l),
(92,307,l),
(86,272,l),
(416,272,l),
(454,429,o),
(395,516,o),
(269,516,cs),
(159,516,o),
(41,425,o),
(7,233,cs),
(-21,76,o),
(51,-16,o),
(175,-16,cs)
);
}
);
width = 434;
}
);
metricLeft = o;
unicode = 101;
},
{
glyphname = schwa;
kernLeft = o;
kernRight = o;
lastChange = "2023-07-14 13:49:36 +0000";
layers = (
{
background = {
shapes = (
{
closed = 1;
nodes = (
(371,-16,o),
(478,81,o),
(478,248,cs),
(478,425,o),
(371,516,o),
(246,516,cs),
(149,516,o),
(62,461,o),
(29,353,c),
(129,353,l),
(149,442,o),
(196,486,o),
(246,486,cs),
(313,486,o),
(373,409,o),
(373,249,cs),
(373,79,o),
(313,14,o),
(246,14,cs),
(179,14,o),
(119,79,o),
(119,249,c),
(14,249,l),
(14,81,o),
(121,-16,o),
(246,-16,cs)
);
},
{
closed = 1;
nodes = (
(421,204,l),
(421,249,l),
(52,249,l),
(52,204,l)
);
}
);
};
layerId = m01;
shapes = (
{
angle = 180;
pos = (436,500);
ref = e;
}
);
width = 436;
},
{
background = {
shapes = (
{
closed = 1;
nodes = (
(306,-16,o),
(430,81,o),
(460,248,cs),
(491,425,o),
(400,516,o),
(275,516,cs),
(178,516,o),
(81,461,o),
(29,353,c),
(129,353,l),
(165,442,o),
(220,486,o),
(270,486,cs),
(337,486,o),
(383,409,o),
(355,249,cs),
(325,79,o),
(253,14,o),
(186,14,cs),
(119,14,o),
(71,79,o),
(101,249,c),
(-4,249,l),
(-34,81,o),
(56,-16,o),
(181,-16,cs)
);
},
{
closed = 1;
nodes = (
(395,204,l),
(403,249,l),
(34,249,l),
(26,204,l)
);
}
);
};
layerId = m002;
shapes = (
{
angle = 180;
pos = (434,500);
ref = e;
}
);
width = 434;
}
);
metricLeft = o;
metricRight = o;
unicode = 601;
},
{
glyphname = f;
kernLeft = f;
kernRight = f;
lastChange = "2023-06-24 15:27:31 +0000";
layers = (
{
anchors = (
{
name = bottom;
pos = (164,0);
},
{
name = top;
pos = (164,800);
}
);
background = {
hints = (
{
name = _corner.rightSerif;
origin = (0,0);
type = Corner;
},
{
name = _corner.leftSerif;
origin = (0,20);
type = Corner;
}
);
shapes = (
{
closed = 1;
nodes = (
(176,0,l),
(176,466,ls),
(176,524,o),
(130,523,o),
(130,580,cs),
(130,627,o),
(163,667,o),
(202,667,cs),
(260,667,o),
(242,576,o),
(293,576,cs),
(316,576,o),
(332,596,o),
(332,623,cs),
(332,670,o),
(282,708,o),
(220,708,cs),
(136,708,o),
(76,640,o),
(76,546,cs),
(76,0,l)
);
},
{
closed = 1;
nodes = (
(94,465,l),
(94,527,l),
(32,500,l),
(32,465,l)
);
},
{
closed = 1;
nodes = (
(284,465,l),
(284,500,l),
(107,500,l),
(107,465,l)
);
}
);
};
hints = (
{
name = _corner.rightSerif;
origin = (0,0);
type = Corner;
},
{
name = _corner.leftSerif;
origin = (0,20);
type = Corner;
}
);
layerId = m01;
shapes = (
{
closed = 1;
nodes = (
(176,0,l),
(176,476,l),
(146,507,o),
(130,538,o),
(130,590,cs),
(130,638,o),
(151,679,o),
(195,679,cs),
(265,679,o),
(214,576,o),
(283,576,cs),
(307,576,o),
(319,591,o),
(319,617,cs),
(319,670,o),
(281,708,o),
(213,708,cs),
(124,708,o),
(76,650,o),
(76,516,cs),
(76,0,l)
);
},
{
closed = 1;
nodes = (
(94,465,l),
(94,517,l),
(23,490,l),
(23,465,l)
);
},
{
closed = 1;
nodes = (
(284,465,l),
(284,500,l),
(107,500,l),
(107,465,l)
);
}
);
width = 327;
},
{
anchors = (
{
name = bottom;
pos = (109,0);
},
{
name = top;
pos = (250,800);
}
);
background = {
hints = (
{
name = _corner.rightSerif;
options = 1;
origin = (0,0);
type = Corner;
},
{
name = _corner.leftSerif;
origin = (0,20);
type = Corner;
}
);
shapes = (
{
closed = 1;
nodes = (
(129,0,l),
(211,466,ls),
(221,524,o),
(175,523,o),
(185,580,cs),
(193,627,o),
(233,667,o),
(272,667,cs),
(330,667,o),
(296,576,o),
(347,576,cs),
(370,576,o),
(390,596,o),
(394,623,cs),
(403,670,o),
(359,708,o),
(297,708,cs),
(213,708,o),
(141,640,o),
(125,546,cs),
(29,0,l)
);
},
{
closed = 1;
nodes = (
(129,465,l),
(140,527,l),
(73,500,l),
(67,465,l)
);
},
{
closed = 1;
nodes = (
(319,465,l),
(325,500,l),
(148,500,l),
(142,465,l)
);
}
);
};
hints = (
{
name = _corner.rightSerif;
options = 1;
origin = (0,0);
type = Corner;
},
{
name = _corner.leftSerif;
origin = (0,20);
type = Corner;
}
);
layerId = m002;
shapes = (
{
closed = 1;
nodes = (
(129,0,l),
(213,476,l),
(188,507,o),
(177,538,o),
(187,590,cs),
(195,638,o),
(223,679,o),
(267,679,cs),
(337,679,o),
(268,576,o),
(337,576,cs),
(361,576,o),
(376,591,o),
(380,617,cs),
(390,670,o),
(358,708,o),
(290,708,cs),
(201,708,o),
(143,650,o),
(120,516,cs),
(29,0,l)
);
},
{
closed = 1;
nodes = (
(129,465,l),
(138,517,l),
(62,490,l),
(58,465,l)
);
},
{
closed = 1;
nodes = (
(319,465,l),
(325,500,l),
(148,500,l),
(142,465,l)
);
}
);
width = 305;
}
);
unicode = 102;
},
{
glyphname = g;
kernLeft = g;
kernRight = g;
lastChange = "2023-07-14 16:05:14 +0000";
layers = (
{
anchors = (
{
name = bottom;
pos = (247,-200);
},
{
name = top;
pos = (247,500);
}
);
background = {
shapes = (
{
closed = 1;
nodes = (
(394,-217,o),
(476,-157,o),
(476,-54,cs),
(476,37,o),
(399,88,o),
(309,88,cs),
(133,88,ls),
(109,88,o),
(99,99,o),
(99,112,cs),
(99,122,o),
(105,134,o),
(124,145,cs),
(163,167,l),
(144,181,l),
(108,162,ls),
(45,129,o),
(25,97,o),
(25,65,cs),
(25,32,o),
(48,-5,o),
(135,-5,cs),
(289,-5,ls),
(362,-5,o),
(393,-37,o),
(393,-84,cs),
(393,-142,o),
(346,-182,o),
(242,-182,cs),
(163,-182,o),
(104,-158,o),
(104,-90,cs),
(104,-39,o),
(140,-5,o),
(199,-5,cs),
(213,-5,l),
(213,6,l),
(189,6,ls),
(115,6,o),
(4,-23,o),
(4,-104,cs),
(4,-167,o),
(73,-217,o),
(223,-217,cs)
);
},
{
closed = 1;
nodes = (
(324,139,o),
(417,216,o),
(417,330,cs),
(417,440,o),
(331,516,o),
(234,516,cs),
(138,516,o),
(45,437,o),
(45,322,cs),
(45,213,o),
(131,139,o),
(227,139,cs)
);
},
{
closed = 1;
nodes = (
(174,169,o),
(141,217,o),
(141,318,cs),
(141,432,o),
(178,486,o),
(234,486,cs),
(289,486,o),
(321,437,o),
(321,336,cs),
(321,221,o),
(285,169,o),
(228,169,cs)
);
},
{
closed = 1;
nodes = (
(458,469,o),
(473,486,o),
(473,516,cs),
(473,546,o),
(458,562,o),
(434,562,cs),
(393,562,o),
(377,516,o),
(279,516,cs),
(235,516,l),
(235,510,l),
(312,500,o),
(369,469,o),
(416,469,cs)
);
}
);
};
layerId = m01;
shapes = (
{
closed = 1;
nodes = (
(394,-217,o),
(476,-157,o),
(476,-54,cs),
(476,37,o),
(409,88,o),
(309,88,cs),
(133,88,ls),
(109,88,o),
(99,99,o),
(99,112,cs),
(99,122,o),
(105,134,o),
(124,145,cs),
(144,156,l),
(170,145,o),
(198,139,o),
(227,139,cs),
(324,139,o),
(417,206,o),
(417,330,cs),
(417,405,o),
(383,459,o),
(334,489,c),
(334,491,l),
(366,481,o),
(387,469,o),
(414,469,cs),
(456,469,o),
(471,486,o),
(471,516,cs),
(471,546,o),
(455,562,o),
(429,562,cs),
(379,562,o),
(363,516,o),
(279,516,cs),
(235,516,l),
(234,516,ls),
(138,516,o),
(45,447,o),
(45,322,cs),
(45,251,o),
(76,199,o),
(121,169,c),
(108,162,ls),
(55,134,o),
(42,100,o),
(42,68,cs),
(42,38,o),
(57,3,o),
(115,-4,c),
(115,-7,l),
(64,-21,o),
(14,-50,o),
(14,-104,cs),
(14,-167,o),
(80,-217,o),
(223,-217,cs)
);
},
{
closed = 1;
nodes = (
(169,-187,o),
(114,-162,o),
(114,-90,cs),
(114,-39,o),
(146,-5,o),
(199,-5,cs),
(289,-5,ls),
(362,-5,o),
(393,-37,o),
(393,-84,cs),
(393,-145,o),
(346,-187,o),
(242,-187,cs)
);
},
{
closed = 1;
nodes = (
(174,169,o),
(141,210,o),
(141,321,cs),
(141,445,o),
(178,486,o),
(234,486,cs),
(289,486,o),
(321,444,o),
(321,333,cs),
(321,208,o),
(285,169,o),
(228,169,cs)
);
}
);
width = 494;
},
{
anchors = (
{
name = bottom;
pos = (162,-200);
},
{
name = top;
pos = (285,500);
}
);
background = {
shapes = (
{
pos = (-49,0);
ref = o;
}
);
};
layerId = m002;
shapes = (
{
closed = 1;
nodes = (
(317,-217,o),
(410,-157,o),
(428,-54,cs),
(444,37,o),
(386,88,o),
(286,88,cs),
(110,88,ls),
(86,88,o),
(78,99,o),
(80,112,cs),
(82,122,o),
(90,134,o),
(111,145,cs),
(133,156,l),
(157,145,o),
(184,139,o),
(213,139,cs),
(310,139,o),
(415,206,o),
(437,330,cs),
(450,405,o),
(426,459,o),
(382,489,c),
(382,491,l),
(412,481,o),
(431,469,o),
(458,469,cs),
(500,469,o),
(518,486,o),
(524,516,cs),
(529,546,o),
(516,562,o),
(490,562,cs),
(440,562,o),
(416,516,o),
(332,516,cs),
(288,516,l),
(287,516,ls),
(191,516,o),
(85,447,o),
(63,322,cs),
(51,251,o),
(73,199,o),
(112,169,c),
(98,162,ls),
(40,134,o),
(21,100,o),
(16,68,cs),
(10,38,o),
(19,3,o),
(76,-4,c),
(75,-7,l),
(22,-21,o),
(-33,-50,o),
(-43,-104,cs),
(-54,-167,o),
(3,-217,o),
(146,-217,cs)
);
},
{
closed = 1;
nodes = (
(98,-187,o),
(47,-162,o),
(60,-90,cs),
(69,-39,o),
(107,-5,o),
(160,-5,cs),
(250,-5,ls),
(323,-5,o),
(348,-37,o),
(340,-84,cs),
(329,-145,o),
(275,-187,o),
(171,-187,cs)
);
},
{
closed = 1;
nodes = (
(165,169,o),
(140,210,o),
(159,321,cs),
(181,445,o),
(225,486,o),
(281,486,cs),
(336,486,o),
(361,444,o),
(341,333,cs),
(319,208,o),
(276,169,o),
(219,169,cs)
);
}
);
width = 498;
},
{
anchors = (
{
name = bottom;
pos = (213,-200);
},
{
name = top;
pos = (213,500);
}
);
associatedMasterId = m01;
background = {
shapes = (
{
pos = (-24,0);
ref = o;
}
);
};
layerId = "CB58D0EC-DFCE-4C71-988F-0B3E6C4BA43F";
name = "9 Jun 23 13.53";
shapes = (
{
closed = 1;
nodes = (
(394,-217,o),
(476,-157,o),
(476,-54,cs),
(476,37,o),
(399,88,o),
(309,88,cs),
(133,88,ls),
(109,88,o),
(99,99,o),
(99,112,cs),
(99,122,o),
(105,134,o),
(124,145,cs),
(163,167,l),
(144,181,l),
(108,162,ls),
(45,129,o),
(25,97,o),
(25,65,cs),
(25,32,o),
(48,-5,o),
(135,-5,cs),
(289,-5,ls),
(362,-5,o),
(393,-37,o),
(393,-84,cs),
(393,-142,o),
(346,-182,o),
(242,-182,cs),
(163,-182,o),
(104,-158,o),
(104,-90,cs),
(104,-39,o),
(140,-5,o),
(199,-5,cs),
(213,-5,l),
(213,6,l),
(189,6,ls),
(115,6,o),
(4,-23,o),
(4,-104,cs),
(4,-167,o),
(73,-217,o),
(223,-217,cs)
);
},
{
closed = 1;
nodes = (
(324,139,o),
(417,216,o),
(417,330,cs),
(417,440,o),
(331,516,o),
(234,516,cs),
(138,516,o),
(45,437,o),
(45,322,cs),
(45,213,o),
(131,139,o),
(227,139,cs)
);
},
{
closed = 1;
nodes = (
(174,169,o),
(141,217,o),
(141,318,cs),
(141,432,o),
(178,486,o),
(234,486,cs),
(289,486,o),
(321,437,o),
(321,336,cs),
(321,221,o),
(285,169,o),
(228,169,cs)
);
},
{
closed = 1;
nodes = (
(458,469,o),
(473,486,o),
(473,516,cs),
(473,546,o),
(458,562,o),
(434,562,cs),
(393,562,o),
(377,516,o),
(279,516,cs),
(235,516,l),
(235,510,l),
(312,500,o),
(369,469,o),
(416,469,cs)
);
}
);
width = 484;
}
);
unicode = 103;
},
{
glyphname = h;
kernLeft = l;
kernRight = n;
lastChange = "2023-06-24 16:10:55 +0000";
layers = (
{
anchors = (
{
name = bottom;
pos = (261,0);
},
{
name = center;
pos = (230,603);
},
{
name = top;
pos = (114,700);
}
);
background = {
hints = (
{
name = _corner.rightSerif;
origin = (0,0);
type = Corner;
},
{
name = _corner.rightSerif;
origin = (0,2);
type = Corner;
},
{
name = _corner.leftSerif;
origin = (0,3);
type = Corner;
},
{
name = _corner.rightSerif;
origin = (1,0);
type = Corner;
},
{
name = _corner.leftSerif;
origin = (1,17);
type = Corner;
}
);
shapes = (
{
closed = 1;
nodes = (
(172,0,l),
(172,700,l),
(72,700,l),
(72,0,l)
);
},
{
closed = 1;
nodes = (
(451,0,l),
(451,374,ls),
(451,465,o),
(398,516,o),
(313,516,cs),
(242,516,o),
(196,480,o),
(177,414,c),
(151,414,l),
(151,312,l),
(172,312,l),
(184,413,o),
(225,468,o),
(284,468,cs),
(333,468,o),
(351,432,o),
(351,333,cs),
(351,0,l)
);
}
);
};
hints = (
{
name = _corner.rightSerif;
options = 1;
origin = (0,0);
type = Corner;
},
{
name = _corner.rightSerif;
origin = (0,2);
type = Corner;
},
{
name = _corner.leftSerif;
origin = (0,3);
type = Corner;
},
{
name = _corner.rightSerif;
origin = (1,0);
type = Corner;
},
{
name = _corner.leftSerif;
origin = (1,17);
type = Corner;
}
);
layerId = m01;
shapes = (
{
closed = 1;
nodes = (
(174,0,l),
(174,700,l),
(74,700,l),
(74,0,l)
);
},
{
closed = 1;
nodes = (
(452,0,l),
(452,354,ls),
(452,454,o),
(411,510,o),
(319,510,cs),
(248,510,o),
(198,476,o),
(178,414,c),
(152,414,l),
(152,312,l),
(173,312,l),
(185,409,o),
(223,462,o),
(285,462,cs),
(336,462,o),
(352,433,o),
(352,353,cs),
(352,0,l)
);
}
);
width = 521;
},
{
anchors = (
{
name = bottom;
pos = (224,0);
},
{
name = center;
pos = (285,598);
},
{
name = top;
pos = (208,700);
}
);
hints = (
{
name = _corner.rightSerif;
options = 1;
origin = (0,0);
type = Corner;
},
{
name = _corner.rightSerif;
options = 1;
origin = (0,2);
type = Corner;
},
{
name = _corner.leftSerif;
origin = (0,3);
type = Corner;
},
{
name = _corner.rightSerif;
options = 1;
origin = (1,0);
type = Corner;
},
{
name = _corner.leftSerif;
origin = (1,17);
type = Corner;
}
);
layerId = m002;
shapes = (
{
closed = 1;
nodes = (
(137,0,l),
(261,700,l),
(161,700,l),
(37,0,l)
);
},
{
closed = 1;
nodes = (
(416,0,l),
(482,374,ls),
(498,465,o),
(454,516,o),
(369,516,cs),
(298,516,o),
(246,480,o),
(215,414,c),
(189,414,l),
(171,312,l),
(192,312,l),
(222,413,o),
(273,468,o),
(332,468,cs),
(381,468,o),
(393,432,o),
(375,333,cs),
(316,0,l)
);
}
);
width = 536;
}
);
metricLeft = l;
metricRight = n;
unicode = 104;
},
{
glyphname = i;
kernLeft = i;
kernRight = i;
lastChange = "2023-06-24 15:27:31 +0000";
layers = (
{
anchors = (
{
name = bottom;
pos = (126,0);
}
);
hints = (
{
name = _corner.rightSerif;
origin = (0,0);
type = Corner;
},
{
name = _corner.rightSerif;
origin = (0,2);
type = Corner;
},
{
name = _corner.leftSerif;
origin = (0,3);
type = Corner;
}
);
layerId = m01;
shapes = (
{
closed = 1;
nodes = (
(176,0,l),
(176,500,l),
(76,500,l),
(76,0,l)
);
},
{
closed = 1;
nodes = (
(160,561,o),
(191,592,o),
(191,631,cs),
(191,669,o),
(160,700,o),
(122,700,cs),
(83,700,o),
(52,669,o),
(52,631,cs),
(52,592,o),
(83,561,o),
(122,561,cs)
);
}
);
width = 252;
},
{
anchors = (
{
name = bottom;
pos = (85,0);
}
);
hints = (
{
name = _corner.rightSerif;
options = 1;
origin = (0,0);
type = Corner;
},
{
name = _corner.rightSerif;
options = 1;
origin = (0,2);
type = Corner;
},
{
name = _corner.leftSerif;
origin = (0,3);
type = Corner;
}
);
layerId = m002;
shapes = (
{
closed = 1;
nodes = (
(135,0,l),
(223,500,l),
(123,500,l),
(35,0,l)
);
},
{
closed = 1;
nodes = (
(218,561,o),
(255,592,o),
(262,631,cs),
(268,669,o),
(243,700,o),
(205,700,cs),
(166,700,o),
(129,669,o),
(123,631,cs),
(116,592,o),
(141,561,o),
(180,561,cs)
);
}
);
width = 258;
}
);
metricLeft = n;
metricRight = "=|n";
unicode = 105;
},
{
glyphname = idotless;
kernLeft = n;
kernRight = n;
lastChange = "2023-06-24 15:44:29 +0000";
layers = (
{
anchors = (
{
name = bottom;
pos = (126,0);
},
{
name = ogonek;
pos = (227,15);
},
{
name = top;
pos = (126,500);
}
);
hints = (
{
name = _corner.rightSerif;
origin = (0,0);
type = Corner;
},
{
name = _corner.rightSerif;
origin = (0,2);
type = Corner;
},
{
name = _corner.leftSerif;
origin = (0,3);
type = Corner;
}
);
layerId = m01;
shapes = (
{
closed = 1;
nodes = (
(176,0,l),
(176,500,l),
(76,500,l),
(76,0,l)
);
}
);
width = 252;
},
{
anchors = (
{
name = bottom;
pos = (85,0);
},
{
name = ogonek;
pos = (190,10);
},
{
name = top;
pos = (173,500);
}
);
hints = (
{
name = _corner.rightSerif;
options = 1;
origin = (0,0);
type = Corner;
},
{
name = _corner.rightSerif;
options = 1;
origin = (0,2);
type = Corner;
},
{
name = _corner.leftSerif;
origin = (0,3);
type = Corner;
}
);
layerId = m002;
shapes = (
{
closed = 1;
nodes = (
(135,0,l),
(223,500,l),
(123,500,l),
(35,0,l)
);
}
);
width = 258;
}
);
metricLeft = n;
metricRight = "=|n";
unicode = 305;
},
{
glyphname = ij;
kernLeft = l;
kernRight = j;
lastChange = "2023-06-24 16:10:14 +0000";
layers = (
{
hints = (
{
name = _corner.rightSerif;
origin = (0,0);
type = Corner;
},
{
name = _corner.rightSerif;
origin = (0,2);
type = Corner;
},
{
name = _corner.leftSerif;
origin = (0,3);
type = Corner;
},
{
name = _corner.rightSerif;
origin = (2,4);
type = Corner;
}
);
layerId = m01;
shapes = (
{
closed = 1;
nodes = (
(176,0,l),
(176,500,l),
(76,500,l),
(76,0,l)
);
},
{
closed = 1;
nodes = (
(160,561,o),
(191,592,o),
(191,631,cs),
(191,669,o),
(160,700,o),
(122,700,cs),
(83,700,o),
(52,669,o),
(52,631,cs),
(52,592,o),
(83,561,o),
(122,561,cs)
);
},
{
closed = 1;
nodes = (
(371,-216,o),
(404,-109,o),
(404,-16,cs),
(404,500,l),
(304,500,l),
(304,-24,ls),
(304,-136,o),
(284,-175,o),
(248,-175,cs),
(194,-175,o),
(205,-84,o),
(149,-84,cs),
(123,-84,o),
(107,-104,o),
(107,-130,cs),
(107,-177,o),
(159,-216,o),
(240,-216,cs)
);
},
{
closed = 1;
nodes = (
(375,561,o),
(406,592,o),
(406,631,cs),
(406,669,o),
(375,700,o),
(337,700,cs),
(298,700,o),
(267,669,o),
(267,631,cs),
(267,592,o),
(298,561,o),
(337,561,cs)
);
}
);
width = 435;
},
{
hints = (
{
name = _corner.rightSerif;
options = 1;
origin = (0,0);
type = Corner;
},
{
name = _corner.rightSerif;
options = 1;
origin = (0,2);
type = Corner;
},
{
name = _corner.leftSerif;
origin = (0,3);
type = Corner;
},
{
name = _corner.rightSerif;
options = 1;
origin = (2,4);
type = Corner;
}
);
layerId = m002;
shapes = (
{
closed = 1;
nodes = (
(135,0,l),
(223,500,l),
(123,500,l),
(35,0,l)
);
},
{
closed = 1;
nodes = (
(218,561,o),
(255,592,o),
(262,631,cs),
(268,669,o),
(243,700,o),
(205,700,cs),
(166,700,o),
(129,669,o),
(123,631,cs),
(116,592,o),
(141,561,o),
(180,561,cs)
);
},
{
closed = 1;
nodes = (
(292,-216,o),
(344,-109,o),
(361,-16,cs),
(451,500,l),
(351,500,l),
(259,-24,ls),
(239,-136,o),
(212,-175,o),
(176,-175,cs),
(122,-175,o),
(150,-84,o),
(94,-84,cs),
(68,-84,o),
(48,-104,o),
(43,-130,cs),
(35,-177,o),
(80,-216,o),
(161,-216,cs)
);
},
{
closed = 1;
nodes = (
(433,561,o),
(470,592,o),
(477,631,cs),
(483,669,o),
(458,700,o),
(420,700,cs),
(381,700,o),
(344,669,o),
(338,631,cs),
(331,592,o),
(356,561,o),
(395,561,cs)
);
}
);
width = 519;
}
);
metricLeft = "=n";
unicode = 307;
},
{
glyphname = j;
kernLeft = j;
kernRight = j;
lastChange = "2023-06-24 15:27:31 +0000";
layers = (
{
background = {
hints = (
{
name = _corner.rightSerif;
origin = (0,4);
type = Corner;
}
);
shapes = (
{
closed = 1;
nodes = (
(199,-216,o),
(232,-109,o),
(232,-16,cs),
(232,500,l),
(132,500,l),
(132,-24,ls),
(132,-136,o),
(112,-175,o),
(76,-175,cs),
(22,-175,o),
(33,-84,o),
(-23,-84,cs),
(-49,-84,o),
(-65,-104,o),
(-65,-130,cs),
(-65,-177,o),
(-13,-216,o),
(68,-216,cs)
);
},
{
closed = 1;
nodes = (
(203,561,o),
(234,592,o),
(234,631,cs),
(234,669,o),
(203,700,o),
(165,700,cs),
(126,700,o),
(95,669,o),
(95,631,cs),
(95,592,o),
(126,561,o),
(165,561,cs)
);
}
);
};
hints = (
{
name = _corner.rightSerif;
origin = (0,4);
type = Corner;
}
);
layerId = m01;
shapes = (
{
closed = 1;
nodes = (
(149,-216,o),
(182,-109,o),
(182,-16,cs),
(182,500,l),
(82,500,l),
(82,-94,ls),
(82,-162,o),
(62,-186,o),
(36,-186,cs),
(-18,-186,o),
(20,-84,o),
(-33,-84,cs),
(-59,-84,o),
(-75,-101,o),
(-75,-130,cs),
(-75,-177,o),
(-39,-216,o),
(28,-216,cs)
);
},
{
closed = 1;
nodes = (
(153,561,o),
(184,592,o),
(184,631,cs),
(184,669,o),
(153,700,o),
(115,700,cs),
(76,700,o),
(45,669,o),
(45,631,cs),
(45,592,o),
(76,561,o),
(115,561,cs)
);
}
);
width = 210;
},
{
background = {
shapes = (
{
pos = (22,0);
ref = i;
}
);
};
hints = (
{
name = _corner.rightSerif;
options = 1;
origin = (0,4);
type = Corner;
}
);
layerId = m002;
shapes = (
{
closed = 1;
nodes = (
(92,-216,o),
(144,-109,o),
(161,-16,cs),
(251,500,l),
(151,500,l),
(59,-24,ls),
(39,-136,o),
(12,-175,o),
(-24,-175,cs),
(-78,-175,o),
(-50,-84,o),
(-106,-84,cs),
(-132,-84,o),
(-152,-104,o),
(-157,-130,cs),
(-165,-177,o),
(-120,-216,o),
(-39,-216,cs)
);
},
{
closed = 1;
nodes = (
(233,561,o),
(270,592,o),
(277,631,cs),
(283,669,o),
(258,700,o),
(220,700,cs),
(181,700,o),
(144,669,o),
(138,631,cs),
(131,592,o),
(156,561,o),
(195,561,cs)
);
}
);
width = 230;
}
);
unicode = 106;
},
{
glyphname = jdotless;
kernLeft = j;
kernRight = j;
lastChange = "2023-06-24 16:11:17 +0000";
layers = (
{
anchors = (
{
name = bottom;
pos = (113,-200);
},
{
name = top;
pos = (113,500);
}
);
background = {
hints = (
{
name = _corner.rightSerif;
origin = (0,4);
type = Corner;
}
);
shapes = (
{
closed = 1;
nodes = (
(199,-216,o),
(232,-109,o),
(232,-16,cs),
(232,500,l),
(132,500,l),
(132,-24,ls),
(132,-136,o),
(112,-175,o),
(76,-175,cs),
(22,-175,o),
(33,-84,o),
(-23,-84,cs),
(-49,-84,o),
(-65,-104,o),
(-65,-130,cs),
(-65,-177,o),
(-13,-216,o),
(68,-216,cs)
);
}
);
};
hints = (
{
name = _corner.rightSerif;
origin = (0,4);
type = Corner;
}
);
layerId = m01;
shapes = (
{
closed = 1;
nodes = (
(149,-216,o),
(182,-109,o),
(182,-16,cs),
(182,500,l),
(82,500,l),
(82,-94,ls),
(82,-162,o),
(62,-186,o),
(36,-186,cs),
(-18,-186,o),
(20,-84,o),
(-33,-84,cs),
(-59,-84,o),
(-75,-101,o),
(-75,-130,cs),
(-75,-177,o),
(-39,-216,o),
(28,-216,cs)
);
}
);
width = 226;
},
{
anchors = (
{
name = bottom;
pos = (55,-200);
},
{
name = top;
pos = (237,500);
}
);
hints = (
{
name = _corner.rightSerif;
options = 1;
origin = (0,4);
type = Corner;
}
);
layerId = m002;
shapes = (
{
closed = 1;
nodes = (
(146,-216,o),
(198,-109,o),
(214,-16,cs),
(305,500,l),
(205,500,l),
(113,-24,ls),
(93,-136,o),
(66,-175,o),
(30,-175,cs),
(-24,-175,o),
(3,-84,o),
(-53,-84,cs),
(-79,-84,o),
(-98,-104,o),
(-103,-130,cs),
(-111,-177,o),
(-66,-216,o),
(15,-216,cs)
);
}
);
width = 267;
}
);
unicode = 567;
},
{
glyphname = k;
kernLeft = l;
kernRight = k;
lastChange = "2023-06-29 13:46:04 +0000";
layers = (
{
anchors = (
{
name = bottom;
pos = (257,0);
},
{
name = top;
pos = (257,700);
}
);
background = {
hints = (
{
name = _corner.rightSerif;
options = 1;
origin = (0,0);
type = Corner;
},
{
name = _corner.rightSerif;
options = 1;
origin = (0,2);
type = Corner;
},
{
name = _corner.leftSerif;
origin = (0,3);
type = Corner;
},
{
name = _corner.leftSerif;
origin = (0,1);
type = Corner;
},
{
name = _corner.rightSerif;
origin = (1,2);
scale = (-1.24,1);
type = Corner;
},
{
name = _corner.leftSerif;
options = 1;
origin = (1,1);
scale = (-1,1);
type = Corner;
},
{
name = _corner.rightSerif;
origin = (1,0);
scale = (-1,1);
type = Corner;
},
{
name = _corner.leftSerif;
options = 1;
origin = (1,3);
scale = (-1,1);
type = Corner;
}
);
shapes = (
{
closed = 1;
nodes = (
(464,0,l),
(154,500,l),
(54,500,l),
(364,0,l)
);
},
{
closed = 1;
nodes = (
(439,500,l),
(400,500,l),
(80,0,l),
(119,0,l)
);
}
);
};
hints = (
{
name = _corner.rightSerif;
origin = (0,0);
type = Corner;
},
{
name = _corner.rightSerif;
origin = (0,2);
type = Corner;
},
{
name = _corner.leftSerif;
origin = (0,3);
type = Corner;
},
{
name = _corner.rightSerif;
options = 1;
origin = (1,0);
type = Corner;
},
{
name = _corner.leftSerif;
origin = (2,0);
type = Corner;
},
{
name = _corner.rightSerif;
options = 1;
origin = (2,1);
scale = (1.3,1);
type = Corner;
}
);
layerId = m01;
shapes = (
{
closed = 1;
nodes = (
(174,0,l),
(174,700,l),
(74,700,l),
(74,0,l)
);
},
{
closed = 1;
nodes = (
(460,0,l),
(287,345,l),
(215,278,l),
(352,0,l)
);
},
{
closed = 1;
nodes = (
(443,500,l),
(404,500,l),
(161,231,l),
(161,181,l)
);
}
);
width = 515;
},
{
anchors = (
{
name = bottom;
pos = (224,0);
},
{
name = top;
pos = (204,700);
}
);
background = {
hints = (
{
name = _corner.rightSerif;
options = 1;
origin = (0,0);
type = Corner;
},
{
name = _corner.rightSerif;
options = 1;
origin = (0,2);
type = Corner;
},
{
name = _corner.leftSerif;
origin = (0,3);
type = Corner;
},
{
name = _corner.leftSerif;
origin = (0,1);
type = Corner;
},
{
name = _corner.rightSerif;
origin = (1,2);
scale = (-1.24,1);
type = Corner;
},
{
name = _corner.leftSerif;
options = 1;
origin = (1,1);
scale = (-1,1);
type = Corner;
},
{
name = _corner.rightSerif;
origin = (1,0);
scale = (-1,1);
type = Corner;
},
{
name = _corner.leftSerif;
options = 1;
origin = (1,3);
scale = (-1,1);
type = Corner;
}
);
shapes = (
{
closed = 1;
nodes = (
(489,0,l),
(179,500,l),
(79,500,l),
(389,0,l)
);
},
{
closed = 1;
nodes = (
(464,500,l),
(425,500,l),
(105,0,l),
(144,0,l)
);
}
);
};
hints = (
{
name = _corner.rightSerif;
options = 1;
origin = (0,0);
type = Corner;
},
{
name = _corner.rightSerif;
options = 1;
origin = (0,2);
type = Corner;
},
{
name = _corner.leftSerif;
origin = (0,3);
type = Corner;
},
{
name = _corner.rightSerif;
options = 1;
origin = (1,0);
type = Corner;
},
{
name = _corner.leftSerif;
origin = (2,0);
type = Corner;
},
{
name = _corner.rightSerif;
options = 1;
origin = (2,1);
scale = (1.3,1);
type = Corner;
}
);
layerId = m002;
shapes = (
{
closed = 1;
nodes = (
(137,0,l),
(261,700,l),
(161,700,l),
(37,0,l)
);
},
{
closed = 1;
nodes = (
(433,0,l),
(308,353,l),
(231,286,l),
(331,0,l)
);
},
{
closed = 1;
nodes = (
(504,500,l),
(465,500,l),
(167,247,l),
(158,197,l)
);
}
);
width = 536;
}
);
metricLeft = l;
unicode = 107;
},
{
glyphname = l;
kernLeft = l;
kernRight = l;
lastChange = "2023-06-24 16:11:54 +0000";
layers = (
{
anchors = (
{
name = bottom;
pos = (123,0);
},
{
name = center;
pos = (123,400);
},
{
name = top;
pos = (123,700);
},
{
name = topright;
pos = (174,800);
}
);
hints = (
{
name = _corner.rightSerif;
origin = (0,0);
type = Corner;
},
{
name = _corner.rightSerif;
origin = (0,2);
type = Corner;
},
{
name = _corner.leftSerif;
origin = (0,3);
type = Corner;
}
);
layerId = m01;
shapes = (
{
closed = 1;
nodes = (
(174,0,l),
(174,700,l),
(74,700,l),
(74,0,l)
);
}
);
width = 246;
},
{
anchors = (
{
name = bottom;
pos = (87,0);
},
{
name = center;
pos = (157,400);
},
{
name = top;
pos = (208,700);
},
{
name = topright;
pos = (338,800);
}
);
hints = (
{
name = _corner.rightSerif;
options = 1;
origin = (0,0);
type = Corner;
},
{
name = _corner.rightSerif;
options = 1;
origin = (0,2);
type = Corner;
},
{
name = _corner.leftSerif;
origin = (0,3);
type = Corner;
}
);
layerId = m002;
shapes = (
{
closed = 1;
nodes = (
(137,0,l),
(261,700,l),
(161,700,l),
(37,0,l)
);
}
);
width = 261;
}
);
unicode = 108;
},
{
glyphname = m;
kernLeft = n;
kernRight = n;
lastChange = "2023-06-24 15:27:31 +0000";
layers = (
{
anchors = (
{
name = bottom;
pos = (391,0);
},
{
name = top;
pos = (391,500);
}
);
background = {
hints = (
{
name = _corner.rightSerif;
origin = (0,0);
type = Corner;
},
{
name = _corner.rightSerif;
origin = (0,2);
type = Corner;
},
{
name = _corner.leftSerif;
origin = (0,3);
type = Corner;
},
{
name = _corner.rightSerif;
origin = (1,0);
type = Corner;
},
{
name = _corner.leftSerif;
origin = (1,17);
type = Corner;
},
{
name = _corner.rightSerif;
origin = (2,0);
type = Corner;
},
{
name = _corner.leftSerif;
origin = (2,17);
type = Corner;
}
);
shapes = (
{
closed = 1;
nodes = (
(176,0,l),
(176,500,l),
(76,500,l),
(76,0,l)
);
},
{
closed = 1;
nodes = (
(444,0,l),
(444,374,ls),
(444,465,o),
(391,516,o),
(316,516,cs),
(246,516,o),
(199,481,o),
(180,414,c),
(154,414,l),
(154,312,l),
(175,312,l),
(187,410,o),
(226,468,o),
(280,468,cs),
(326,468,o),
(344,431,o),
(344,333,cs),
(344,0,l)
);
},
{
closed = 1;
nodes = (
(713,0,l),
(713,374,ls),
(713,465,o),
(660,516,o),
(575,516,cs),
(514,516,o),
(461,480,o),
(442,414,c),
(423,414,l),
(423,312,l),
(444,312,l),
(457,431,o),
(497,468,o),
(543,468,cs),
(595,468,o),
(613,432,o),
(613,333,cs),
(613,0,l)
);
}
);
};
hints = (
{
name = _corner.rightSerif;
origin = (2,0);
type = Corner;
},
{
name = _corner.leftSerif;
origin = (2,17);
type = Corner;
},
{
name = _corner.rightSerif;
origin = (0,0);
type = Corner;
},
{
name = _corner.rightSerif;
origin = (0,2);
type = Corner;
},
{
name = _corner.leftSerif;
origin = (0,3);
type = Corner;
},
{
name = _corner.rightSerif;
origin = (1,0);
type = Corner;
},
{
name = _corner.leftSerif;
origin = (1,17);
type = Corner;
}
);
layerId = m01;
shapes = (
{
closed = 1;
nodes = (
(176,0,l),
(176,500,l),
(76,500,l),
(76,0,l)
);
},
{
closed = 1;
nodes = (
(444,0,l),
(444,374,ls),
(444,461,o),
(391,510,o),
(316,510,cs),
(246,510,o),
(199,477,o),
(180,414,c),
(154,414,l),
(154,312,l),
(175,312,l),
(187,406,o),
(226,462,o),
(280,462,cs),
(326,462,o),
(344,427,o),
(344,333,cs),
(344,0,l)
);
},
{
closed = 1;
nodes = (
(713,0,l),
(713,374,ls),
(713,461,o),
(660,510,o),
(575,510,cs),
(514,510,o),
(461,476,o),
(442,414,c),
(423,414,l),
(423,312,l),
(444,312,l),
(457,426,o),
(497,462,o),
(543,462,cs),
(595,462,o),
(613,428,o),
(613,333,cs),
(613,0,l)
);
}
);
width = 782;
},
{
anchors = (
{
name = bottom;
pos = (352,0);
},
{
name = top;
pos = (440,500);
}
);
background = {
shapes = (
{
pos = (284,0);
ref = n;
}
);
};
hints = (
{
name = _corner.rightSerif;
options = 1;
origin = (2,0);
type = Corner;
},
{
name = _corner.leftSerif;
origin = (2,17);
type = Corner;
},
{
name = _corner.rightSerif;
options = 1;
origin = (0,0);
type = Corner;
},
{
name = _corner.rightSerif;
options = 1;
origin = (0,2);
type = Corner;
},
{
name = _corner.leftSerif;
origin = (0,3);
type = Corner;
},
{
name = _corner.rightSerif;
options = 1;
origin = (1,0);
type = Corner;
},
{
name = _corner.leftSerif;
origin = (1,17);
type = Corner;
}
);
layerId = m002;
shapes = (
{
closed = 1;
nodes = (
(135,0,l),
(223,500,l),
(123,500,l),
(35,0,l)
);
},
{
closed = 1;
nodes = (
(403,0,l),
(468,374,ls),
(484,465,o),
(440,516,o),
(365,516,cs),
(295,516,o),
(242,481,o),
(212,414,c),
(186,414,l),
(168,312,l),
(189,312,l),
(218,410,o),
(267,468,o),
(321,468,cs),
(367,468,o),
(379,431,o),
(361,333,cs),
(303,0,l)
);
},
{
closed = 1;
nodes = (
(672,0,l),
(737,374,ls),
(753,465,o),
(709,516,o),
(624,516,cs),
(563,516,o),
(504,480,o),
(474,414,c),
(455,414,l),
(437,312,l),
(458,312,l),
(492,431,o),
(538,468,o),
(584,468,cs),
(636,468,o),
(648,432,o),
(630,333,cs),
(572,0,l)
);
}
);
width = 792;
}
);
metricLeft = n;
metricRight = n;
unicode = 109;
},
{
glyphname = n;
kernLeft = n;
kernRight = n;
lastChange = "2023-06-24 15:27:31 +0000";
layers = (
{
anchors = (
{
name = bottom;
pos = (262,0);
},
{
name = top;
pos = (262,500);
}
);
background = {
hints = (
{
name = _corner.rightSerif;
options = 1;
origin = (0,0);
type = Corner;
},
{
name = _corner.rightSerif;
origin = (0,2);
type = Corner;
},
{
name = _corner.leftSerif;
origin = (0,3);
type = Corner;
},
{
name = _corner.rightSerif;
origin = (1,0);
type = Corner;
},
{
name = _corner.leftSerif;
origin = (1,17);
type = Corner;
}
);
shapes = (
{
closed = 1;
nodes = (
(176,0,l),
(176,500,l),
(76,500,l),
(76,0,l)
);
},
{
closed = 1;
nodes = (
(454,0,l),
(454,374,ls),
(454,465,o),
(401,516,o),
(316,516,cs),
(245,516,o),
(199,480,o),
(180,414,c),
(154,414,l),
(154,312,l),
(175,312,l),
(187,413,o),
(228,468,o),
(287,468,cs),
(336,468,o),
(354,432,o),
(354,333,cs),
(354,0,l)
);
}
);
};
hints = (
{
name = _corner.rightSerif;
options = 1;
origin = (0,0);
type = Corner;
},
{
name = _corner.rightSerif;
origin = (0,2);
type = Corner;
},
{
name = _corner.leftSerif;
origin = (0,3);
type = Corner;
},
{
name = _corner.rightSerif;
origin = (1,0);
type = Corner;
},
{
name = _corner.leftSerif;
origin = (1,17);
type = Corner;
}
);
layerId = m01;
shapes = (
{
closed = 1;
nodes = (
(176,0,l),
(176,500,l),
(76,500,l),
(76,0,l)
);
},
{
closed = 1;
nodes = (
(454,0,l),
(454,354,ls),
(454,454,o),
(413,510,o),
(321,510,cs),
(250,510,o),
(200,476,o),
(180,414,c),
(154,414,l),
(154,312,l),
(175,312,l),
(187,409,o),
(225,462,o),
(287,462,cs),
(338,462,o),
(354,433,o),
(354,353,cs),
(354,0,l)
);
}
);
width = 523;
},
{
anchors = (
{
name = bottom;
pos = (223,0);
},
{
name = top;
pos = (311,500);
}
);
background = {
shapes = (
{
closed = 0;
nodes = (
(94,0,l),
(1,0,l),
(1,4,l),
(77,4,o),
(80,70,o),
(80,145,c)
);
}
);
};
hints = (
{
name = _corner.rightSerif;
options = 1;
origin = (0,0);
type = Corner;
},
{
name = _corner.rightSerif;
options = 1;
origin = (0,2);
type = Corner;
},
{
name = _corner.leftSerif;
origin = (0,3);
type = Corner;
},
{
name = _corner.rightSerif;
options = 1;
origin = (1,0);
type = Corner;
},
{
name = _corner.leftSerif;
origin = (1,17);
type = Corner;
}
);
layerId = m002;
shapes = (
{
closed = 1;
nodes = (
(135,0,l),
(223,500,l),
(123,500,l),
(35,0,l)
);
},
{
closed = 1;
nodes = (
(413,0,l),
(478,374,ls),
(494,465,o),
(450,516,o),
(365,516,cs),
(294,516,o),
(242,480,o),
(212,414,c),
(186,414,l),
(168,312,l),
(189,312,l),
(218,413,o),
(269,468,o),
(328,468,cs),
(377,468,o),
(389,432,o),
(371,333,cs),
(313,0,l)
);
}
);
width = 533;
},
{
anchors = (
{
name = bottom;
pos = (263,0);
},
{
name = lengan_n;
pos = (164,382);
},
{
name = top;
pos = (263,500);
}
);
associatedMasterId = m01;
background = {
shapes = (
{
closed = 0;
nodes = (
(90,0,l),
(-3,0,l),
(-3,4,l),
(73,4,o),
(76,70,o),
(76,145,c)
);
}
);
};
hints = (
{
name = _corner.rightSerif;
options = 1;
origin = (0,0);
type = Corner;
},
{
name = _corner.rightSerif;
origin = (0,2);
type = Corner;
},
{
name = _corner.leftSerif;
origin = (0,3);
type = Corner;
},
{
name = _corner.rightSerif;
origin = (1,0);
type = Corner;
},
{
name = _corner.leftSerif;
origin = (1,17);
type = Corner;
}
);
layerId = "C2333A42-98CA-45C1-8E0C-504B7872220D";
name = "9 Jun 23 13.25";
shapes = (
{
closed = 1;
nodes = (
(176,0,l),
(176,500,l),
(76,500,l),
(76,0,l)
);
},
{
closed = 1;
nodes = (
(454,0,l),
(454,374,ls),
(454,465,o),
(401,516,o),
(316,516,cs),
(245,516,o),
(199,480,o),
(180,414,c),
(154,414,l),
(154,312,l),
(175,312,l),
(187,413,o),
(228,468,o),
(287,468,cs),
(336,468,o),
(354,432,o),
(354,333,cs),
(354,0,l)
);
}
);
width = 523;
}
);
unicode = 110;
},
{
glyphname = o;
kernLeft = o;
kernRight = o;
lastChange = "2023-06-24 16:13:43 +0000";
layers = (
{
anchors = (
{
name = bottom;
pos = (222,0);
},
{
name = center;
pos = (222,250);
},
{
name = ogonek;
pos = (400,10);
},
{
name = top;
pos = (222,500);
},
{
name = topright;
pos = (424,500);
}
);
background = {
shapes = (
{
closed = 1;
nodes = (
(347,-16,o),
(454,81,o),
(454,248,cs),
(454,425,o),
(347,516,o),
(222,516,cs),
(97,516,o),
(-10,425,o),
(-10,248,cs),
(-10,81,o),
(97,-16,o),
(222,-16,cs)
);
},
{
closed = 1;
nodes = (
(155,14,o),
(95,79,o),
(95,249,cs),
(95,409,o),
(155,486,o),
(222,486,cs),
(289,486,o),
(349,409,o),
(349,249,cs),
(349,79,o),
(289,14,o),
(222,14,cs)
);
}
);
};
layerId = m01;
shapes = (
{
closed = 1;
nodes = (
(336,-16,o),
(434,81,o),
(434,248,cs),
(434,425,o),
(336,516,o),
(222,516,cs),
(108,516,o),
(10,425,o),
(10,248,cs),
(10,81,o),
(108,-16,o),
(222,-16,cs)
);
},
{
closed = 1;
nodes = (
(166,14,o),
(115,49,o),
(115,249,cs),
(115,439,o),
(166,486,o),
(222,486,cs),
(278,486,o),
(329,439,o),
(329,249,cs),
(329,49,o),
(278,14,o),
(222,14,cs)
);
}
);
width = 444;
},
{
anchors = (
{
name = bottom;
pos = (198,0);
},
{
name = center;
pos = (242,250);
},
{
name = ogonek;
pos = (394,10);
},
{
name = top;
pos = (286,500);
},
{
name = topright;
pos = (508,500);
}
);
background = {
shapes = (
{
pos = (-40,0);
ref = n;
}
);
};
layerId = m002;
shapes = (
{
closed = 1;
nodes = (
(320,-16,o),
(444,81,o),
(474,248,cs),
(505,425,o),
(414,516,o),
(289,516,cs),
(164,516,o),
(41,425,o),
(10,248,cs),
(-20,81,o),
(70,-16,o),
(195,-16,cs)
);
},
{
closed = 1;
nodes = (
(133,14,o),
(85,79,o),
(115,249,cs),
(143,409,o),
(217,486,o),
(284,486,cs),
(351,486,o),
(397,409,o),
(369,249,cs),
(339,79,o),
(267,14,o),
(200,14,cs)
);
}
);
width = 484;
},
{
anchors = (
{
name = bottom;
pos = (242,0);
},
{
name = center;
pos = (242,250);
},
{
name = ogonek;
pos = (444,10);
},
{
name = top;
pos = (242,500);
},
{
name = topright;
pos = (474,500);
}
);
associatedMasterId = m01;
background = {
shapes = (
{
pos = (-40,0);
ref = n;
}
);
};
layerId = "A58B87E3-78AC-4281-A519-9364725F2C48";
name = "9 Jun 23 13.25";
shapes = (
{
closed = 1;
nodes = (
(367,-16,o),
(474,81,o),
(474,248,cs),
(474,425,o),
(367,516,o),
(242,516,cs),
(117,516,o),
(10,425,o),
(10,248,cs),
(10,81,o),
(117,-16,o),
(242,-16,cs)
);
},
{
closed = 1;
nodes = (
(175,14,o),
(115,79,o),
(115,249,cs),
(115,409,o),
(175,486,o),
(242,486,cs),
(309,486,o),
(369,409,o),
(369,249,cs),
(369,79,o),
(309,14,o),
(242,14,cs)
);
}
);
width = 484;
}
);
unicode = 111;
},
{
glyphname = oslash;
kernLeft = o;
kernRight = o;
lastChange = "2023-06-24 15:27:31 +0000";
layers = (
{
anchors = (
{
name = top;
pos = (222,500);
}
);
background = {
shapes = (
{
closed = 1;
nodes = (
(367,-16,o),
(474,81,o),
(474,248,cs),
(474,425,o),
(367,516,o),
(242,516,cs),
(117,516,o),
(10,425,o),
(10,248,cs),
(10,81,o),
(117,-16,o),
(242,-16,cs)
);
},
{
closed = 1;
nodes = (
(127,-16,l),
(402,516,l),
(357,516,l),
(82,-16,l)
);
},
{
closed = 1;
nodes = (
(175,14,o),
(115,79,o),
(115,249,cs),
(115,409,o),
(175,486,o),
(242,486,cs),
(309,486,o),
(369,409,o),
(369,249,cs),
(369,79,o),
(309,14,o),
(242,14,cs)
);
}
);
};
layerId = m01;
shapes = (
{
closed = 1;
nodes = (
(127,-16,l),
(402,516,l),
(357,516,l),
(82,-16,l)
);
},
{
ref = o;
}
);
width = 444;
},
{
anchors = (
{
name = top;
pos = (286,500);
}
);
layerId = m002;
shapes = (
{
closed = 1;
nodes = (
(82,-16,l),
(457,516,l),
(407,516,l),
(32,-16,l)
);
},
{
ref = o;
}
);
width = 484;
}
);
metricLeft = o;
metricRight = o;
unicode = 248;
},
{
glyphname = oe;
kernLeft = o;
kernRight = e;
lastChange = "2023-06-24 15:27:31 +0000";
layers = (
{
anchors = (
{
name = bottom;
pos = (413,0);
},
{
name = top;
pos = (413,500);
}
);
background = {
shapes = (
{
closed = 1;
nodes = (
(325,-16,o),
(401,27,o),
(442,105,c),
(408,107,l),
(448,28,o),
(520,-16,o),
(595,-16,cs),
(728,-16,o),
(792,68,o),
(810,185,c),
(802,189,l),
(774,84,o),
(702,56,o),
(649,56,cs),
(541,56,o),
(480,146,o),
(476,272,c),
(799,272,l),
(799,409,o),
(721,516,o),
(599,516,cs),
(522,516,o),
(449,473,o),
(409,393,c),
(443,394,l),
(402,474,o),
(326,516,o),
(242,516,cs),
(117,516,o),
(10,425,o),
(10,248,cs),
(10,81,o),
(117,-16,o),
(242,-16,cs)
);
},
{
closed = 1;
nodes = (
(175,14,o),
(113,79,o),
(113,249,cs),
(113,409,o),
(175,486,o),
(242,486,cs),
(309,486,o),
(371,409,o),
(371,249,cs),
(371,79,o),
(309,14,o),
(242,14,cs)
);
},
{
closed = 1;
nodes = (
(482,433,o),
(537,486,o),
(592,486,cs),
(661,486,o),
(698,426,o),
(703,307,c),
(477,307,l)
);
}
);
};
layerId = m01;
shapes = (
{
closed = 1;
nodes = (
(325,-16,o),
(401,27,o),
(442,105,c),
(408,107,l),
(448,28,o),
(520,-16,o),
(595,-16,cs),
(728,-16,o),
(792,68,o),
(810,185,c),
(802,189,l),
(774,84,o),
(702,56,o),
(649,56,cs),
(541,56,o),
(480,146,o),
(476,272,c),
(799,272,l),
(799,409,o),
(721,516,o),
(599,516,cs),
(522,516,o),
(449,473,o),
(409,393,c),
(443,394,l),
(402,474,o),
(326,516,o),
(242,516,cs),
(117,516,o),
(10,425,o),
(10,248,cs),
(10,81,o),
(117,-16,o),
(242,-16,cs)
);
},
{
closed = 1;
nodes = (
(175,14,o),
(113,79,o),
(113,249,cs),
(113,409,o),
(175,486,o),
(242,486,cs),
(309,486,o),
(371,409,o),
(371,249,cs),
(371,79,o),
(309,14,o),
(242,14,cs)
);
},
{
closed = 1;
nodes = (
(482,433,o),
(537,486,o),
(592,486,cs),
(661,486,o),
(698,426,o),
(703,307,c),
(477,307,l)
);
}
);
width = 826;
},
{
anchors = (
{
name = bottom;
pos = (368,0);
},
{
name = top;
pos = (456,500);
}
);
layerId = m002;
shapes = (
{
closed = 1;
nodes = (
(278,-16,o),
(362,27,o),
(416,105,c),
(383,107,l),
(409,28,o),
(473,-16,o),
(548,-16,cs),
(681,-16,o),
(760,68,o),
(799,185,c),
(791,189,l),
(745,84,o),
(668,56,o),
(615,56,cs),
(507,56,o),
(462,146,o),
(480,272,c),
(803,272,l),
(827,409,o),
(768,516,o),
(646,516,cs),
(569,516,o),
(488,473,o),
(434,393,c),
(468,394,l),
(441,474,o),
(373,516,o),
(289,516,cs),
(164,516,o),
(41,425,o),
(10,248,cs),
(-20,81,o),
(70,-16,o),
(195,-16,cs)
);
},
{
closed = 1;
nodes = (
(133,14,o),
(83,79,o),
(113,249,cs),
(141,409,o),
(217,486,o),
(284,486,cs),
(351,486,o),
(399,409,o),
(371,249,cs),
(341,79,o),
(267,14,o),
(200,14,cs)
);
},
{
closed = 1;
nodes = (
(514,433,o),
(579,486,o),
(634,486,cs),
(703,486,o),
(729,426,o),
(713,307,c),
(487,307,l)
);
}
);
width = 824;
}
);
metricLeft = o;
metricRight = e;
unicode = 339;
},
{
glyphname = p;
kernLeft = p;
kernRight = o;
lastChange = "2023-06-24 15:27:31 +0000";
layers = (
{
anchors = (
{
name = bottom;
pos = (252,0);
},
{
name = top;
pos = (252,500);
}
);
background = {
hints = (
{
name = _corner.rightSerif;
origin = (0,0);
scale = (1.35,1);
type = Corner;
},
{
name = _corner.rightSerif;
origin = (0,2);
type = Corner;
},
{
name = _corner.leftSerif;
origin = (0,3);
type = Corner;
}
);
shapes = (
{
closed = 1;
nodes = (
(176,-200,l),
(176,500,l),
(76,500,l),
(76,-200,l)
);
},
{
closed = 1;
nodes = (
(435,-16,o),
(525,99,o),
(525,253,cs),
(525,435,o),
(419,516,o),
(314,516,cs),
(244,516,o),
(203,480,o),
(181,438,c),
(154,438,l),
(154,357,l),
(176,358,l),
(180,432,o),
(233,476,o),
(289,476,cs),
(362,476,o),
(420,407,o),
(420,232,cs),
(420,97,o),
(375,22,o),
(294,22,cs),
(231,22,o),
(182,67,o),
(176,128,c),
(155,128,l),
(155,37,l),
(180,37,l),
(209,7,o),
(250,-16,o),
(314,-16,cs)
);
}
);
};
hints = (
{
name = _corner.rightSerif;
origin = (0,0);
scale = (1.35,1);
type = Corner;
},
{
name = _corner.rightSerif;
origin = (0,2);
type = Corner;
},
{
name = _corner.leftSerif;
origin = (0,3);
type = Corner;
}
);
layerId = m01;
shapes = (
{
closed = 1;
nodes = (
(176,-200,l),
(176,500,l),
(76,500,l),
(76,-200,l)
);
},
{
closed = 1;
nodes = (
(422,-16,o),
(494,93,o),
(494,264,cs),
(494,455,o),
(404,516,o),
(314,516,cs),
(244,516,o),
(203,480,o),
(181,438,c),
(154,438,l),
(154,357,l),
(176,358,l),
(180,432,o),
(230,476,o),
(284,476,cs),
(343,476,o),
(389,426,o),
(389,253,cs),
(389,90,o),
(351,22,o),
(282,22,cs),
(225,22,o),
(181,67,o),
(176,128,c),
(155,128,l),
(155,37,l),
(180,37,l),
(206,7,o),
(244,-16,o),
(302,-16,cs)
);
}
);
width = 504;
},
{
anchors = (
{
name = bottom;
pos = (225,0);
},
{
name = top;
pos = (313,500);
}
);
background = {
shapes = (
{
pos = (-11,0);
ref = b;
}
);
};
hints = (
{
name = _corner.rightSerif;
options = 1;
origin = (0,0);
scale = (1.35,1);
type = Corner;
},
{
name = _corner.rightSerif;
options = 1;
origin = (0,2);
type = Corner;
},
{
name = _corner.leftSerif;
origin = (0,3);
type = Corner;
}
);
layerId = m002;
shapes = (
{
closed = 1;
nodes = (
(100,-200,l),
(223,500,l),
(123,500,l),
(0,-200,l)
);
},
{
closed = 1;
nodes = (
(391,-16,o),
(502,99,o),
(529,253,cs),
(561,435,o),
(469,516,o),
(364,516,cs),
(294,516,o),
(247,480,o),
(217,438,c),
(190,438,l),
(176,357,l),
(198,358,l),
(215,432,o),
(276,476,o),
(332,476,cs),
(405,476,o),
(451,407,o),
(420,232,cs),
(396,97,o),
(338,22,o),
(257,22,cs),
(194,22,o),
(153,67,o),
(158,128,c),
(137,128,l),
(121,37,l),
(146,37,l),
(169,7,o),
(206,-16,o),
(270,-16,cs)
);
}
);
width = 538;
}
);
metricLeft = n;
metricRight = o;
unicode = 112;
},
{
glyphname = thorn;
kernLeft = l;
kernRight = o;
lastChange = "2023-06-24 15:27:31 +0000";
layers = (
{
anchors = (
{
name = bottom;
pos = (261,0);
},
{
name = top;
pos = (261,500);
}
);
hints = (
{
name = _corner.rightSerif;
origin = (0,0);
type = Corner;
},
{
name = _corner.rightSerif;
origin = (0,2);
type = Corner;
},
{
name = _corner.leftSerif;
origin = (0,3);
type = Corner;
},
{
name = _corner.leftSerif;
origin = (0,1);
type = Corner;
}
);
layerId = m01;
shapes = (
{
closed = 1;
nodes = (
(174,-200,l),
(174,700,l),
(74,700,l),
(74,-200,l)
);
},
{
closed = 1;
nodes = (
(382,-16,o),
(512,60,o),
(512,253,cs),
(512,435,o),
(397,516,o),
(292,516,cs),
(245,516,o),
(184,486,o),
(162,444,c),
(162,408,l),
(196,456,o),
(244,476,o),
(272,476,cs),
(345,476,o),
(407,407,o),
(407,232,cs),
(407,88,o),
(357,22,o),
(281,22,cs),
(235,22,o),
(190,49,o),
(174,139,c),
(153,139,l),
(153,37,l),
(163,37,l),
(204,0,o),
(238,-16,o),
(292,-16,cs)
);
}
);
width = 522;
},
{
anchors = (
{
name = bottom;
pos = (217,0);
},
{
name = top;
pos = (305,500);
}
);
hints = (
{
name = _corner.rightSerif;
options = 1;
origin = (0,0);
type = Corner;
},
{
name = _corner.rightSerif;
options = 1;
origin = (0,2);
type = Corner;
},
{
name = _corner.leftSerif;
origin = (0,3);
type = Corner;
},
{
name = _corner.leftSerif;
origin = (0,1);
type = Corner;
}
);
layerId = m002;
shapes = (
{
closed = 1;
nodes = (
(95,-200,l),
(253,700,l),
(153,700,l),
(-5,-200,l)
);
},
{
closed = 1;
nodes = (
(335,-16,o),
(478,60,o),
(513,253,cs),
(545,435,o),
(444,516,o),
(339,516,cs),
(292,516,o),
(226,486,o),
(196,444,c),
(190,408,l),
(232,456,o),
(284,476,o),
(312,476,cs),
(385,476,o),
(435,407,o),
(404,232,cs),
(378,88,o),
(317,22,o),
(241,22,cs),
(195,22,o),
(155,49,o),
(154,139,c),
(133,139,l),
(115,37,l),
(125,37,l),
(160,0,o),
(191,-16,o),
(245,-16,cs)
);
}
);
width = 522;
}
);
metricRight = o;
unicode = 254;
},
{
glyphname = q;
kernLeft = o;
kernRight = q;
lastChange = "2023-06-24 15:27:31 +0000";
layers = (
{
anchors = (
{
name = bottom;
pos = (249,0);
},
{
name = top;
pos = (249,500);
}
);
background = {
shapes = (
{
angle = 180;
pos = (501,516);
ref = b;
}
);
};
hints = (
{
name = _corner.leftSerif;
origin = (0,33);
type = Corner;
},
{
name = _corner.rightSerif;
options = 1;
origin = (0,0);
type = Corner;
}
);
layerId = m01;
shapes = (
{
closed = 1;
nodes = (
(426,-200,l),
(426,516,l),
(405,516,l),
(390,492,o),
(378,486,o),
(349,486,cs),
(306,486,o),
(286,516,o),
(215,516,cs),
(109,516,o),
(10,435,o),
(10,247,cs),
(10,72,o),
(105,-16,o),
(204,-16,cs),
(265,-16,o),
(304,19,o),
(323,82,c),
(364,82,l),
(364,167,l),
(326,167,l),
(318,67,o),
(282,31,o),
(237,31,cs),
(174,31,o),
(115,100,o),
(115,250,cs),
(115,403,o),
(176,484,o),
(242,484,cs),
(293,484,o),
(326,432,o),
(326,353,cs),
(326,-200,l)
);
}
);
width = 498;
},
{
anchors = (
{
name = bottom;
pos = (198,0);
},
{
name = top;
pos = (286,500);
}
);
background = {
shapes = (
{
angle = 180;
pos = (484,516);
ref = b;
}
);
};
hints = (
{
name = _corner.leftSerif;
origin = (0,33);
type = Corner;
},
{
name = _corner.rightSerif;
options = 1;
origin = (0,0);
type = Corner;
}
);
layerId = m002;
shapes = (
{
closed = 1;
nodes = (
(346,-200,l),
(472,516,l),
(470,516,l),
(445,492,o),
(427,486,o),
(400,486,cs),
(340,486,o),
(325,516,o),
(261,516,cs),
(155,516,o),
(42,435,o),
(9,247,cs),
(-22,72,o),
(57,-16,o),
(156,-16,cs),
(217,-16,o),
(262,19,o),
(293,82,c),
(334,82,l),
(349,167,l),
(311,167,l),
(285,67,o),
(243,31,o),
(198,31,cs),
(135,31,o),
(88,100,o),
(114,250,cs),
(141,403,o),
(216,484,o),
(282,484,cs),
(333,484,o),
(357,432,o),
(343,353,cs),
(246,-200,l)
);
}
);
width = 484;
}
);
metricLeft = o;
unicode = 113;
},
{
glyphname = r;
kernLeft = n;
kernRight = r;
lastChange = "2023-06-24 15:27:31 +0000";
layers = (
{
anchors = (
{
name = bottom;
pos = (196,0);
},
{
name = top;
pos = (196,500);
}
);
background = {
shapes = (
{
pos = (2,0);
ref = n;
}
);
};
hints = (
{
name = _corner.rightSerif;
origin = (1,0);
type = Corner;
},
{
name = _corner.rightSerif;
origin = (1,2);
type = Corner;
},
{
name = _corner.leftSerif;
origin = (1,3);
type = Corner;
}
);
layerId = m01;
shapes = (
{
closed = 1;
nodes = (
(176,311,l),
(186,408,o),
(219,449,o),
(253,449,cs),
(287,449,o),
(303,408,o),
(339,408,cs),
(365,408,o),
(383,430,o),
(383,458,cs),
(383,494,o),
(354,516,o),
(311,516,cs),
(259,516,o),
(210,484,o),
(181,414,c),
(154,414,l),
(154,311,l)
);
},
{
closed = 1;
nodes = (
(176,0,l),
(176,500,l),
(76,500,l),
(76,0,l)
);
}
);
width = 391;
},
{
anchors = (
{
name = bottom;
pos = (154,0);
},
{
name = top;
pos = (242,500);
}
);
background = {
shapes = (
{
pos = (6,0);
ref = n;
}
);
};
hints = (
{
name = _corner.rightSerif;
options = 1;
origin = (1,0);
type = Corner;
},
{
name = _corner.rightSerif;
options = 1;
origin = (1,2);
type = Corner;
},
{
name = _corner.leftSerif;
origin = (1,3);
type = Corner;
}
);
layerId = m002;
shapes = (
{
closed = 1;
nodes = (
(189,311,l),
(216,408,o),
(257,449,o),
(291,449,cs),
(325,449,o),
(333,408,o),
(369,408,cs),
(395,408,o),
(417,430,o),
(422,458,cs),
(429,494,o),
(403,516,o),
(360,516,cs),
(308,516,o),
(254,484,o),
(213,414,c),
(186,414,l),
(167,311,l)
);
},
{
closed = 1;
nodes = (
(135,0,l),
(223,500,l),
(123,500,l),
(35,0,l)
);
}
);
width = 395;
}
);
metricLeft = n;
unicode = 114;
},
{
glyphname = s;
kernLeft = s;
kernRight = s;
lastChange = "2023-06-24 15:27:31 +0000";
layers = (
{
anchors = (
{
name = bottom;
pos = (203,0);
},
{
name = top;
pos = (203,500);
}
);
background = {
shapes = (
{
closed = 1;
nodes = (
(302,-16,o),
(377,43,o),
(377,141,cs),
(377,245,o),
(294,288,o),
(219,322,cs),
(158,350,o),
(103,373,o),
(103,420,cs),
(103,457,o),
(136,487,o),
(188,487,cs),
(249,487,o),
(297,446,o),
(329,363,c),
(338,363,l),
(356,479,l),
(321,503,o),
(260,516,o),
(199,516,cs),
(97,516,o),
(33,462,o),
(33,373,cs),
(33,284,o),
(101,246,o),
(170,214,cs),
(238,182,o),
(306,156,o),
(306,95,cs),
(306,53,o),
(275,16,o),
(217,16,cs),
(145,16,o),
(80,74,o),
(49,171,c),
(40,171,l),
(20,42,l),
(61,9,o),
(119,-16,o),
(190,-16,cs)
);
}
);
};
layerId = m01;
shapes = (
{
closed = 1;
nodes = (
(296,-16,o),
(377,31,o),
(377,141,cs),
(377,332,o),
(120,311,o),
(120,424,cs),
(120,457,o),
(143,487,o),
(197,487,cs),
(254,487,o),
(295,446,o),
(324,363,c),
(345,363,l),
(363,479,l),
(328,502,o),
(266,516,o),
(208,516,cs),
(108,516,o),
(50,462,o),
(50,373,cs),
(50,191,o),
(306,223,o),
(306,95,cs),
(306,46,o),
(270,16,o),
(216,16,cs),
(144,16,o),
(97,74,o),
(71,171,c),
(50,171,l),
(30,42,l),
(71,9,o),
(129,-16,o),
(200,-16,cs)
);
}
);
width = 405;
},
{
anchors = (
{
name = bottom;
pos = (191,0);
},
{
name = top;
pos = (191,500);
}
);
associatedMasterId = m01;
background = {
shapes = (
{
pos = (-80,0);
ref = n;
}
);
};
layerId = "7D495647-79B8-4F3B-BCDE-E5971523B256";
name = "12 Nov 22 20.21";
shapes = (
{
closed = 1;
nodes = (
(303,-16,o),
(372,43,o),
(372,141,cs),
(372,320,o),
(98,340,o),
(98,423,cs),
(98,457,o),
(131,487,o),
(190,487,cs),
(244,487,o),
(292,446,o),
(324,363,c),
(333,363,l),
(351,479,l),
(320,503,o),
(267,516,o),
(213,516,cs),
(99,516,o),
(28,462,o),
(28,384,cs),
(28,226,o),
(301,210,o),
(301,96,cs),
(301,53,o),
(270,16,o),
(204,16,cs),
(140,16,o),
(75,74,o),
(44,171,c),
(35,171,l),
(15,42,l),
(54,9,o),
(111,-16,o),
(196,-16,cs)
);
}
);
width = 382;
},
{
anchors = (
{
name = bottom;
pos = (150,0);
},
{
name = top;
pos = (238,500);
}
);
background = {
shapes = (
{
closed = 1;
nodes = (
(244,-16,o),
(330,43,o),
(347,141,cs),
(365,245,o),
(290,288,o),
(221,322,cs),
(165,350,o),
(114,373,o),
(122,420,cs),
(128,457,o),
(167,487,o),
(219,487,cs),
(280,487,o),
(321,446,o),
(338,363,c),
(347,363,l),
(385,479,l),
(355,503,o),
(296,516,o),
(235,516,cs),
(133,516,o),
(59,462,o),
(44,373,cs),
(28,284,o),
(89,246,o),
(153,214,cs),
(215,182,o),
(278,156,o),
(268,95,cs),
(260,53,o),
(223,16,o),
(165,16,cs),
(93,16,o),
(38,74,o),
(24,171,c),
(15,171,l),
(-28,42,l),
(8,9,o),
(61,-16,o),
(132,-16,cs)
);
}
);
};
layerId = m002;
shapes = (
{
closed = 1;
nodes = (
(242,-16,o),
(331,31,o),
(351,141,cs),
(384,332,o),
(124,311,o),
(144,424,cs),
(149,457,o),
(178,487,o),
(232,487,cs),
(289,487,o),
(323,446,o),
(337,363,c),
(358,363,l),
(396,479,l),
(365,502,o),
(306,516,o),
(248,516,cs),
(148,516,o),
(80,462,o),
(65,373,cs),
(33,191,o),
(294,223,o),
(272,95,cs),
(263,46,o),
(222,16,o),
(168,16,cs),
(96,16,o),
(59,74,o),
(50,171,c),
(29,171,l),
(-14,42,l),
(22,9,o),
(75,-16,o),
(146,-16,cs)
);
}
);
width = 388;
},
{
anchors = (
{
name = bottom;
pos = (191,0);
},
{
name = top;
pos = (191,500);
}
);
associatedMasterId = m002;
background = {
shapes = (
{
pos = (-80,0);
ref = n;
}
);
};
layerId = "C30F92A0-1F3A-456C-9F76-FDFA4B36DF58";
name = "12 Nov 22 20.21";
shapes = (
{
closed = 1;
nodes = (
(303,-16,o),
(372,43,o),
(372,141,cs),
(372,320,o),
(98,340,o),
(98,423,cs),
(98,457,o),
(131,487,o),
(190,487,cs),
(244,487,o),
(292,446,o),
(324,363,c),
(333,363,l),
(351,479,l),
(320,503,o),
(267,516,o),
(213,516,cs),
(99,516,o),
(28,462,o),
(28,384,cs),
(28,226,o),
(301,210,o),
(301,96,cs),
(301,53,o),
(270,16,o),
(204,16,cs),
(140,16,o),
(75,74,o),
(44,171,c),
(35,171,l),
(15,42,l),
(54,9,o),
(111,-16,o),
(196,-16,cs)
);
}
);
width = 382;
}
);
unicode = 115;
},
{
glyphname = saltillo;
kernLeft = saltillo;
kernRight = saltillo;
lastChange = "2023-05-28 12:58:00 +0000";
layers = (
{
layerId = m01;
shapes = (
{
closed = 1;
nodes = (
(68,383,l),
(86,516,ls),
(102,637,o),
(105,718,o),
(64,718,cs),
(23,718,o),
(25,637,o),
(41,516,cs),
(59,383,l)
);
}
);
width = 127;
},
{
layerId = m002;
shapes = (
{
closed = 1;
nodes = (
(48,383,l),
(90,516,ls),
(127,637,o),
(145,718,o),
(104,718,cs),
(63,718,o),
(50,637,o),
(45,516,cs),
(39,383,l)
);
}
);
width = 147;
}
);
unicode = 42892;
},
{
glyphname = germandbls;
kernLeft = germandbls;
kernRight = germandbls;
lastChange = "2023-06-24 15:27:31 +0000";
layers = (
{
anchors = (
{
name = bottom;
pos = (302,0);
},
{
name = top;
pos = (302,800);
}
);
hints = (
{
name = _corner.leftSerif.Upper;
origin = (0,17);
type = Corner;
}
);
layerId = m01;
shapes = (
{
closed = 1;
nodes = (
(282,0,ls),
(507,0,o),
(582,98,o),
(582,204,cs),
(582,313,o),
(495,390,o),
(398,405,c),
(398,408,l),
(488,422,o),
(526,478,o),
(526,546,cs),
(526,640,o),
(455,700,o),
(314,700,cs),
(178,700,o),
(84,634,o),
(84,470,cs),
(84,0,l),
(109,0,ls),
(155,0,o),
(189,33,o),
(189,110,cs),
(189,500,ls),
(189,622,o),
(246,659,o),
(314,659,cs),
(378,659,o),
(416,621,o),
(416,548,cs),
(416,492,o),
(395,427,o),
(280,427,cs),
(265,427,ls),
(246,427,o),
(241,415,o),
(241,406,cs),
(241,398,o),
(247,387,o),
(265,387,cs),
(311,387,ls),
(413,387,o),
(472,319,o),
(472,218,cs),
(472,112,o),
(425,43,o),
(312,29,cs),
(239,20,l),
(239,0,l)
);
},
{
closed = 1;
nodes = (
(94,465,l),
(94,527,l),
(32,500,l),
(32,465,l)
);
}
);
width = 604;
},
{
anchors = (
{
name = bottom;
pos = (256,0);
},
{
name = top;
pos = (397,800);
}
);
hints = (
{
name = _corner.leftSerif.Upper;
origin = (0,17);
type = Corner;
}
);
layerId = m002;
shapes = (
{
closed = 1;
nodes = (
(240,0,ls),
(465,0,o),
(558,98,o),
(579,218,cs),
(595,313,o),
(551,398,o),
(446,405,c),
(446,408,l),
(539,422,o),
(572,490,o),
(581,539,cs),
(597,633,o),
(537,700,o),
(396,700,cs),
(260,700,o),
(154,634,o),
(125,470,cs),
(42,0,l),
(67,0,ls),
(113,0,o),
(154,33,o),
(167,110,cs),
(235,500,ls),
(256,622,o),
(320,659,o),
(388,659,cs),
(452,659,o),
(484,621,o),
(471,548,cs),
(460,485,o),
(429,427,o),
(314,427,cs),
(299,427,ls),
(280,427,o),
(271,418,o),
(271,408,cs),
(271,401,o),
(274,387,o),
(298,387,cs),
(338,387,ls),
(440,387,o),
(487,319,o),
(469,218,cs),
(450,112,o),
(391,43,o),
(275,29,cs),
(201,20,l),
(197,0,l)
);
},
{
closed = 1;
nodes = (
(134,465,l),
(145,527,l),
(79,500,l),
(72,465,l)
);
}
);
width = 599;
}
);
unicode = 223;
},
{
glyphname = t;
kernLeft = t;
kernRight = t;
lastChange = "2023-06-24 16:02:29 +0000";
layers = (
{
anchors = (
{
name = bottom;
pos = (168,0);
},
{
name = center;
pos = (168,250);
},
{
name = top;
pos = (168,500);
},
{
name = topright;
pos = (223,800);
}
);
background = {
shapes = (
{
pos = (-148,0);
ref = a;
}
);
};
layerId = m01;
shapes = (
{
closed = 1;
nodes = (
(275,-16,o),
(317,31,o),
(317,104,c),
(307,104,l),
(307,74,o),
(281,49,o),
(248,49,cs),
(206,49,o),
(180,74,o),
(180,140,cs),
(180,660,l),
(159,660,l),
(130,576,o),
(80,511,o),
(10,500,c),
(10,464,l),
(80,464,l),
(80,160,ls),
(80,23,o),
(135,-16,o),
(210,-16,cs)
);
},
{
closed = 1;
nodes = (
(309,465,l),
(309,500,l),
(115,500,l),
(115,465,l)
);
}
);
width = 336;
},
{
anchors = (
{
name = bottom;
pos = (126,0);
},
{
name = center;
pos = (170,250);
},
{
name = top;
pos = (214,500);
},
{
name = topright;
pos = (417,800);
}
);
background = {
shapes = (
{
pos = (-137,0);
ref = a;
}
);
};
layerId = m002;
shapes = (
{
closed = 1;
nodes = (
(226,-16,o),
(277,31,o),
(290,104,c),
(280,104,l),
(274,74,o),
(244,49,o),
(211,49,cs),
(169,49,o),
(147,74,o),
(159,140,cs),
(251,660,l),
(230,660,l),
(186,576,o),
(124,511,o),
(52,500,c),
(46,464,l),
(116,464,l),
(62,160,ls),
(38,23,o),
(86,-16,o),
(161,-16,cs)
);
},
{
closed = 1;
nodes = (
(360,465,l),
(369,500,l),
(157,500,l),
(151,465,l)
);
}
);
width = 340;
}
);
unicode = 116;
},
{
glyphname = u;
kernLeft = u;
kernRight = n;
lastChange = "2023-06-24 15:46:42 +0000";
layers = (
{
anchors = (
{
name = bottom;
pos = (259,0);
},
{
name = ogonek;
pos = (466,18);
},
{
name = top;
pos = (259,500);
},
{
name = topright;
pos = (498,500);
}
);
hints = (
{
name = _corner.rightSerif;
origin = (1,6);
type = Corner;
},
{
name = _corner.rightSerif;
origin = (0,13);
type = Corner;
}
);
layerId = m01;
shapes = (
{
closed = 1;
nodes = (
(275,-16,o),
(321,20,o),
(340,86,c),
(366,86,l),
(366,188,l),
(345,188,l),
(333,87,o),
(292,32,o),
(233,32,cs),
(184,32,o),
(166,68,o),
(166,167,cs),
(166,500,l),
(66,500,l),
(66,126,ls),
(66,35,o),
(119,-16,o),
(204,-16,cs)
);
},
{
closed = 1;
nodes = (
(503,3,l),
(503,24,l),
(458,30,o),
(444,50,o),
(444,115,c),
(444,500,l),
(344,500,l),
(344,0,l)
);
}
);
width = 518;
},
{
anchors = (
{
name = bottom;
pos = (216,0);
},
{
name = ogonek;
pos = (426,10);
},
{
name = top;
pos = (304,500);
},
{
name = topright;
pos = (544,500);
}
);
hints = (
{
name = _corner.rightSerif;
options = 1;
origin = (1,6);
type = Corner;
},
{
name = _corner.rightSerif;
options = 1;
origin = (0,13);
type = Corner;
}
);
layerId = m002;
shapes = (
{
closed = 1;
nodes = (
(232,-16,o),
(284,20,o),
(314,86,c),
(340,86,l),
(358,188,l),
(337,188,l),
(308,87,o),
(257,32,o),
(198,32,cs),
(149,32,o),
(137,68,o),
(155,167,cs),
(213,500,l),
(113,500,l),
(48,126,ls),
(32,35,o),
(76,-16,o),
(161,-16,cs)
);
},
{
closed = 1;
nodes = (
(463,3,l),
(467,24,l),
(423,30,o),
(412,50,o),
(424,115,c),
(491,500,l),
(391,500,l),
(303,0,l)
);
}
);
width = 520;
}
);
unicode = 117;
},
{
glyphname = v;
kernLeft = v;
kernRight = v;
lastChange = "2023-06-29 13:48:55 +0000";
layers = (
{
anchors = (
{
name = bottom;
pos = (268,0);
},
{
name = top;
pos = (268,500);
}
);
background = {
shapes = (
{
pos = (-13,0);
ref = n;
}
);
};
hints = (
{
name = _corner.rightSerif;
origin = (0,5);
scale = (1.4,-1);
type = Corner;
},
{
name = _corner.leftSerif;
options = 1;
origin = (0,6);
scale = (1,-1);
type = Corner;
},
{
name = _corner.rightSerif;
options = 1;
origin = (0,2);
scale = (-1.4,-1);
type = Corner;
},
{
name = _corner.leftSerif;
origin = (0,1);
scale = (-1,-1);
type = Corner;
}
);
layerId = m01;
shapes = (
{
closed = 1;
nodes = (
(302,0,l),
(482,500,l),
(442,500,l),
(296,90,l),
(329,90,l),
(152,500,l),
(52,500,l),
(262,0,l)
);
}
);
width = 536;
},
{
anchors = (
{
name = bottom;
pos = (224,0);
},
{
name = top;
pos = (312,500);
}
);
background = {
shapes = (
{
pos = (-9,0);
ref = n;
}
);
};
hints = (
{
name = _corner.rightSerif;
origin = (0,5);
scale = (1.4,-1);
type = Corner;
},
{
name = _corner.leftSerif;
options = 1;
origin = (0,6);
scale = (1,-1);
type = Corner;
},
{
name = _corner.rightSerif;
options = 1;
origin = (0,2);
scale = (-1.4,-1);
type = Corner;
},
{
name = _corner.leftSerif;
origin = (0,1);
scale = (-1,-1);
type = Corner;
}
);
layerId = m002;
shapes = (
{
closed = 1;
nodes = (
(262,0,l),
(530,500,l),
(490,500,l),
(272,90,l),
(305,90,l),
(200,500,l),
(100,500,l),
(222,0,l)
);
}
);
width = 536;
}
);
unicode = 118;
},
{
glyphname = w;
kernLeft = v;
kernRight = v;
lastChange = "2023-06-24 15:27:31 +0000";
layers = (
{
anchors = (
{
name = bottom;
pos = (398,0);
},
{
name = top;
pos = (398,500);
}
);
hints = (
{
name = _corner.rightSerif;
origin = (0,15);
scale = (1.4,-1);
type = Corner;
},
{
name = _corner.leftSerif;
options = 1;
origin = (0,16);
scale = (1,-1);
type = Corner;
},
{
name = _corner.rightSerif;
origin = (0,9);
scale = (1.5,-1);
type = Corner;
},
{
name = _corner.leftSerif;
options = 1;
origin = (0,10);
scale = (1,-1);
type = Corner;
},
{
name = _corner.rightSerif;
options = 1;
origin = (0,6);
scale = (-1.4,-1);
type = Corner;
},
{
name = _corner.leftSerif;
origin = (0,5);
scale = (-1,-1);
type = Corner;
}
);
layerId = m01;
shapes = (
{
closed = 1;
nodes = (
(302,0,l),
(417,330,l),
(402,330,l),
(522,0,l),
(562,0,l),
(742,500,l),
(702,500,l),
(558,96,l),
(586,95,l),
(452,500,l),
(352,500,l),
(400,342,l),
(400,388,l),
(297,92,l),
(329,92,l),
(152,500,l),
(52,500,l),
(262,0,l)
);
}
);
width = 796;
},
{
anchors = (
{
name = bottom;
pos = (354,0);
},
{
name = top;
pos = (442,500);
}
);
hints = (
{
name = _corner.rightSerif;
origin = (0,15);
scale = (1.4,-1);
type = Corner;
},
{
name = _corner.leftSerif;
options = 1;
origin = (0,16);
scale = (1,-1);
type = Corner;
},
{
name = _corner.rightSerif;
origin = (0,9);
scale = (1.5,-1);
type = Corner;
},
{
name = _corner.leftSerif;
options = 1;
origin = (0,10);
scale = (1,-1);
type = Corner;
},
{
name = _corner.rightSerif;
options = 1;
origin = (0,6);
scale = (-1.4,-1);
type = Corner;
},
{
name = _corner.leftSerif;
origin = (0,5);
scale = (-1,-1);
type = Corner;
}
);
layerId = m002;
shapes = (
{
closed = 1;
nodes = (
(262,0,l),
(435,330,l),
(420,330,l),
(482,0,l),
(522,0,l),
(790,500,l),
(750,500,l),
(535,96,l),
(563,95,l),
(500,500,l),
(400,500,l),
(420,342,l),
(428,388,l),
(273,92,l),
(305,92,l),
(200,500,l),
(100,500,l),
(222,0,l)
);
}
);
width = 796;
}
);
metricLeft = v;
metricRight = v;
unicode = 119;
},
{
glyphname = x;
kernLeft = x;
kernRight = x;
lastChange = "2023-06-29 13:49:22 +0000";
layers = (
{
anchors = (
{
name = bottom;
pos = (267,0);
},
{
name = top;
pos = (267,500);
}
);
hints = (
{
name = _corner.rightSerif;
options = 1;
origin = (0,0);
type = Corner;
},
{
name = _corner.rightSerif;
options = 1;
origin = (0,2);
type = Corner;
},
{
name = _corner.leftSerif;
origin = (0,3);
type = Corner;
},
{
name = _corner.leftSerif;
origin = (0,1);
type = Corner;
},
{
name = _corner.rightSerif;
origin = (1,3);
scale = (-1.24,1);
type = Corner;
},
{
name = _corner.leftSerif;
options = 1;
origin = (2,1);
scale = (-1,1);
type = Corner;
},
{
name = _corner.rightSerif;
origin = (2,0);
scale = (-1,1);
type = Corner;
},
{
name = _corner.leftSerif;
options = 1;
origin = (1,0);
scale = (-1,1);
type = Corner;
}
);
layerId = m01;
shapes = (
{
closed = 1;
nodes = (
(479,0,l),
(174,500,l),
(63,500,l),
(368,0,l)
);
},
{
closed = 1;
nodes = (
(106,0,l),
(262,240,l),
(241,268,l),
(67,0,l)
);
},
{
closed = 1;
nodes = (
(461,500,l),
(422,500,l),
(271,268,l),
(292,240,l)
);
}
);
width = 533;
},
{
anchors = (
{
name = bottom;
pos = (226,0);
},
{
name = top;
pos = (314,500);
}
);
hints = (
{
name = _corner.rightSerif;
options = 1;
origin = (0,0);
type = Corner;
},
{
name = _corner.rightSerif;
options = 1;
origin = (0,2);
type = Corner;
},
{
name = _corner.leftSerif;
origin = (0,3);
type = Corner;
},
{
name = _corner.leftSerif;
origin = (0,1);
type = Corner;
},
{
name = _corner.rightSerif;
origin = (1,3);
scale = (-1.24,1);
type = Corner;
},
{
name = _corner.leftSerif;
options = 1;
origin = (2,1);
scale = (-1,1);
type = Corner;
},
{
name = _corner.rightSerif;
origin = (2,0);
scale = (-1,1);
type = Corner;
},
{
name = _corner.leftSerif;
options = 1;
origin = (1,0);
scale = (-1,1);
type = Corner;
}
);
layerId = m002;
shapes = (
{
closed = 1;
nodes = (
(436,0,l),
(219,500,l),
(108,500,l),
(325,0,l)
);
},
{
closed = 1;
nodes = (
(63,0,l),
(261,240,l),
(245,268,l),
(24,0,l)
);
},
{
closed = 1;
nodes = (
(506,500,l),
(467,500,l),
(275,268,l),
(291,240,l)
);
}
);
width = 539;
}
);
unicode = 120;
},
{
glyphname = y;
kernLeft = v;
kernRight = v;
lastChange = "2023-06-24 15:27:31 +0000";
layers = (
{
anchors = (
{
name = bottom;
pos = (268,0);
},
{
name = top;
pos = (268,500);
}
);
background = {
shapes = (
{
closed = 1;
nodes = (
(317,-55,o),
(338,7,c),
(321,7,l),
(301,-50,o),
(231,-164,o),
(186,-164,cs),
(167,-164,o),
(157,-140,o),
(129,-140,cs),
(107,-140,o),
(92,-154,o),
(92,-177,cs),
(92,-198,o),
(115,-216,o),
(142,-216,cs),
(224,-216,o)
);
}
);
};
hints = (
{
name = _corner.rightSerif;
origin = (0,5);
scale = (1.4,-1);
type = Corner;
},
{
name = _corner.leftSerif;
options = 1;
origin = (0,6);
scale = (1,-1);
type = Corner;
},
{
name = _corner.rightSerif;
options = 1;
origin = (0,2);
scale = (-1.4,-1);
type = Corner;
},
{
name = _corner.leftSerif;
origin = (0,1);
scale = (-1,-1);
type = Corner;
}
);
layerId = m01;
shapes = (
{
closed = 1;
nodes = (
(302,0,l),
(482,500,l),
(442,500,l),
(296,90,l),
(329,90,l),
(152,500,l),
(52,500,l),
(262,0,l)
);
},
{
closed = 1;
nodes = (
(258,-120,o),
(302,0,c),
(295,17,l),
(274,17,l),
(262,0,l),
(247,-55,o),
(192,-145,o),
(153,-145,cs),
(119,-145,o),
(113,-112,o),
(69,-112,cs),
(41,-112,o),
(22,-132,o),
(22,-159,cs),
(22,-193,o),
(48,-216,o),
(105,-216,cs),
(183,-216,o)
);
}
);
width = 536;
},
{
anchors = (
{
name = bottom;
pos = (224,0);
},
{
name = top;
pos = (312,500);
}
);
background = {
shapes = (
{
closed = 1;
nodes = (
(302,-55,o),
(323,7,c),
(306,7,l),
(286,-50,o),
(216,-164,o),
(171,-164,cs),
(152,-164,o),
(142,-140,o),
(114,-140,cs),
(92,-140,o),
(77,-154,o),
(77,-177,cs),
(77,-198,o),
(100,-216,o),
(127,-216,cs),
(209,-216,o)
);
}
);
};
hints = (
{
name = _corner.rightSerif;
origin = (0,5);
scale = (1.4,-1);
type = Corner;
},
{
name = _corner.leftSerif;
options = 1;
origin = (0,6);
scale = (1,-1);
type = Corner;
},
{
name = _corner.rightSerif;
options = 1;
origin = (0,2);
scale = (-1.4,-1);
type = Corner;
},
{
name = _corner.leftSerif;
origin = (0,1);
scale = (-1,-1);
type = Corner;
}
);
layerId = m002;
shapes = (
{
closed = 1;
nodes = (
(262,0,l),
(530,500,l),
(490,500,l),
(272,90,l),
(305,90,l),
(200,500,l),
(100,500,l),
(222,0,l)
);
},
{
closed = 1;
nodes = (
(197,-120,o),
(262,0,c),
(258,17,l),
(237,17,l),
(222,0,l),
(197,-55,o),
(126,-145,o),
(87,-145,cs),
(53,-145,o),
(53,-112,o),
(9,-112,cs),
(-19,-112,o),
(-41,-132,o),
(-46,-159,cs),
(-52,-193,o),
(-30,-216,o),
(27,-216,cs),
(105,-216,o)
);
}
);
width = 536;
}
);
metricLeft = v;
metricRight = v;
unicode = 121;
},
{
glyphname = z;
kernLeft = z;
kernRight = z;
lastChange = "2023-06-24 15:27:31 +0000";
layers = (
{
anchors = (
{
name = bottom;
pos = (203,0);
},
{
name = center;
pos = (203,250);
},
{
name = top;
pos = (203,500);
}
);
hints = (
{
name = _corner.FSerif;
options = 1;
origin = (2,3);
scale = (-0.8,0.8);
type = Corner;
},
{
name = _corner.FSerif;
options = 1;
origin = (1,1);
scale = (-0.8,0.8);
type = Corner;
}
);
layerId = m01;
shapes = (
{
closed = 1;
nodes = (
(121,0,l),
(385,481,l),
(385,500,l),
(288,500,l),
(13,15,l),
(13,0,l)
);
},
{
closed = 1;
nodes = (
(356,0,l),
(364,35,l),
(91,35,l),
(91,0,l)
);
},
{
closed = 1;
nodes = (
(323,465,l),
(323,500,l),
(71,500,l),
(63,465,l)
);
}
);
width = 405;
},
{
anchors = (
{
name = bottom;
pos = (165,0);
},
{
name = center;
pos = (209,250);
},
{
name = top;
pos = (253,500);
}
);
hints = (
{
name = _corner.FSerif;
options = 1;
origin = (2,3);
scale = (-0.8,0.8);
type = Corner;
},
{
name = _corner.FSerif;
options = 1;
origin = (1,1);
scale = (-0.8,0.8);
type = Corner;
}
);
layerId = m002;
shapes = (
{
closed = 1;
nodes = (
(87,0,l),
(436,481,l),
(439,500,l),
(342,500,l),
(-18,15,l),
(-21,0,l)
);
},
{
closed = 1;
nodes = (
(322,0,l),
(336,35,l),
(63,35,l),
(57,0,l)
);
},
{
closed = 1;
nodes = (
(371,465,l),
(377,500,l),
(125,500,l),
(111,465,l)
);
}
);
width = 418;
}
);
unicode = 122;
},
{
glyphname = a.ss01;
kernLeft = a;
kernRight = n;
lastChange = "2023-06-12 06:41:22 +0000";
layers = (
{
anchors = (
{
name = bottom;
pos = (241,0);
},
{
name = ogonek;
pos = (449,10);
},
{
name = top;
pos = (241,500);
}
);
layerId = m01;
shapes = (
{
closed = 1;
nodes = (
(437,-16,o),
(467,35,o),
(467,104,c),
(460,104,l),
(460,74,o),
(445,59,o),
(431,59,cs),
(417,59,o),
(410,74,o),
(410,100,cs),
(410,370,ls),
(410,468,o),
(344,516,o),
(226,516,cs),
(165,516,o),
(104,503,o),
(69,479,c),
(87,363,l),
(96,363,l),
(128,446,o),
(172,480,o),
(227,480,cs),
(271,480,o),
(310,458,o),
(310,370,cs),
(310,175,l),
(316,123,l),
(316,70,ls),
(316,15,o),
(336,-16,o),
(380,-16,cs)
);
},
{
closed = 1;
nodes = (
(234,-16,o),
(295,57,o),
(311,115,c),
(326,115,l),
(326,242,l),
(310,242,l),
(308,149,o),
(259,33,o),
(184,33,cs),
(145,33,o),
(117,66,o),
(117,115,cs),
(117,220,o),
(240,278,o),
(329,278,c),
(328,315,l),
(224,315,o),
(16,234,o),
(16,99,cs),
(16,29,o),
(72,-16,o),
(143,-16,cs)
);
},
{
closed = 0;
nodes = (
(206,322,ls)
);
}
);
width = 472;
},
{
anchors = (
{
name = bottom;
pos = (200,0);
},
{
name = ogonek;
pos = (410,10);
},
{
name = top;
pos = (288,500);
}
);
layerId = m002;
shapes = (
{
closed = 1;
nodes = (
(397,-16,o),
(436,35,o),
(448,104,c),
(441,104,l),
(436,74,o),
(418,59,o),
(404,59,cs),
(390,59,o),
(386,74,o),
(391,100,cs),
(438,370,ls),
(455,468,o),
(398,516,o),
(280,516,cs),
(219,516,o),
(156,503,o),
(116,479,c),
(114,363,l),
(123,363,l),
(170,446,o),
(220,480,o),
(275,480,cs),
(319,480,o),
(354,458,o),
(338,370,cs),
(304,175,l),
(301,123,l),
(291,70,ls),
(282,15,o),
(296,-16,o),
(340,-16,cs)
);
},
{
closed = 1;
nodes = (
(194,-16,o),
(268,57,o),
(294,115,c),
(309,115,l),
(332,242,l),
(316,242,l),
(297,149,o),
(228,33,o),
(153,33,cs),
(114,33,o),
(92,66,o),
(100,115,cs),
(119,220,o),
(252,278,o),
(341,278,c),
(346,315,l),
(242,315,o),
(20,234,o),
(-4,99,cs),
(-16,29,o),
(32,-16,o),
(103,-16,cs)
);
},
{
closed = 0;
nodes = (
(226,322,ls)
);
}
);
width = 483;
}
);
metricLeft = a;
metricRight = a;
},
{
glyphname = c.ss01;
kernLeft = o;
kernRight = c;
lastChange = "2023-06-18 04:32:51 +0000";
layers = (
{
anchors = (
{
name = bar;
pos = (244,285);
},
{
name = bottom;
pos = (218,0);
},
{
name = top;
pos = (218,500);
}
);
layerId = m01;
shapes = (
{
closed = 1;
nodes = (
(299,475,o),
(355,446,o),
(387,363,c),
(396,363,l),
(414,479,l),
(379,503,o),
(318,516,o),
(264,516,cs),
(117,516,o),
(10,414,o),
(10,248,cs),
(10,81,o),
(117,-16,o),
(232,-16,cs),
(353,-16,o),
(417,72,o),
(435,169,c),
(427,169,l),
(399,84,o),
(330,56,o),
(274,56,cs),
(173,56,o),
(114,166,o),
(114,285,cs),
(114,402,o),
(166,475,o),
(247,475,cs)
);
}
);
width = 448;
},
{
anchors = (
{
name = bar;
pos = (252,285);
},
{
name = bottom;
pos = (176,0);
},
{
name = top;
pos = (264,500);
}
);
layerId = m002;
shapes = (
{
closed = 1;
nodes = (
(346,475,o),
(397,446,o),
(414,363,c),
(423,363,l),
(461,479,l),
(431,503,o),
(372,516,o),
(311,516,cs),
(164,516,o),
(39,414,o),
(10,248,cs),
(-20,81,o),
(70,-16,o),
(185,-16,cs),
(306,-16,o),
(386,72,o),
(421,169,c),
(413,169,l),
(370,84,o),
(296,56,o),
(240,56,cs),
(139,56,o),
(99,166,o),
(120,285,cs),
(141,402,o),
(206,475,o),
(292,475,cs)
);
}
);
width = 445;
}
);
metricLeft = o;
},
{
glyphname = f.ss01;
kernLeft = f;
kernRight = f;
lastChange = "2023-06-12 06:41:22 +0000";
layers = (
{
anchors = (
{
name = bottom;
pos = (188,0);
},
{
name = top;
pos = (188,800);
}
);
hints = (
{
name = _corner.rightSerif;
origin = (0,4);
type = Corner;
},
{
name = _corner.leftSerif;
origin = (0,3);
type = Corner;
}
);
layerId = m01;
shapes = (
{
closed = 1;
nodes = (
(133,708,o),
(76,640,o),
(76,546,cs),
(76,0,l),
(176,0,l),
(176,466,ls),
(176,524,o),
(130,523,o),
(130,580,cs),
(130,627,o),
(164,667,o),
(209,667,cs),
(244,667,o),
(281,642,o),
(304,555,c),
(313,555,l),
(331,671,l),
(296,695,o),
(261,708,o),
(222,708,cs)
);
},
{
closed = 1;
nodes = (
(94,465,l),
(94,527,l),
(32,500,l),
(32,465,l)
);
},
{
closed = 1;
nodes = (
(284,465,l),
(284,500,l),
(107,500,l),
(107,465,l)
);
}
);
width = 339;
},
{
anchors = (
{
name = bottom;
pos = (151,0);
},
{
name = top;
pos = (293,800);
}
);
hints = (
{
name = _corner.leftSerif;
origin = (0,3);
type = Corner;
},
{
name = _corner.rightSerif;
options = 1;
origin = (0,4);
type = Corner;
}
);
layerId = m002;
shapes = (
{
closed = 1;
nodes = (
(210,708,o),
(141,640,o),
(125,546,cs),
(29,0,l),
(129,0,l),
(211,466,ls),
(221,524,o),
(175,523,o),
(185,580,cs),
(193,627,o),
(234,667,o),
(279,667,cs),
(314,667,o),
(347,642,o),
(354,555,c),
(363,555,l),
(402,671,l),
(371,695,o),
(338,708,o),
(299,708,cs)
);
},
{
closed = 1;
nodes = (
(129,465,l),
(140,527,l),
(73,500,l),
(67,465,l)
);
},
{
closed = 1;
nodes = (
(319,465,l),
(325,500,l),
(148,500,l),
(142,465,l)
);
}
);
width = 318;
}
);
metricLeft = f;
metricRight = f;
},
{
glyphname = f_b;
kernLeft = f;
kernRight = o;
lastChange = "2023-06-18 04:32:51 +0000";
layers = (
{
background = {
hints = (
{
name = _corner.leftSerif;
origin = (0,32);
type = Corner;
},
{
name = _corner.rightSerif;
origin = (0,33);
type = Corner;
}
);
shapes = (
{
closed = 1;
nodes = (
(668,-16,o),
(789,60,o),
(789,252,cs),
(789,435,o),
(679,516,o),
(590,516,cs),
(529,516,o),
(485,480,o),
(463,438,c),
(436,438,l),
(436,358,l),
(458,358,l),
(465,430,o),
(517,476,o),
(566,476,cs),
(627,476,o),
(684,407,o),
(684,231,cs),
(684,88,o),
(639,22,o),
(571,22,cs),
(522,22,o),
(458,55,o),
(458,139,cs),
(458,700,l),
(275,699,ls),
(143,698,o),
(86,647,o),
(77,518,c),
(42,500,l),
(42,465,l),
(76,465,l),
(76,0,l),
(176,0,l),
(176,465,l),
(314,465,l),
(314,500,l),
(176,500,l),
(177,625,o),
(193,658,o),
(261,658,cs),
(267,658,ls),
(324,658,o),
(358,631,o),
(358,548,cs),
(358,0,l),
(362,0,l),
(379,17,o),
(400,30,o),
(430,30,cs),
(487,30,o),
(509,-16,o),
(579,-16,cs)
);
}
);
};
hints = (
{
name = _corner.rightSerif;
origin = (2,42);
type = Corner;
},
{
name = _corner.leftSerif;
origin = (2,41);
type = Corner;
}
);
layerId = m01;
shapes = (
{
closed = 1;
nodes = (
(94,465,l),
(94,527,l),
(32,500,l),
(32,465,l)
);
},
{
closed = 1;
nodes = (
(284,465,l),
(284,500,l),
(107,500,l),
(107,465,l)
);
},
{
closed = 1;
nodes = (
(246,667,ls),
(322,667,o),
(358,631,o),
(358,548,cs),
(358,0,l),
(362,0,l),
(379,17,o),
(400,30,o),
(430,30,cs),
(487,30,o),
(509,-16,o),
(579,-16,cs),
(668,-16,o),
(789,60,o),
(789,252,cs),
(789,435,o),
(679,516,o),
(590,516,cs),
(529,516,o),
(485,480,o),
(463,438,c),
(436,438,l),
(436,358,l),
(458,358,l),
(465,430,o),
(517,476,o),
(566,476,cs),
(627,476,o),
(684,407,o),
(684,231,cs),
(684,88,o),
(639,22,o),
(571,22,cs),
(522,22,o),
(458,55,o),
(458,139,cs),
(458,700,l),
(240,700,ls),
(136,700,o),
(76,640,o),
(76,546,cs),
(76,0,l),
(176,0,l),
(176,466,ls),
(176,524,o),
(130,523,o),
(130,580,cs),
(130,627,o),
(163,667,o),
(232,667,cs)
);
}
);
width = 799;
},
{
background = {
shapes = (
{
closed = 1;
nodes = (
(728,-16,o),
(858,60,o),
(858,252,cs),
(858,435,o),
(743,516,o),
(638,516,cs),
(578,516,o),
(517,486,o),
(495,444,c),
(495,408,l),
(529,456,o),
(577,476,o),
(618,476,cs),
(691,476,o),
(753,407,o),
(753,231,cs),
(753,88,o),
(703,22,o),
(627,22,cs),
(571,22,o),
(520,65,o),
(507,139,c),
(486,139,l),
(486,30,l),
(496,30,l),
(537,0,o),
(580,-16,o),
(630,-16,cs)
);
},
{
closed = 0;
nodes = (
(407,565,l),
(407,0,l),
(465,0,l),
(507,60,l),
(507,700,l)
);
}
);
};
hints = (
{
name = _corner.leftSerif;
origin = (2,41);
type = Corner;
},
{
name = _corner.rightSerif;
options = 1;
origin = (2,42);
type = Corner;
}
);
layerId = m002;
shapes = (
{
closed = 1;
nodes = (
(129,465,l),
(140,527,l),
(73,500,l),
(67,465,l)
);
},
{
closed = 1;
nodes = (
(319,465,l),
(325,500,l),
(148,500,l),
(142,465,l)
);
},
{
closed = 1;
nodes = (
(316,667,ls),
(392,667,o),
(422,631,o),
(407,548,cs),
(311,0,l),
(315,0,l),
(335,17,o),
(358,30,o),
(388,30,cs),
(445,30,o),
(459,-16,o),
(529,-16,cs),
(618,-16,o),
(752,60,o),
(786,252,cs),
(818,435,o),
(723,516,o),
(634,516,cs),
(573,516,o),
(522,480,o),
(493,438,c),
(466,438,l),
(452,358,l),
(474,358,l),
(494,430,o),
(554,476,o),
(603,476,cs),
(664,476,o),
(708,407,o),
(677,231,cs),
(652,88,o),
(596,22,o),
(528,22,cs),
(479,22,o),
(420,55,o),
(435,139,cs),
(534,700,l),
(316,700,ls),
(212,700,o),
(142,640,o),
(125,546,cs),
(29,0,l),
(129,0,l),
(211,466,ls),
(221,524,o),
(175,523,o),
(185,580,cs),
(193,627,o),
(233,667,o),
(302,667,cs)
);
}
);
width = 796;
}
);
metricLeft = f;
metricRight = b;
},
{
glyphname = f_f;
kernLeft = f;
kernRight = f;
lastChange = "2023-06-12 06:41:22 +0000";
layers = (
{
background = {
hints = (
{
name = _corner.rightSerif;
origin = (0,0);
type = Corner;
},
{
name = _corner.leftSerif;
origin = (0,3);
type = Corner;
},
{
name = _corner.rightSerif;
origin = (0,4);
type = Corner;
},
{
name = _corner.leftSerif;
origin = (0,44);
type = Corner;
}
);
shapes = (
{
closed = 1;
nodes = (
(176,0,l),
(176,465,l),
(373,465,l),
(373,0,l),
(473,0,l),
(473,465,l),
(611,465,l),
(611,500,l),
(473,500,l),
(474,625,o),
(488,657,o),
(537,657,cs),
(593,657,o),
(578,566,o),
(637,566,cs),
(660,566,o),
(676,585,o),
(676,612,cs),
(676,663,o),
(620,698,o),
(542,698,cs),
(437,698,o),
(383,647,o),
(374,518,c),
(339,500,l),
(176,500,l),
(177,625,o),
(191,657,o),
(240,657,cs),
(296,657,o),
(281,566,o),
(340,566,cs),
(363,566,o),
(379,585,o),
(379,612,cs),
(379,663,o),
(323,698,o),
(245,698,cs),
(140,698,o),
(86,647,o),
(77,518,c),
(42,500,l),
(42,465,l),
(76,465,l),
(76,0,l)
);
}
);
};
hints = (
{
name = _corner.rightSerif;
origin = (0,0);
type = Corner;
},
{
name = _corner.leftSerif;
origin = (0,52);
type = Corner;
},
{
name = _corner.rightSerif;
origin = (0,4);
type = Corner;
},
{
name = _corner.leftSerif;
origin = (0,3);
type = Corner;
}
);
layerId = m01;
shapes = (
{
closed = 1;
nodes = (
(176,0,l),
(176,465,l),
(353,465,l),
(353,0,l),
(453,0,l),
(453,465,l),
(561,465,l),
(561,500,l),
(446,500,l),
(433,527,o),
(407,537,o),
(407,580,cs),
(407,627,o),
(440,667,o),
(479,667,cs),
(537,667,o),
(519,576,o),
(570,576,cs),
(593,576,o),
(609,596,o),
(609,623,cs),
(609,670,o),
(559,708,o),
(497,708,cs),
(413,708,o),
(353,640,o),
(353,546,cs),
(353,519,l),
(309,500,l),
(169,500,l),
(156,527,o),
(130,537,o),
(130,580,cs),
(130,627,o),
(163,667,o),
(202,667,cs),
(260,667,o),
(242,576,o),
(293,576,cs),
(316,576,o),
(332,596,o),
(332,623,cs),
(332,670,o),
(282,708,o),
(220,708,cs),
(136,708,o),
(76,640,o),
(76,546,cs),
(76,519,l),
(32,500,l),
(32,465,l),
(76,465,l),
(76,0,l)
);
}
);
width = 617;
},
{
background = {
shapes = (
{
pos = (27,0);
ref = f_l;
}
);
};
hints = (
{
name = _corner.rightSerif;
options = 1;
origin = (0,0);
type = Corner;
},
{
name = _corner.leftSerif;
origin = (0,3);
type = Corner;
},
{
name = _corner.rightSerif;
options = 1;
origin = (0,4);
type = Corner;
},
{
name = _corner.leftSerif;
origin = (0,52);
type = Corner;
}
);
layerId = m002;
shapes = (
{
closed = 1;
nodes = (
(129,0,l),
(211,465,l),
(388,465,l),
(306,0,l),
(406,0,l),
(488,465,l),
(596,465,l),
(602,500,l),
(487,500,l),
(479,527,o),
(454,537,o),
(462,580,cs),
(470,627,o),
(510,667,o),
(549,667,cs),
(607,667,o),
(573,576,o),
(624,576,cs),
(647,576,o),
(667,596,o),
(671,623,cs),
(680,670,o),
(636,708,o),
(574,708,cs),
(490,708,o),
(418,640,o),
(402,546,cs),
(397,519,l),
(350,500,l),
(210,500,l),
(202,527,o),
(177,537,o),
(185,580,cs),
(193,627,o),
(233,667,o),
(272,667,cs),
(330,667,o),
(296,576,o),
(347,576,cs),
(370,576,o),
(390,596,o),
(394,623,cs),
(403,670,o),
(359,708,o),
(297,708,cs),
(213,708,o),
(141,640,o),
(125,546,cs),
(120,519,l),
(73,500,l),
(67,465,l),
(111,465,l),
(29,0,l)
);
}
);
width = 595;
}
);
metricLeft = f;
metricRight = f;
},
{
glyphname = f_f_i;
kernLeft = f;
kernRight = n;
lastChange = "2023-06-12 07:46:35 +0000";
layers = (
{
anchors = (
{
name = ogonek;
pos = (1026,10);
}
);
background = {
shapes = (
{
ref = f_f;
}
);
};
hints = (
{
name = _corner.rightSerif;
origin = (0,4);
type = Corner;
},
{
name = _corner.leftSerif;
origin = (0,3);
type = Corner;
},
{
name = _corner.rightSerif;
origin = (0,8);
type = Corner;
},
{
name = _corner.leftSerif;
origin = (0,7);
type = Corner;
},
{
name = _corner.rightSerif;
origin = (0,0);
type = Corner;
},
{
name = _corner.leftSerif;
origin = (0,54);
type = Corner;
}
);
layerId = m01;
shapes = (
{
closed = 1;
nodes = (
(176,0,l),
(176,465,l),
(353,465,l),
(353,0,l),
(453,0,l),
(453,465,l),
(606,465,l),
(606,0,l),
(706,0,l),
(706,500,l),
(446,500,l),
(433,527,o),
(407,537,o),
(407,580,cs),
(407,627,o),
(440,667,o),
(504,667,cs),
(618,667,o),
(580,552,o),
(652,552,cs),
(684,552,o),
(698,576,o),
(698,600,cs),
(698,650,o),
(640,708,o),
(527,708,cs),
(413,708,o),
(353,640,o),
(353,546,cs),
(353,519,l),
(309,500,l),
(169,500,l),
(156,527,o),
(130,537,o),
(130,580,cs),
(130,627,o),
(163,667,o),
(202,667,cs),
(260,667,o),
(242,576,o),
(293,576,cs),
(316,576,o),
(332,596,o),
(332,623,cs),
(332,670,o),
(282,708,o),
(220,708,cs),
(136,708,o),
(76,640,o),
(76,546,cs),
(76,519,l),
(32,500,l),
(32,465,l),
(76,465,l),
(76,0,l)
);
}
);
width = 782;
},
{
anchors = (
{
name = ogonek;
pos = (991,10);
}
);
background = {
shapes = (
{
pos = (7,0);
ref = f_f;
}
);
};
hints = (
{
name = _corner.rightSerif;
options = 1;
origin = (0,4);
type = Corner;
},
{
name = _corner.leftSerif;
origin = (0,7);
type = Corner;
},
{
name = _corner.rightSerif;
options = 1;
origin = (0,8);
type = Corner;
},
{
name = _corner.leftSerif;
origin = (0,54);
type = Corner;
},
{
name = _corner.rightSerif;
options = 1;
origin = (0,0);
type = Corner;
},
{
name = _corner.leftSerif;
origin = (0,3);
type = Corner;
}
);
layerId = m002;
shapes = (
{
closed = 1;
nodes = (
(129,0,l),
(211,465,l),
(388,465,l),
(306,0,l),
(406,0,l),
(488,465,l),
(641,465,l),
(559,0,l),
(659,0,l),
(747,500,l),
(487,500,l),
(479,527,o),
(454,537,o),
(462,580,cs),
(470,627,o),
(510,667,o),
(574,667,cs),
(688,667,o),
(630,552,o),
(702,552,cs),
(734,552,o),
(752,576,o),
(756,600,cs),
(765,650,o),
(717,708,o),
(604,708,cs),
(490,708,o),
(418,640,o),
(402,546,cs),
(397,519,l),
(350,500,l),
(210,500,l),
(202,527,o),
(177,537,o),
(185,580,cs),
(193,627,o),
(233,667,o),
(272,667,cs),
(330,667,o),
(296,576,o),
(347,576,cs),
(370,576,o),
(390,596,o),
(394,623,cs),
(403,670,o),
(359,708,o),
(297,708,cs),
(213,708,o),
(141,640,o),
(125,546,cs),
(120,519,l),
(73,500,l),
(67,465,l),
(111,465,l),
(29,0,l)
);
}
);
width = 782;
}
);
metricLeft = f;
metricRight = i;
},
{
glyphname = f_h;
kernLeft = f;
kernRight = n;
lastChange = "2023-06-12 07:46:35 +0000";
layers = (
{
background = {
hints = (
{
name = _corner.rightSerif;
origin = (0,0);
type = Corner;
},
{
name = _corner.leftSerif;
origin = (0,9);
type = Corner;
},
{
name = _corner.rightSerif;
origin = (0,10);
type = Corner;
},
{
name = _corner.leftSerif;
origin = (0,16);
type = Corner;
},
{
name = _corner.rightSerif;
origin = (3,0);
type = Corner;
},
{
name = _corner.leftSerif;
origin = (3,17);
type = Corner;
}
);
shapes = (
{
closed = 1;
nodes = (
(176,0,l),
(176,489,ls),
(176,623,o),
(190,658,o),
(265,658,cs),
(271,658,ls),
(335,658,o),
(358,630,o),
(358,565,cs),
(358,0,l),
(458,0,l),
(458,700,l),
(275,699,ls),
(130,698,o),
(76,637,o),
(76,478,cs),
(76,0,l)
);
},
{
closed = 1;
nodes = (
(94,465,l),
(94,527,l),
(42,500,l),
(42,465,l)
);
},
{
closed = 1;
nodes = (
(314,465,l),
(314,500,l),
(107,500,l),
(107,465,l)
);
},
{
closed = 1;
nodes = (
(737,0,l),
(737,374,ls),
(737,465,o),
(684,516,o),
(599,516,cs),
(528,516,o),
(482,480,o),
(463,414,c),
(437,414,l),
(437,312,l),
(458,312,l),
(470,413,o),
(511,468,o),
(570,468,cs),
(619,468,o),
(637,432,o),
(637,333,cs),
(637,0,l)
);
}
);
};
hints = (
{
name = _corner.rightSerif;
origin = (0,0);
type = Corner;
},
{
name = _corner.leftSerif;
origin = (0,12);
type = Corner;
},
{
name = _corner.rightSerif;
options = 1;
origin = (0,13);
type = Corner;
},
{
name = _corner.leftSerif;
origin = (0,19);
type = Corner;
},
{
name = _corner.rightSerif;
origin = (3,0);
type = Corner;
},
{
name = _corner.leftSerif;
origin = (3,17);
type = Corner;
}
);
layerId = m01;
shapes = (
{
closed = 1;
nodes = (
(176,0,l),
(176,466,ls),
(176,524,o),
(130,523,o),
(130,580,cs),
(130,627,o),
(163,667,o),
(232,667,cs),
(246,667,ls),
(322,667,o),
(358,631,o),
(358,548,cs),
(358,0,l),
(458,0,l),
(458,700,l),
(240,700,ls),
(136,700,o),
(76,640,o),
(76,546,cs),
(76,0,l)
);
},
{
closed = 1;
nodes = (
(94,465,l),
(94,527,l),
(32,500,l),
(32,465,l)
);
},
{
closed = 1;
nodes = (
(284,465,l),
(284,500,l),
(107,500,l),
(107,465,l)
);
},
{
closed = 1;
nodes = (
(737,0,l),
(737,374,ls),
(737,465,o),
(684,516,o),
(599,516,cs),
(528,516,o),
(482,480,o),
(463,414,c),
(437,414,l),
(437,312,l),
(458,312,l),
(470,413,o),
(511,468,o),
(570,468,cs),
(619,468,o),
(637,432,o),
(637,333,cs),
(637,0,l)
);
}
);
width = 806;
},
{
background = {
shapes = (
{
pos = (339,0);
ref = h;
}
);
};
hints = (
{
name = _corner.rightSerif;
options = 1;
origin = (0,0);
type = Corner;
},
{
name = _corner.leftSerif;
origin = (0,12);
type = Corner;
},
{
name = _corner.rightSerif;
options = 1;
origin = (0,13);
type = Corner;
},
{
name = _corner.leftSerif;
origin = (0,19);
type = Corner;
},
{
name = _corner.rightSerif;
options = 1;
origin = (3,0);
type = Corner;
},
{
name = _corner.leftSerif;
origin = (3,17);
type = Corner;
}
);
layerId = m002;
shapes = (
{
closed = 1;
nodes = (
(129,0,l),
(211,466,ls),
(222,524,o),
(176,523,o),
(186,580,cs),
(194,627,o),
(234,667,o),
(303,667,cs),
(317,667,ls),
(393,667,o),
(423,631,o),
(408,548,cs),
(311,0,l),
(411,0,l),
(535,700,l),
(317,700,ls),
(213,700,o),
(142,640,o),
(126,546,cs),
(29,0,l)
);
},
{
closed = 1;
nodes = (
(129,465,l),
(140,527,l),
(73,500,l),
(67,465,l)
);
},
{
closed = 1;
nodes = (
(319,465,l),
(325,500,l),
(148,500,l),
(142,465,l)
);
},
{
closed = 1;
nodes = (
(690,0,l),
(756,374,ls),
(772,465,o),
(728,516,o),
(643,516,cs),
(572,516,o),
(520,480,o),
(489,414,c),
(463,414,l),
(445,312,l),
(466,312,l),
(496,413,o),
(547,468,o),
(606,468,cs),
(655,468,o),
(666,432,o),
(649,333,cs),
(590,0,l)
);
}
);
width = 810;
}
);
metricLeft = f;
metricRight = h;
},
{
glyphname = f_i;
kernLeft = f;
kernRight = n;
lastChange = "2023-06-12 07:46:35 +0000";
layers = (
{
anchors = (
{
name = bottom;
pos = (509,0);
},
{
name = ogonek;
pos = (749,10);
},
{
name = top;
pos = (494,500);
}
);
background = {
hints = (
{
name = _corner.rightSerif;
origin = (0,0);
type = Corner;
},
{
name = _corner.leftSerif;
origin = (0,23);
type = Corner;
},
{
name = _corner.rightSerif;
origin = (1,0);
type = Corner;
},
{
name = _corner.leftSerif;
origin = (1,3);
type = Corner;
}
);
shapes = (
{
closed = 1;
nodes = (
(176,0,l),
(176,465,l),
(341,465,l),
(341,500,l),
(176,500,l),
(177,624,o),
(217,657,o),
(254,657,cs),
(318,657,o),
(306,555,o),
(380,555,cs),
(408,555,o),
(421,575,o),
(421,602,cs),
(421,664,o),
(331,701,o),
(249,698,cs),
(160,695,o),
(86,647,o),
(77,518,c),
(42,500,l),
(42,465,l),
(76,465,l),
(76,0,l)
);
},
{
closed = 1;
nodes = (
(429,0,l),
(429,500,l),
(329,500,l),
(329,0,l)
);
}
);
};
hints = (
{
name = _corner.rightSerif;
origin = (0,0);
type = Corner;
},
{
name = _corner.leftSerif;
origin = (0,20);
type = Corner;
},
{
name = _corner.rightSerif;
origin = (3,0);
type = Corner;
},
{
name = _corner.leftSerif;
origin = (3,3);
type = Corner;
}
);
layerId = m01;
shapes = (
{
closed = 1;
nodes = (
(176,0,l),
(176,466,ls),
(176,524,o),
(130,523,o),
(130,580,cs),
(130,627,o),
(163,667,o),
(227,667,cs),
(341,667,o),
(303,552,o),
(375,552,cs),
(407,552,o),
(421,576,o),
(421,600,cs),
(421,650,o),
(363,708,o),
(250,708,cs),
(136,708,o),
(76,640,o),
(76,546,cs),
(76,0,l)
);
},
{
closed = 1;
nodes = (
(94,465,l),
(94,527,l),
(32,500,l),
(32,465,l)
);
},
{
closed = 1;
nodes = (
(344,465,l),
(344,500,l),
(107,500,l),
(107,465,l)
);
},
{
closed = 1;
nodes = (
(429,0,l),
(429,500,l),
(329,500,l),
(329,0,l)
);
}
);
width = 505;
},
{
anchors = (
{
name = bottom;
pos = (462,0);
},
{
name = ogonek;
pos = (704,10);
},
{
name = top;
pos = (536,500);
}
);
background = {
shapes = (
{
pos = (79,0);
ref = f_l;
}
);
};
hints = (
{
name = _corner.rightSerif;
options = 1;
origin = (0,0);
type = Corner;
},
{
name = _corner.leftSerif;
origin = (0,20);
type = Corner;
},
{
name = _corner.rightSerif;
options = 1;
origin = (3,0);
type = Corner;
},
{
name = _corner.leftSerif;
origin = (3,3);
type = Corner;
}
);
layerId = m002;
shapes = (
{
closed = 1;
nodes = (
(129,0,l),
(211,466,ls),
(221,524,o),
(175,523,o),
(185,580,cs),
(193,627,o),
(233,667,o),
(297,667,cs),
(411,667,o),
(353,552,o),
(425,552,cs),
(457,552,o),
(475,576,o),
(479,600,cs),
(488,650,o),
(440,708,o),
(327,708,cs),
(213,708,o),
(141,640,o),
(125,546,cs),
(29,0,l)
);
},
{
closed = 1;
nodes = (
(129,465,l),
(140,527,l),
(73,500,l),
(67,465,l)
);
},
{
closed = 1;
nodes = (
(379,465,l),
(385,500,l),
(148,500,l),
(142,465,l)
);
},
{
closed = 1;
nodes = (
(382,0,l),
(470,500,l),
(370,500,l),
(282,0,l)
);
}
);
width = 505;
}
);
metricLeft = f;
metricRight = i;
},
{
glyphname = f_k;
kernLeft = f;
kernRight = k;
lastChange = "2023-07-14 13:49:36 +0000";
layers = (
{
background = {
hints = (
{
name = _corner.rightSerif;
origin = (0,0);
type = Corner;
},
{
name = _corner.leftSerif;
origin = (0,9);
type = Corner;
},
{
name = _corner.rightSerif;
origin = (0,10);
type = Corner;
},
{
name = _corner.leftSerif;
origin = (0,16);
type = Corner;
},
{
name = _corner.rightSerif;
options = 1;
origin = (3,0);
type = Corner;
},
{
name = _corner.leftSerif;
origin = (4,0);
type = Corner;
},
{
name = _corner.rightSerif;
options = 1;
origin = (4,1);
scale = (1.3,1);
type = Corner;
}
);
shapes = (
{
closed = 1;
nodes = (
(176,0,l),
(176,489,ls),
(176,623,o),
(190,658,o),
(266,658,cs),
(272,658,ls),
(335,658,o),
(358,630,o),
(358,565,cs),
(358,0,l),
(458,0,l),
(458,700,l),
(275,699,ls),
(130,698,o),
(76,637,o),
(76,478,cs),
(76,0,l)
);
},
{
closed = 1;
nodes = (
(94,465,l),
(94,527,l),
(42,500,l),
(42,465,l)
);
},
{
closed = 1;
nodes = (
(314,465,l),
(314,500,l),
(107,500,l),
(107,465,l)
);
},
{
closed = 1;
nodes = (
(739,0,l),
(568,358,l),
(501,286,l),
(637,0,l)
);
},
{
closed = 1;
nodes = (
(741,500,l),
(702,500,l),
(444,247,l),
(444,197,l)
);
}
);
};
hints = (
{
name = _corner.rightSerif;
origin = (0,0);
type = Corner;
},
{
name = _corner.leftSerif;
origin = (0,12);
type = Corner;
},
{
name = _corner.rightSerif;
options = 1;
origin = (0,13);
type = Corner;
},
{
name = _corner.leftSerif;
origin = (0,19);
type = Corner;
},
{
name = _corner.rightSerif;
options = 1;
origin = (3,0);
type = Corner;
},
{
name = _corner.leftSerif;
origin = (4,0);
type = Corner;
},
{
name = _corner.rightSerif;
options = 1;
origin = (4,1);
scale = (1.3,1);
type = Corner;
}
);
layerId = m01;
shapes = (
{
closed = 1;
nodes = (
(176,0,l),
(176,466,ls),
(176,524,o),
(130,523,o),
(130,580,cs),
(130,627,o),
(163,667,o),
(232,667,cs),
(246,667,ls),
(322,667,o),
(358,631,o),
(358,548,cs),
(358,0,l),
(458,0,l),
(458,700,l),
(240,700,ls),
(136,700,o),
(76,640,o),
(76,546,cs),
(76,0,l)
);
},
{
closed = 1;
nodes = (
(94,465,l),
(94,527,l),
(32,500,l),
(32,465,l)
);
},
{
closed = 1;
nodes = (
(284,465,l),
(284,500,l),
(107,500,l),
(107,465,l)
);
},
{
closed = 1;
nodes = (
(739,0,l),
(568,358,l),
(501,286,l),
(637,0,l)
);
},
{
closed = 1;
nodes = (
(741,500,l),
(702,500,l),
(444,247,l),
(444,197,l)
);
}
);
width = 795;
},
{
background = {
shapes = (
{
pos = (339,0);
ref = k;
}
);
};
hints = (
{
name = _corner.rightSerif;
origin = (0,0);
type = Corner;
},
{
name = _corner.leftSerif;
origin = (0,12);
type = Corner;
},
{
name = _corner.rightSerif;
options = 1;
origin = (0,13);
type = Corner;
},
{
name = _corner.leftSerif;
origin = (0,19);
type = Corner;
},
{
name = _corner.rightSerif;
options = 1;
origin = (3,0);
type = Corner;
},
{
name = _corner.leftSerif;
origin = (4,0);
type = Corner;
},
{
name = _corner.rightSerif;
options = 1;
origin = (4,1);
scale = (1.3,1);
type = Corner;
}
);
layerId = m002;
shapes = (
{
closed = 1;
nodes = (
(129,0,l),
(211,466,ls),
(222,524,o),
(176,523,o),
(186,580,cs),
(194,627,o),
(234,667,o),
(303,667,cs),
(317,667,ls),
(393,667,o),
(423,631,o),
(408,548,cs),
(311,0,l),
(411,0,l),
(535,700,l),
(317,700,ls),
(213,700,o),
(142,640,o),
(126,546,cs),
(29,0,l)
);
},
{
closed = 1;
nodes = (
(129,465,l),
(140,527,l),
(73,500,l),
(67,465,l)
);
},
{
closed = 1;
nodes = (
(319,465,l),
(325,500,l),
(148,500,l),
(142,465,l)
);
},
{
closed = 1;
nodes = (
(692,0,l),
(584,358,l),
(505,286,l),
(590,0,l)
);
},
{
closed = 1;
nodes = (
(782,500,l),
(743,500,l),
(441,247,l),
(432,197,l)
);
}
);
width = 796;
}
);
metricLeft = f;
metricRight = k;
},
{
glyphname = f_l;
kernLeft = f;
kernRight = l;
lastChange = "2023-06-12 06:41:22 +0000";
layers = (
{
background = {
shapes = (
{
ref = f_b;
}
);
};
hints = (
{
name = _corner.rightSerif;
origin = (0,0);
type = Corner;
},
{
name = _corner.leftSerif;
origin = (0,19);
type = Corner;
},
{
name = _corner.leftSerif;
origin = (0,12);
type = Corner;
},
{
name = _corner.rightSerif;
options = 1;
origin = (0,13);
type = Corner;
}
);
layerId = m01;
shapes = (
{
closed = 1;
nodes = (
(176,0,l),
(176,466,ls),
(176,524,o),
(130,523,o),
(130,580,cs),
(130,627,o),
(163,667,o),
(232,667,cs),
(246,667,ls),
(322,667,o),
(358,631,o),
(358,548,cs),
(358,0,l),
(458,0,l),
(458,700,l),
(240,700,ls),
(136,700,o),
(76,640,o),
(76,546,cs),
(76,0,l)
);
},
{
closed = 1;
nodes = (
(94,465,l),
(94,527,l),
(32,500,l),
(32,465,l)
);
},
{
closed = 1;
nodes = (
(284,465,l),
(284,500,l),
(107,500,l),
(107,465,l)
);
}
);
width = 530;
},
{
hints = (
{
name = _corner.rightSerif;
origin = (0,0);
type = Corner;
},
{
name = _corner.leftSerif;
origin = (0,12);
type = Corner;
},
{
name = _corner.rightSerif;
options = 1;
origin = (0,13);
type = Corner;
},
{
name = _corner.leftSerif;
origin = (0,19);
type = Corner;
}
);
layerId = m002;
shapes = (
{
closed = 1;
nodes = (
(129,0,l),
(211,466,ls),
(222,524,o),
(176,523,o),
(186,580,cs),
(194,627,o),
(234,667,o),
(303,667,cs),
(317,667,ls),
(393,667,o),
(423,631,o),
(408,548,cs),
(311,0,l),
(411,0,l),
(535,700,l),
(317,700,ls),
(213,700,o),
(142,640,o),
(126,546,cs),
(29,0,l)
);
},
{
closed = 1;
nodes = (
(129,465,l),
(140,527,l),
(73,500,l),
(67,465,l)
);
},
{
closed = 1;
nodes = (
(319,465,l),
(325,500,l),
(148,500,l),
(142,465,l)
);
}
);
width = 535;
}
);
metricLeft = f;
metricRight = l;
},
{
glyphname = f_y;
lastChange = "2023-06-12 06:41:22 +0000";
layers = (
{
hints = (
{
name = _corner.rightSerif;
origin = (1,0);
type = Corner;
},
{
name = _corner.leftSerif;
options = 1;
origin = (1,20);
type = Corner;
},
{
name = _corner.rightSerif;
origin = (0,5);
scale = (1.4,-1);
type = Corner;
},
{
name = _corner.rightSerif;
options = 1;
origin = (0,2);
scale = (-1.4,-1);
type = Corner;
},
{
name = _corner.leftSerif;
origin = (0,1);
scale = (-1,-1);
type = Corner;
}
);
layerId = m01;
shapes = (
{
closed = 1;
nodes = (
(527,0,l),
(707,500,l),
(667,500,l),
(521,90,l),
(554,90,l),
(377,500,l),
(303,500,l),
(230,500,l),
(230,465,l),
(275,465,o),
(297,452,o),
(322,392,cs),
(487,0,l)
);
},
{
closed = 1;
nodes = (
(176,0,l),
(176,466,ls),
(176,524,o),
(130,523,o),
(130,580,cs),
(130,627,o),
(163,667,o),
(202,667,cs),
(260,667,o),
(242,576,o),
(293,576,cs),
(316,576,o),
(332,596,o),
(332,623,cs),
(332,670,o),
(282,708,o),
(220,708,cs),
(136,708,o),
(76,640,o),
(76,546,cs),
(76,0,l)
);
},
{
closed = 1;
nodes = (
(408,-216,o),
(483,-120,o),
(527,0,c),
(520,17,l),
(499,17,l),
(487,0,l),
(472,-55,o),
(417,-145,o),
(378,-145,cs),
(344,-145,o),
(338,-112,o),
(294,-112,cs),
(266,-112,o),
(247,-132,o),
(247,-159,cs),
(247,-193,o),
(273,-216,o),
(330,-216,cs)
);
},
{
closed = 1;
nodes = (
(94,465,l),
(94,527,l),
(32,500,l),
(32,465,l)
);
},
{
closed = 1;
nodes = (
(284,465,l),
(284,500,l),
(107,500,l),
(107,465,l)
);
}
);
width = 761;
},
{
hints = (
{
name = _corner.leftSerif;
origin = (0,1);
scale = (-1,-1);
type = Corner;
},
{
name = _corner.rightSerif;
options = 1;
origin = (0,2);
scale = (-1.4,-1);
type = Corner;
},
{
name = _corner.rightSerif;
origin = (0,5);
scale = (1.4,-1);
type = Corner;
},
{
name = _corner.rightSerif;
options = 1;
origin = (1,0);
type = Corner;
},
{
name = _corner.leftSerif;
origin = (1,20);
type = Corner;
}
);
layerId = m002;
shapes = (
{
closed = 1;
nodes = (
(480,0,l),
(748,500,l),
(708,500,l),
(489,90,l),
(522,90,l),
(418,500,l),
(344,500,l),
(271,500,l),
(265,465,l),
(310,465,o),
(329,452,o),
(344,392,cs),
(440,0,l)
);
},
{
closed = 1;
nodes = (
(129,0,l),
(211,466,ls),
(221,524,o),
(175,523,o),
(185,580,cs),
(193,627,o),
(233,667,o),
(272,667,cs),
(330,667,o),
(296,576,o),
(347,576,cs),
(370,576,o),
(390,596,o),
(394,623,cs),
(403,670,o),
(359,708,o),
(297,708,cs),
(213,708,o),
(141,640,o),
(125,546,cs),
(29,0,l)
);
},
{
closed = 1;
nodes = (
(323,-216,o),
(414,-120,o),
(480,0,c),
(476,17,l),
(455,17,l),
(440,0,l),
(415,-55,o),
(344,-145,o),
(305,-145,cs),
(271,-145,o),
(271,-112,o),
(227,-112,cs),
(199,-112,o),
(176,-132,o),
(172,-159,cs),
(166,-193,o),
(188,-216,o),
(245,-216,cs)
);
},
{
closed = 1;
nodes = (
(129,465,l),
(140,527,l),
(73,500,l),
(67,465,l)
);
},
{
closed = 1;
nodes = (
(319,465,l),
(325,500,l),
(148,500,l),
(142,465,l)
);
}
);
width = 754;
}
);
metricLeft = f;
metricRight = y;
},
{
glyphname = r_i;
lastChange = "2023-06-12 07:46:35 +0000";
layers = (
{
hints = (
{
name = _corner.rightSerif;
origin = (1,0);
type = Corner;
},
{
name = _corner.rightSerif;
origin = (1,2);
type = Corner;
},
{
name = _corner.leftSerif;
origin = (1,3);
type = Corner;
},
{
name = _corner.rightSerif;
origin = (2,0);
type = Corner;
},
{
name = _corner.rightSerif;
origin = (2,2);
type = Corner;
},
{
name = _corner.leftSerif;
origin = (2,3);
type = Corner;
}
);
layerId = m01;
shapes = (
{
closed = 1;
nodes = (
(176,301,l),
(184,396,o),
(277,582,o),
(337,582,cs),
(380,582,o),
(374,547,o),
(420,547,cs),
(455,547,o),
(474,573,o),
(474,607,cs),
(474,645,o),
(444,676,o),
(397,676,cs),
(283,676,o),
(210,484,o),
(181,414,c),
(154,414,l),
(154,301,l)
);
},
{
closed = 1;
nodes = (
(176,0,l),
(176,500,l),
(76,500,l),
(76,0,l)
);
},
{
closed = 1;
nodes = (
(467,0,l),
(467,500,l),
(367,500,l),
(367,0,l)
);
}
);
width = 543;
},
{
hints = (
{
name = _corner.rightSerif;
options = 1;
origin = (1,0);
type = Corner;
},
{
name = _corner.rightSerif;
options = 1;
origin = (1,2);
type = Corner;
},
{
name = _corner.leftSerif;
origin = (1,3);
type = Corner;
},
{
name = _corner.rightSerif;
options = 1;
origin = (2,0);
type = Corner;
},
{
name = _corner.rightSerif;
options = 1;
origin = (2,2);
type = Corner;
},
{
name = _corner.leftSerif;
origin = (2,3);
type = Corner;
}
);
layerId = m002;
shapes = (
{
closed = 1;
nodes = (
(187,301,l),
(212,396,o),
(338,582,o),
(398,582,cs),
(441,582,o),
(429,547,o),
(475,547,cs),
(510,547,o),
(533,573,o),
(539,607,cs),
(546,645,o),
(522,676,o),
(475,676,cs),
(361,676,o),
(254,484,o),
(212,414,c),
(185,414,l),
(165,301,l)
);
},
{
closed = 1;
nodes = (
(134,0,l),
(223,500,l),
(123,500,l),
(34,0,l)
);
},
{
closed = 1;
nodes = (
(425,0,l),
(514,500,l),
(414,500,l),
(325,0,l)
);
}
);
width = 548;
}
);
metricLeft = r;
metricRight = i;
},
{
glyphname = zero;
kernLeft = O;
kernRight = O;
lastChange = "2023-06-16 16:25:56 +0000";
layers = (
{
layerId = m01;
shapes = (
{
closed = 1;
nodes = (
(435,-16,o),
(558,107,o),
(558,350,cs),
(558,593,o),
(435,716,o),
(292,716,cs),
(148,716,o),
(25,593,o),
(25,350,cs),
(25,107,o),
(148,-16,o),
(292,-16,cs)
);
},
{
closed = 1;
nodes = (
(179,24,o),
(135,163,o),
(135,350,cs),
(135,537,o),
(179,676,o),
(292,676,cs),
(404,676,o),
(448,537,o),
(448,350,cs),
(448,163,o),
(404,24,o),
(292,24,cs)
);
}
);
width = 583;
},
{
layerId = m002;
shapes = (
{
closed = 1;
nodes = (
(378,-16,o),
(523,107,o),
(566,350,cs),
(609,593,o),
(508,716,o),
(365,716,cs),
(221,716,o),
(76,593,o),
(33,350,cs),
(-10,107,o),
(91,-16,o),
(235,-16,cs)
);
},
{
closed = 1;
nodes = (
(130,24,o),
(110,163,o),
(143,350,cs),
(176,537,o),
(244,676,o),
(357,676,cs),
(469,676,o),
(489,537,o),
(456,350,cs),
(423,163,o),
(355,24,o),
(243,24,cs)
);
}
);
width = 564;
}
);
unicode = 48;
},
{
glyphname = one;
kernLeft = one;
kernRight = one;
lastChange = "2023-06-16 16:26:32 +0000";
layers = (
{
hints = (
{
name = _corner.rightSerif.Upper;
origin = (0,0);
type = Corner;
},
{
name = _corner.rightSerif.Upper;
options = 1;
origin = (0,2);
type = Corner;
},
{
name = _corner.leftSerif.Upper;
origin = (0,3);
type = Corner;
}
);
layerId = m01;
shapes = (
{
closed = 1;
nodes = (
(201,0,l),
(201,700,l),
(96,680,l),
(96,0,l)
);
}
);
width = 300;
},
{
hints = (
{
name = _corner.rightSerif.Upper;
options = 1;
origin = (0,0);
type = Corner;
},
{
name = _corner.rightSerif.Upper;
options = 1;
origin = (0,2);
type = Corner;
},
{
name = _corner.leftSerif.Upper;
origin = (0,3);
type = Corner;
}
);
layerId = m002;
shapes = (
{
closed = 1;
nodes = (
(151,0,l),
(275,700,l),
(166,680,l),
(46,0,l)
);
}
);
width = 299;
}
);
unicode = 49;
},
{
glyphname = two;
kernLeft = two;
kernRight = two;
lastChange = "2023-06-21 14:12:30 +0000";
layers = (
{
background = {
hints = (
{
name = _corner.FSerif;
options = 1;
origin = (1,1);
scale = (1,-1);
type = Corner;
}
);
shapes = (
{
closed = 1;
nodes = (
(26,25,l),
(182,99,o),
(496,258,o),
(496,505,cs),
(496,645,o),
(408,716,o),
(292,716,cs),
(213,716,o),
(133,681,o),
(75,610,c),
(84,595,l),
(129,631,o),
(164,649,o),
(231,650,cs),
(318,652,o),
(386,593,o),
(386,491,cs),
(386,284,o),
(180,166,o),
(20,42,c),
(20,25,l)
);
},
{
closed = 1;
nodes = (
(455,0,l),
(474,83,l),
(112,83,l),
(20,42,l),
(20,0,l)
);
}
);
};
hints = (
{
name = _corner.FSerif;
options = 1;
origin = (0,1);
scale = (1,-1);
type = Corner;
}
);
layerId = m01;
shapes = (
{
closed = 1;
nodes = (
(495,0,l),
(514,83,l),
(91,83,l),
(111,69,l),
(275,160,o),
(496,323,o),
(496,505,cs),
(496,645,o),
(408,716,o),
(292,716,cs),
(213,716,o),
(133,681,o),
(75,610,c),
(84,595,l),
(129,631,o),
(164,649,o),
(231,650,cs),
(318,652,o),
(386,593,o),
(386,491,cs),
(386,314,o),
(180,166,o),
(20,42,c),
(20,0,l)
);
}
);
width = 561;
},
{
associatedMasterId = m01;
hints = (
{
name = _corner.FSerif;
options = 1;
origin = (1,1);
scale = (1,-1);
type = Corner;
}
);
layerId = "929C38D9-78C9-4E71-BF51-ED1837277B58";
name = "12 Nov 22 20.20";
shapes = (
{
closed = 1;
nodes = (
(26,25,l),
(182,99,o),
(496,258,o),
(496,505,cs),
(496,645,o),
(408,716,o),
(292,716,cs),
(213,716,o),
(133,681,o),
(75,610,c),
(84,595,l),
(129,631,o),
(164,649,o),
(231,650,cs),
(318,652,o),
(386,593,o),
(386,491,cs),
(386,284,o),
(180,166,o),
(20,42,c),
(20,25,l)
);
},
{
closed = 1;
nodes = (
(455,0,l),
(474,83,l),
(112,83,l),
(20,42,l),
(20,0,l)
);
}
);
width = 531;
},
{
background = {
hints = (
{
name = _corner.FSerif;
options = 1;
origin = (1,1);
scale = (1,-1);
type = Corner;
}
);
shapes = (
{
closed = 1;
nodes = (
(41,25,l),
(197,99,o),
(511,258,o),
(511,505,cs),
(511,645,o),
(423,716,o),
(307,716,cs),
(228,716,o),
(148,681,o),
(90,610,c),
(99,595,l),
(144,631,o),
(179,649,o),
(246,650,cs),
(333,652,o),
(401,593,o),
(401,491,cs),
(401,284,o),
(195,166,o),
(35,42,c),
(35,25,l)
);
},
{
closed = 1;
nodes = (
(470,0,l),
(489,83,l),
(127,83,l),
(35,42,l),
(35,0,l)
);
}
);
};
hints = (
{
name = _corner.FSerif;
options = 1;
origin = (0,1);
scale = (1,-1);
type = Corner;
}
);
layerId = m002;
shapes = (
{
closed = 1;
nodes = (
(447,0,l),
(481,83,l),
(58,83,l),
(75,69,l),
(255,160,o),
(505,323,o),
(537,505,cs),
(562,645,o),
(486,716,o),
(370,716,cs),
(291,716,o),
(205,681,o),
(134,610,c),
(141,595,l),
(192,631,o),
(230,649,o),
(297,650,cs),
(385,652,o),
(442,593,o),
(424,491,cs),
(393,314,o),
(161,166,o),
(-21,42,c),
(-28,0,l)
);
}
);
width = 556;
},
{
associatedMasterId = m002;
hints = (
{
name = _corner.FSerif;
options = 1;
origin = (1,1);
scale = (1,-1);
type = Corner;
}
);
layerId = "01319039-BEDF-4D97-AE61-185092845DD2";
name = "12 Nov 22 20.20";
shapes = (
{
closed = 1;
nodes = (
(26,25,l),
(182,99,o),
(496,258,o),
(496,505,cs),
(496,645,o),
(408,716,o),
(292,716,cs),
(213,716,o),
(133,681,o),
(75,610,c),
(84,595,l),
(129,631,o),
(164,649,o),
(231,650,cs),
(318,652,o),
(386,593,o),
(386,491,cs),
(386,284,o),
(180,166,o),
(20,42,c),
(20,25,l)
);
},
{
closed = 1;
nodes = (
(455,0,l),
(474,83,l),
(112,83,l),
(20,42,l),
(20,0,l)
);
}
);
width = 531;
}
);
unicode = 50;
},
{
glyphname = three;
kernLeft = three;
kernRight = three;
lastChange = "2023-06-21 14:12:53 +0000";
layers = (
{
background = {
shapes = (
{
closed = 1;
nodes = (
(420,-8,o),
(491,92,o),
(491,186,cs),
(491,361,o),
(287,401,o),
(214,406,c),
(214,409,l),
(373,420,o),
(461,504,o),
(461,588,cs),
(461,665,o),
(400,716,o),
(299,716,cs),
(228,716,o),
(134,692,o),
(60,622,c),
(68,607,l),
(114,641,o),
(187,649,o),
(235,650,cs),
(312,652,o),
(351,619,o),
(351,570,cs),
(351,485,o),
(244,438,o),
(138,418,cs),
(124,415,o),
(118,411,o),
(118,400,cs),
(118,390,o),
(123,385,o),
(138,383,cs),
(244,369,o),
(379,345,o),
(379,181,cs),
(379,100,o),
(336,30,o),
(265,30,cs),
(134,30,o),
(128,156,o),
(62,156,cs),
(39,156,o),
(20,140,o),
(20,113,cs),
(20,51,o),
(135,-8,o),
(241,-8,cs)
);
}
);
};
layerId = m01;
shapes = (
{
closed = 1;
nodes = (
(410,-8,o),
(491,92,o),
(491,194,cs),
(491,342,o),
(315,378,o),
(252,382,c),
(252,385,l),
(387,396,o),
(461,482,o),
(461,572,cs),
(461,657,o),
(395,716,o),
(286,716,cs),
(207,716,o),
(118,687,o),
(60,602,c),
(74,587,l),
(118,627,o),
(164,649,o),
(229,650,cs),
(308,651,o),
(351,611,o),
(351,546,cs),
(351,463,o),
(278,404,o),
(156,394,c),
(156,359,l),
(272,355,o),
(379,326,o),
(379,189,cs),
(379,100,o),
(331,30,o),
(237,30,cs),
(112,30,o),
(142,156,o),
(66,156,cs),
(39,156,o),
(20,140,o),
(20,112,cs),
(20,51,o),
(105,-8,o),
(241,-8,cs)
);
}
);
width = 511;
},
{
associatedMasterId = m01;
layerId = "DBBE25A2-AC8D-48DB-BFC4-FA880BD01752";
name = "12 Nov 22 20.22";
shapes = (
{
closed = 1;
nodes = (
(420,-8,o),
(491,92,o),
(491,186,cs),
(491,361,o),
(287,401,o),
(214,406,c),
(214,409,l),
(373,420,o),
(461,504,o),
(461,588,cs),
(461,665,o),
(400,716,o),
(299,716,cs),
(228,716,o),
(134,692,o),
(60,622,c),
(68,607,l),
(114,641,o),
(187,649,o),
(235,650,cs),
(312,652,o),
(351,619,o),
(351,570,cs),
(351,485,o),
(244,438,o),
(138,418,cs),
(124,415,o),
(118,411,o),
(118,400,cs),
(118,390,o),
(123,385,o),
(138,383,cs),
(244,369,o),
(379,345,o),
(379,181,cs),
(379,100,o),
(336,30,o),
(265,30,cs),
(134,30,o),
(128,156,o),
(62,156,cs),
(39,156,o),
(20,140,o),
(20,113,cs),
(20,51,o),
(135,-8,o),
(241,-8,cs)
);
}
);
width = 511;
},
{
background = {
shapes = (
{
closed = 1;
nodes = (
(430,-8,o),
(501,92,o),
(501,186,cs),
(501,361,o),
(297,401,o),
(224,406,c),
(224,409,l),
(383,420,o),
(471,504,o),
(471,588,cs),
(471,665,o),
(410,716,o),
(309,716,cs),
(238,716,o),
(144,692,o),
(70,622,c),
(78,607,l),
(124,641,o),
(197,649,o),
(245,650,cs),
(322,652,o),
(361,619,o),
(361,570,cs),
(361,485,o),
(254,438,o),
(148,418,cs),
(134,415,o),
(128,411,o),
(128,400,cs),
(128,390,o),
(133,385,o),
(148,383,cs),
(254,369,o),
(389,345,o),
(389,181,cs),
(389,100,o),
(346,30,o),
(275,30,cs),
(144,30,o),
(138,156,o),
(72,156,cs),
(49,156,o),
(30,140,o),
(30,113,cs),
(30,51,o),
(145,-8,o),
(251,-8,cs)
);
}
);
};
layerId = m002;
shapes = (
{
closed = 1;
nodes = (
(356,-8,o),
(455,92,o),
(473,194,cs),
(499,342,o),
(329,378,o),
(267,382,c),
(267,385,l),
(404,396,o),
(494,482,o),
(509,572,cs),
(524,657,o),
(469,716,o),
(360,716,cs),
(281,716,o),
(187,687,o),
(114,602,c),
(125,587,l),
(176,627,o),
(226,649,o),
(291,650,cs),
(370,651,o),
(406,611,o),
(395,546,cs),
(380,463,o),
(297,404,o),
(173,394,c),
(167,359,l),
(282,355,o),
(384,326,o),
(360,189,cs),
(344,100,o),
(284,30,o),
(190,30,cs),
(65,30,o),
(117,156,o),
(41,156,cs),
(14,156,o),
(-8,140,o),
(-13,112,cs),
(-23,51,o),
(51,-8,o),
(187,-8,cs)
);
}
);
width = 501;
},
{
associatedMasterId = m002;
layerId = "98ACA60D-BF0A-4052-9F74-97393E987A07";
name = "12 Nov 22 20.22";
shapes = (
{
closed = 1;
nodes = (
(420,-8,o),
(491,92,o),
(491,186,cs),
(491,361,o),
(287,401,o),
(214,406,c),
(214,409,l),
(373,420,o),
(461,504,o),
(461,588,cs),
(461,665,o),
(400,716,o),
(299,716,cs),
(228,716,o),
(134,692,o),
(60,622,c),
(68,607,l),
(114,641,o),
(187,649,o),
(235,650,cs),
(312,652,o),
(351,619,o),
(351,570,cs),
(351,485,o),
(244,438,o),
(138,418,cs),
(124,415,o),
(118,411,o),
(118,400,cs),
(118,390,o),
(123,385,o),
(138,383,cs),
(244,369,o),
(379,345,o),
(379,181,cs),
(379,100,o),
(336,30,o),
(265,30,cs),
(134,30,o),
(128,156,o),
(62,156,cs),
(39,156,o),
(20,140,o),
(20,113,cs),
(20,51,o),
(135,-8,o),
(241,-8,cs)
);
}
);
width = 511;
}
);
unicode = 51;
},
{
glyphname = four;
kernLeft = four;
kernRight = four;
lastChange = "2023-06-21 14:13:13 +0000";
layers = (
{
hints = (
{
name = _corner.rightSerif.Upper;
origin = (0,0);
type = Corner;
},
{
name = _corner.leftSerif.Upper;
origin = (0,13);
type = Corner;
}
);
layerId = m01;
shapes = (
{
closed = 1;
nodes = (
(432,0,l),
(432,208,l),
(418,191,l),
(491,191,l),
(507,237,l),
(419,237,l),
(432,224,l),
(432,700,l),
(349,700,l),
(26,236,l),
(26,191,l),
(340,191,l),
(327,205,l),
(327,0,l)
);
},
{
closed = 1;
nodes = (
(368,676,l),
(327,646,l),
(327,220,l),
(340,237,l),
(49,237,l),
(49,218,l)
);
}
);
width = 529;
},
{
hints = (
{
name = _corner.rightSerif.Upper;
options = 1;
origin = (0,0);
type = Corner;
},
{
name = _corner.leftSerif.Upper;
origin = (0,13);
type = Corner;
}
);
layerId = m002;
shapes = (
{
closed = 1;
nodes = (
(376,0,l),
(413,208,l),
(396,191,l),
(469,191,l),
(493,237,l),
(405,237,l),
(416,224,l),
(500,700,l),
(417,700,l),
(12,236,l),
(4,191,l),
(318,191,l),
(307,205,l),
(271,0,l)
);
},
{
closed = 1;
nodes = (
(431,676,l),
(385,646,l),
(310,220,l),
(326,237,l),
(35,237,l),
(32,218,l)
);
}
);
width = 514;
}
);
unicode = 52;
},
{
glyphname = five;
kernLeft = five;
kernRight = five;
lastChange = "2023-06-18 04:37:17 +0000";
layers = (
{
hints = (
{
name = _corner.leftSerif;
options = 1;
origin = (0,13);
scale = (-1,1);
type = Corner;
}
);
layerId = m01;
shapes = (
{
closed = 1;
nodes = (
(386,-16,o),
(476,89,o),
(476,246,cs),
(476,389,o),
(383,483,o),
(250,483,cs),
(198,483,o),
(156,469,o),
(96,444,c),
(103,435,l),
(151,620,l),
(134,605,l),
(450,605,l),
(473,700,l),
(137,700,l),
(64,398,l),
(94,367,l),
(131,409,o),
(186,420,o),
(222,420,cs),
(314,420,o),
(364,349,o),
(364,243,cs),
(364,94,o),
(305,25,o),
(234,25,cs),
(139,25,o),
(125,145,o),
(62,145,cs),
(39,145,o),
(20,129,o),
(20,103,cs),
(20,40,o),
(135,-16,o),
(240,-16,cs)
);
}
);
width = 511;
},
{
hints = (
{
name = _corner.leftSerif;
options = 1;
origin = (0,13);
scale = (-1,1);
type = Corner;
}
);
layerId = m002;
shapes = (
{
closed = 1;
nodes = (
(327,-16,o),
(436,89,o),
(463,246,cs),
(488,389,o),
(412,483,o),
(279,483,cs),
(227,483,o),
(183,469,o),
(118,444,c),
(124,435,l),
(204,620,l),
(185,605,l),
(501,605,l),
(540,700,l),
(204,700,l),
(78,398,l),
(103,367,l),
(147,409,o),
(204,420,o),
(240,420,cs),
(332,420,o),
(369,349,o),
(351,243,cs),
(324,94,o),
(253,25,o),
(182,25,cs),
(87,25,o),
(94,145,o),
(31,145,cs),
(8,145,o),
(-13,129,o),
(-18,103,cs),
(-29,40,o),
(76,-16,o),
(181,-16,cs)
);
}
);
width = 488;
}
);
unicode = 53;
},
